<?xml version="1.0" standalone="no"?>
<!DOCTYPE svg PUBLIC "-//W3C//DTD SVG 1.1//EN" "http://www.w3.org/Graphics/SVG/1.1/DTD/svg11.dtd" >
<svg xmlns="http://www.w3.org/2000/svg">
<metadata></metadata>
<defs>
<font id="lldotregular" horiz-adv-x="1060" >
<font-face units-per-em="2048" ascent="1638" descent="-410" />
<missing-glyph horiz-adv-x="540" />
<glyph horiz-adv-x="0" />
<glyph unicode="&#xd;" horiz-adv-x="540" />
<glyph unicode=" "  horiz-adv-x="540" />
<glyph unicode="&#x09;" horiz-adv-x="540" />
<glyph unicode="&#xa0;" horiz-adv-x="540" />
<glyph unicode="!" horiz-adv-x="198" d="M0 20q0 33 33 33t33 -33t-33 -32q-33 0 -33 32zM0 416q0 33 33 33t33 -33t-33 -33t-33 33zM0 549q0 33 33 33t33 -33t-33 -33t-33 33zM0 680q0 33 33 33t33 -33t-33 -33t-33 33zM0 813q0 33 33 33t33 -33t-33 -33t-33 33zM0 944q0 33 33 33t33 -33t-33 -33t-33 33z M0 1077q0 33 33 33t33 -33t-33 -33t-33 33zM0 1208q0 33 33 33t33 -33t-33 -32q-33 0 -33 32zM0 1341q0 33 33 33t33 -33t-33 -32q-33 0 -33 32zM0 1473q0 35 33 34q33 1 33 -34q0 -33 -33 -33t-33 33z" />
<glyph unicode="&#x22;" horiz-adv-x="473" d="M0 1208q0 33 33 33t33 -33t-33 -32q-33 0 -33 32zM0 1341q0 33 33 33t33 -33t-33 -32q-33 0 -33 32zM0 1473q0 35 33 34q33 1 33 -34q0 -33 -33 -33t-33 33zM264 1208q0 33 33 33t33 -33t-33 -32q-33 0 -33 32zM264 1341q0 33 33 33t33 -33t-33 -32q-33 0 -33 32z M264 1473q0 35 33 34q33 1 33 -34q0 -33 -33 -33t-33 33z" />
<glyph unicode="#" horiz-adv-x="997" d="M0 549q0 33 33 33t33 -33t-33 -33t-33 33zM0 1077q0 33 33 33t33 -33t-33 -33t-33 33zM133 416q0 33 33 33t33 -33t-33 -33t-33 33zM133 549q0 33 33 33t33 -33t-33 -33t-33 33zM133 680q0 33 33 33t33 -33t-33 -33t-33 33zM133 813q0 33 33 33t33 -33t-33 -33t-33 33z M133 944q0 33 33 33t33 -33t-33 -33t-33 33zM133 1077q0 33 33 33t33 -33t-33 -33t-33 33zM133 1208q0 33 33 33t33 -33t-33 -32q-33 0 -33 32zM264 549q0 33 33 33t33 -33t-33 -33t-33 33zM264 1077q0 33 33 33t33 -33t-33 -33t-33 33zM397 549q0 33 33 33t33 -33t-33 -33 t-33 33zM397 1077q0 33 33 33t33 -33t-33 -33t-33 33zM528 549q0 33 33 33t33 -33t-33 -33t-33 33zM528 1077q0 33 33 33t33 -33t-33 -33t-33 33zM662 416q0 33 32 33q33 0 33 -33t-33 -33t-32 33zM662 549q0 33 32 33q33 0 33 -33t-33 -33t-32 33zM662 680q0 33 32 33 q33 0 33 -33t-33 -33t-32 33zM662 813q0 33 32 33q33 0 33 -33t-33 -33t-32 33zM662 944q0 33 32 33q33 0 33 -33t-33 -33t-32 33zM662 1077q0 33 32 33q33 0 33 -33t-33 -33t-32 33zM662 1208q0 33 32 33q33 0 33 -33t-33 -32q-33 0 -32 32zM793 549q0 33 32 33 q33 0 33 -33t-33 -33t-32 33zM793 1077q0 33 32 33q33 0 33 -33t-33 -33t-32 33z" />
<glyph unicode="$" horiz-adv-x="987" d="M0 285q0 33 33 32q33 1 33 -32t-33 -33t-33 33zM4 1079q0 33 33 33t33 -33t-33 -32q-33 0 -33 32zM4 1212q0 33 33 33t33 -33t-33 -32q-33 0 -33 32zM133 152q0 33 33 32q33 1 33 -32t-33 -33t-33 33zM135 948q0 33 33 33t33 -33t-33 -33t-33 33zM135 1343q0 33 33 33 t33 -33t-33 -32q-33 0 -33 32zM264 20q0 33 33 33t33 -33t-33 -32q-33 0 -33 32zM268 815q0 33 33 33t33 -33t-33 -33t-33 33zM268 1477q0 33 33 32q33 1 33 -32t-33 -33t-33 33zM397 -113q0 33 33 33t33 -33t-33 -32q-33 0 -33 32zM397 152q0 33 33 32q33 1 33 -32t-33 -33 t-33 33zM397 285q0 33 33 32q33 1 33 -32t-33 -33t-33 33zM397 416q0 33 33 33t33 -33t-33 -33t-33 33zM397 549q0 33 33 33t33 -33t-33 -33t-33 33zM397 680q0 33 33 33t33 -33t-33 -33t-33 33zM397 813q0 18 8.5 26.5t26.5 8.5q33 0 33 -33q0 -18 -8.5 -26.5t-26.5 -8.5 q-33 0 -33 33zM397 944q0 33 33 33t33 -33t-33 -33t-33 33zM397 1077q0 33 33 33t33 -33t-33 -33t-33 33zM397 1208q0 33 33 33t33 -33t-33 -32q-33 0 -33 32zM397 1341q0 33 33 33t33 -33t-33 -32q-33 0 -33 32zM397 1606q0 33 33 32q33 1 33 -32t-33 -33t-33 33zM399 1477 q0 12 7.5 21t23.5 9q33 0 33 -34q0 -10 -2 -17q-8 -12 -29 -12q-33 0 -33 33zM528 20q0 33 33 33t33 -33t-33 -32q-33 0 -33 32zM532 815q0 33 33 33t33 -33t-33 -33t-33 33zM532 1477q0 33 33 32q33 1 33 -32t-33 -33t-33 33zM662 152q0 33 32 32q33 1 33 -32t-33 -33 t-32 33zM664 684q0 33 32 33q33 0 33 -33t-33 -33t-32 33zM664 1343q0 33 32 33q33 0 33 -33t-33 -32q-33 0 -32 32zM793 285q0 33 32 32q33 1 33 -32t-33 -33t-32 33zM797 420q0 33 32 33q33 0 33 -33t-33 -33t-32 33zM797 551q0 33 32 33q33 0 33 -33t-33 -33t-32 33z M797 1212q0 33 32 33q33 0 33 -33t-33 -32q-33 0 -32 32z" />
<glyph unicode="%" horiz-adv-x="1253" d="M0 1341q0 33 33 33t33 -33t-33 -32q-33 0 -33 32zM133 1208q0 33 33 33t33 -33t-33 -32q-33 0 -33 32zM133 1473q0 35 33 34q33 1 33 -34q0 -33 -33 -33t-33 33zM135 23q0 33 35 32q33 1 33 -32t-33 -33q-35 0 -35 33zM135 154q0 35 35 34q33 1 33 -34q0 -33 -33 -33 q-35 0 -35 33zM264 1341q0 33 33 33t33 -33t-33 -32q-33 0 -33 32zM268 287q0 33 33 32q33 1 33 -32t-33 -33t-33 33zM268 418q0 35 33 35t33 -35q0 -33 -33 -33t-33 33zM399 551q0 33 35 33q33 0 33 -33t-33 -33q-35 0 -35 33zM399 682q0 35 35 35q33 0 33 -35 q0 -33 -33 -33q-35 0 -35 33zM532 815q0 33 33 33t33 -33t-33 -33t-33 33zM532 948q0 33 33 33t33 -33q0 -35 -33 -35t-33 35zM664 1079q0 33 34 33q33 0 33 -33t-33 -32q-35 0 -34 32zM664 1212q0 33 34 33q33 0 33 -33q0 -35 -33 -34q-35 0 -34 34zM797 276q0 35 32 35 q33 0 33 -35q0 -33 -33 -32q-33 0 -32 32zM797 1343q0 33 32 33q33 0 33 -33t-33 -32q-33 0 -32 32zM797 1477q0 33 32 32q33 1 33 -32q0 -35 -33 -35t-32 35zM928 1608q0 33 35 32q32 1 32 -32t-32 -33q-35 0 -35 33zM930 145q0 33 33 33q32 0 32 -33t-32 -32q-33 0 -33 32 zM930 410q0 33 33 32q32 1 32 -32t-32 -33q-33 0 -33 33zM1061 276q0 35 33 35q32 0 32 -35q0 -33 -32 -32q-33 0 -33 32z" />
<glyph unicode="&#x26;" horiz-adv-x="1257" d="M0 285q0 33 33 32q33 1 33 -32t-33 -33t-33 33zM0 416q0 33 33 33t33 -33t-33 -33t-33 33zM0 549q0 33 33 33t33 -33t-33 -33t-33 33zM0 1077q0 33 33 33t33 -33t-33 -33t-33 33zM0 1208q0 33 33 33t33 -33t-33 -32q-33 0 -33 32zM0 1341q0 33 33 33t33 -33t-33 -32 q-33 0 -33 32zM133 152q0 33 33 32q33 1 33 -32t-33 -33t-33 33zM133 680q0 33 33 33t33 -33t-33 -33t-33 33zM133 944q0 33 33 33t33 -33t-33 -33t-33 33zM133 1473q0 35 33 34q33 1 33 -34q0 -33 -33 -33t-33 33zM264 20q0 33 33 33t33 -33t-33 -32q-33 0 -33 32zM264 813 q0 33 33 33t33 -33t-33 -33t-33 33zM264 1606q0 33 33 32q33 1 33 -32t-33 -33t-33 33zM397 20q0 33 33 33t33 -33t-33 -32q-33 0 -33 32zM397 680q0 33 33 33t33 -33t-33 -33t-33 33zM397 944q0 33 33 33t33 -33t-33 -33t-33 33zM397 1606q0 33 33 32q33 1 33 -32t-33 -33 t-33 33zM528 152q0 33 33 32q33 1 33 -32t-33 -33t-33 33zM528 549q0 33 33 33t33 -33t-33 -33t-33 33zM528 1077q0 33 33 33t33 -33t-33 -33t-33 33zM528 1473q0 35 33 34q33 1 33 -34q0 -33 -33 -33t-33 33zM662 285q0 33 32 32q33 1 33 -32t-33 -33t-32 33zM662 416 q0 33 32 33q33 0 33 -33t-33 -33t-32 33zM662 1208q0 33 32 33q33 0 33 -33t-33 -32q-33 0 -32 32zM662 1341q0 33 32 33q33 0 33 -33t-33 -32q-33 0 -32 32zM793 285q0 33 32 32q33 1 33 -32t-33 -33t-32 33zM793 416q0 33 32 33q33 0 33 -33t-33 -33t-32 33zM926 152 q0 33 32 32q33 1 33 -32t-33 -33t-32 33zM926 549q0 33 32 33q33 0 33 -33t-33 -33t-32 33zM1057 20q0 33 33 33q32 0 32 -33t-32 -32q-33 0 -33 32z" />
<glyph unicode="'" horiz-adv-x="987" d="M397 1473q0 16 7.5 26t27.5 10q33 1 33 -32q0 -12 -4 -21q-8 -16 -31 -16q-33 0 -33 33zM397 1606q0 33 33 32q33 1 33 -32t-33 -33t-33 33zM399 1477q0 -33 33 -33q20 0 29 12q2 6 2 17q0 35 -33 34q-16 0 -23.5 -9t-7.5 -21z" />
<glyph unicode="(" horiz-adv-x="724" d="M0 416q0 33 33 33t33 -33t-33 -33t-33 33zM0 549q0 33 33 33t33 -33t-33 -33t-33 33zM0 680q0 33 33 33t33 -33t-33 -33t-33 33zM0 813q0 33 33 33t33 -33t-33 -33t-33 33zM0 944q0 33 33 33t33 -33t-33 -33t-33 33zM0 1077q0 33 33 33t33 -33t-33 -33t-33 33zM0 1208 q0 33 33 33t33 -33t-33 -32q-33 0 -33 32zM133 285q0 33 33 32q33 1 33 -32t-33 -33t-33 33zM133 1341q0 33 33 33t33 -33t-33 -32q-33 0 -33 32zM264 152q0 33 33 32q33 1 33 -32t-33 -33t-33 33zM264 1473q0 35 33 34q33 1 33 -34q0 -33 -33 -33t-33 33zM397 20 q0 33 33 33t33 -33t-33 -32q-33 0 -33 32zM401 1604q0 35 33 34q33 1 33 -34q0 -33 -33 -33t-33 33z" />
<glyph unicode=")" horiz-adv-x="724" d="M123 1604q0 35 33 34q32 1 32 -34q0 -33 -32 -33q-33 0 -33 33zM127 20q0 33 33 33t33 -33t-33 -32q-33 0 -33 32zM260 152q0 33 33 32q33 1 33 -32t-33 -33t-33 33zM260 1473q0 35 33 34q33 1 33 -34q0 -33 -33 -33t-33 33zM391 285q0 33 33 32q33 1 33 -32t-33 -33 t-33 33zM391 1341q0 33 33 33t33 -33t-33 -32q-33 0 -33 32zM524 416q0 33 33 33t33 -33t-33 -33t-33 33zM524 549q0 33 33 33t33 -33t-33 -33t-33 33zM524 680q0 33 33 33t33 -33t-33 -33t-33 33zM524 813q0 33 33 33t33 -33t-33 -33t-33 33zM524 944q0 33 33 33t33 -33 t-33 -33t-33 33zM524 1077q0 33 33 33t33 -33t-33 -33t-33 33zM524 1208q0 33 33 33t33 -33t-33 -32q-33 0 -33 32z" />
<glyph unicode="*" horiz-adv-x="866" d="M133 680q0 33 33 33t33 -33t-33 -33t-33 33zM133 1208q0 33 33 33t33 -33t-33 -32q-33 0 -33 32zM264 813q0 33 33 33t33 -33t-33 -33t-33 33zM264 1077q0 33 33 33t33 -33t-33 -33t-33 33zM397 549q0 33 33 33t33 -33t-33 -33t-33 33zM397 680q0 33 33 33t33 -33 t-33 -33t-33 33zM397 813q0 33 33 33t33 -33t-33 -33t-33 33zM397 944q0 33 33 33t33 -33t-33 -33t-33 33zM397 1077q0 33 33 33t33 -33t-33 -33t-33 33zM397 1208q0 33 33 33t33 -33t-33 -32q-33 0 -33 32zM397 1341q0 33 33 33t33 -33t-33 -32q-33 0 -33 32zM528 813 q0 33 33 33t33 -33t-33 -33t-33 33zM528 1077q0 33 33 33t33 -33t-33 -33t-33 33zM662 680q0 33 32 33q33 0 33 -33t-33 -33t-32 33zM662 1208q0 33 32 33q33 0 33 -33t-33 -32q-33 0 -32 32z" />
<glyph unicode="+" horiz-adv-x="991" d="M-2 809q0 33 35 33q33 0 33 -33t-33 -33q-35 0 -35 33zM131 809q0 33 33 33t33 -33t-33 -33t-33 33zM262 809q0 33 35 33q33 0 33 -33t-33 -33q-35 0 -35 33zM395 412q0 35 33 34q33 1 33 -34q0 -33 -33 -33t-33 33zM395 545q0 33 33 33t33 -33t-33 -33t-33 33zM395 676 q0 35 33 35t33 -35q0 -33 -33 -33t-33 33zM395 809q0 33 33 33t33 -33t-33 -33t-33 33zM395 942q0 33 33 33t33 -33q0 -35 -33 -35t-33 35zM395 1073q0 33 33 33t33 -33t-33 -33t-33 33zM395 1206q0 33 33 33t33 -33q0 -35 -33 -35t-33 35zM528 809q0 33 33 33t33 -33 t-33 -33t-33 33zM659 809q0 33 33 33t33 -33t-33 -33t-33 33zM793 809q0 33 32 33q33 0 33 -33t-33 -33t-32 33z" />
<glyph unicode="," horiz-adv-x="403" d="M2 -121q0 33 33 33t33 -33t-33 -33t-33 33zM133 10q0 33 33 33q35 0 35 -33t-35 -33q-33 0 -33 33zM133 143q0 33 33 33q35 0 35 -33t-35 -32q-33 0 -33 32z" />
<glyph unicode="." horiz-adv-x="198" d="M0 20q0 33 33 33t33 -33t-33 -32q-33 0 -33 32z" />
<glyph unicode="/" horiz-adv-x="1253" d="M135 23q0 33 33 32q33 1 33 -32t-33 -33t-33 33zM135 154q0 35 33 34q33 1 33 -34q0 -33 -33 -33t-33 33zM268 287q0 33 33 32q33 1 33 -32t-33 -33t-33 33zM268 418q0 35 33 35t33 -35q0 -33 -33 -33t-33 33zM399 551q0 33 33 33t33 -33t-33 -33t-33 33zM399 682 q0 35 33 35t33 -35q0 -33 -33 -33t-33 33zM532 815q0 33 33 33t33 -33t-33 -33t-33 33zM532 948q0 33 33 33t33 -33q0 -35 -33 -35t-33 35zM664 1079q0 33 32 33q33 0 33 -33t-33 -32q-33 0 -32 32zM664 1212q0 33 32 33q33 0 33 -33q0 -35 -33 -34q-33 0 -32 34zM797 1343 q0 33 32 33q33 0 33 -33t-33 -32q-33 0 -32 32zM797 1477q0 33 32 32q33 1 33 -32q0 -35 -33 -35t-32 35zM928 1608q0 33 33 32q32 1 32 -32t-32 -33q-33 0 -33 33z" />
<glyph unicode="0" horiz-adv-x="1191" d="M-2 1073q0 33 33 33q32 0 32 -33t-32 -33q-33 0 -33 33zM-2 1206q0 33 33 33q32 0 32 -33t-32 -32q-33 0 -33 32zM0 285q0 33 33 32q33 1 33 -32t-33 -33t-33 33zM0 416q0 33 33 33t33 -33t-33 -33t-33 33zM0 549q0 33 33 33t33 -33t-33 -33t-33 33zM0 680q0 33 33 33 t33 -33t-33 -33t-33 33zM0 813q0 33 33 33t33 -33t-33 -33t-33 33zM0 944q0 33 33 33t33 -33t-33 -33t-33 33zM131 1337q0 33 33 33t33 -33t-33 -32q-33 0 -33 32zM133 152q0 33 33 32q33 1 33 -32t-33 -33t-33 33zM262 1470q0 33 33 33q35 0 35 -33t-35 -32q-33 0 -33 32z M264 20q0 33 33 33t33 -33t-33 -32q-33 0 -33 32zM395 1470q0 33 33 33t33 -33t-33 -32q-33 0 -33 32zM397 20q0 33 33 33t33 -33t-33 -32q-33 0 -33 32zM526 1470q0 33 33 33q35 0 35 -33t-35 -32q-33 0 -33 32zM528 20q0 33 33 33t33 -33t-33 -32q-33 0 -33 32zM659 1470 q0 33 33 33t33 -33t-33 -32q-33 0 -33 32zM662 20q0 33 32 33q33 0 33 -33t-33 -32q-33 0 -32 32zM791 1337q0 33 32 33q35 0 35 -33t-35 -32q-33 0 -32 32zM793 152q0 33 32 32q33 1 33 -32t-33 -33t-32 33zM924 1073q0 33 32 33q33 0 33 -33t-33 -33t-32 33zM924 1206 q0 33 32 33q33 0 33 -33t-33 -32q-33 0 -32 32zM926 285q0 33 32 32q33 1 33 -32t-33 -33t-32 33zM926 416q0 33 32 33q33 0 33 -33t-33 -33t-32 33zM926 549q0 33 32 33q33 0 33 -33t-33 -33t-32 33zM926 680q0 33 32 33q33 0 33 -33t-33 -33t-32 33zM926 813q0 33 32 33 q33 0 33 -33t-33 -33t-32 33zM926 944q0 33 32 33q33 0 33 -33t-33 -33t-32 33z" />
<glyph unicode="1" horiz-adv-x="800" d="M-2 1206q0 33 33 33q32 0 32 -33t-32 -32q-33 0 -33 32zM0 20q0 33 33 33t33 -33t-33 -32q-33 0 -33 32zM129 1337q0 33 33 33q35 0 35 -33t-35 -32q-33 0 -33 32zM133 20q0 33 33 33t33 -33t-33 -32q-33 0 -33 32zM262 809q0 33 33 33t33 -33t-33 -33t-33 33zM262 942 q0 33 33 33t33 -33t-33 -33t-33 33zM262 1073q0 33 33 33t33 -33t-33 -33t-33 33zM262 1206q0 33 33 33t33 -33t-33 -32q-33 0 -33 32zM262 1337q0 33 33 33t33 -33t-33 -32q-33 0 -33 32zM262 1470q0 33 33 33t33 -33t-33 -32q-33 0 -33 32zM264 20q0 33 33 33t33 -33 t-33 -32q-33 0 -33 32zM264 152q0 33 33 32q33 1 33 -32t-33 -33t-33 33zM264 285q0 33 33 32q33 1 33 -32t-33 -33t-33 33zM264 416q0 33 33 33t33 -33t-33 -33t-33 33zM264 549q0 33 33 33t33 -33t-33 -33t-33 33zM264 680q0 33 33 33t33 -33t-33 -33t-33 33zM397 20 q0 33 33 33t33 -33t-33 -32q-33 0 -33 32zM528 20q0 33 33 33t33 -33t-33 -32q-33 0 -33 32z" />
<glyph unicode="2" horiz-adv-x="929" d="M0 20q0 33 33 33t33 -33t-33 -32q-33 0 -33 32zM0 152q0 33 33 32q33 1 33 -32t-33 -33t-33 33zM0 285q0 33 33 32q33 1 33 -32t-33 -33t-33 33zM4 1079q0 33 33 33q35 0 35 -33t-35 -32q-33 0 -33 32zM4 1210q0 33 33 33q35 0 35 -33t-35 -32q-33 0 -33 32zM133 20 q0 33 33 33t33 -33t-33 -32q-33 0 -33 32zM133 416q0 33 33 33t33 -33t-33 -33t-33 33zM137 1343q0 33 33 33t33 -33t-33 -32q-33 0 -33 32zM264 20q0 33 33 33t33 -33t-33 -32q-33 0 -33 32zM264 549q0 33 33 33t33 -33t-33 -33t-33 33zM268 1475q0 33 33 32q35 1 35 -32 t-35 -33q-33 0 -33 33zM397 20q0 33 33 33t33 -33t-33 -32q-33 0 -33 32zM397 680q0 33 33 33t33 -33t-33 -33t-33 33zM401 1475q0 33 33 32q33 1 33 -32t-33 -33t-33 33zM528 20q0 33 33 33t33 -33t-33 -32q-33 0 -33 32zM528 813q0 33 33 33t33 -33t-33 -33t-33 33z M532 1343q0 33 33 33q35 0 35 -33t-35 -32q-33 0 -33 32zM662 20q0 33 32 33q33 0 33 -33t-33 -32q-33 0 -32 32zM666 946q0 33 32 33q33 0 33 -33t-33 -33t-32 33zM666 1079q0 33 32 33q33 0 33 -33t-33 -32q-33 0 -32 32zM666 1210q0 33 32 33q33 0 33 -33t-33 -32 q-33 0 -32 32z" />
<glyph unicode="3" horiz-adv-x="923" d="M0 285q0 33 33 32q33 1 33 -32t-33 -33t-33 33zM0 416q0 33 33 33t33 -33t-33 -33t-33 33zM2 1077q0 33 33 33q35 0 35 -33q0 -35 -35 -35q-33 0 -33 35zM2 1208q0 33 33 33q35 0 35 -33t-35 -32q-33 0 -33 32zM133 152q0 33 33 32q33 1 33 -32t-33 -33t-33 33zM135 1341 q0 33 33 33t33 -33t-33 -32q-33 0 -33 32zM264 20q0 33 33 33t33 -33t-33 -32q-33 0 -33 32zM266 1473q0 33 33 32q35 1 35 -32t-35 -33q-33 0 -33 33zM397 20q0 33 33 33t33 -33t-33 -32q-33 0 -33 32zM399 811q0 33 33 33q35 0 35 -33t-35 -33q-33 0 -33 33zM399 1473 q0 33 33 32q33 1 33 -32t-33 -33t-33 33zM528 152q0 33 33 32q33 1 33 -32t-33 -33t-33 33zM528 680q0 33 33 33t33 -33t-33 -33t-33 33zM528 948q0 33 33 33t33 -33t-33 -33t-33 33zM530 1341q0 33 33 33q35 0 35 -33t-35 -32q-33 0 -33 32zM662 285q0 33 32 32 q33 1 33 -32t-33 -33t-32 33zM662 416q0 33 32 33q33 0 33 -33t-33 -33t-32 33zM662 549q0 33 32 33q33 0 33 -33t-33 -33t-32 33zM662 1077q0 33 32 33q33 0 33 -33t-33 -33t-32 33zM664 1208q0 33 32 33q33 0 33 -33t-33 -32q-33 0 -32 32z" />
<glyph unicode="4" horiz-adv-x="1191" d="M6 678q0 33 33 33t33 -33t-33 -33t-33 33zM6 809q0 33 33 33t33 -33t-33 -33t-33 33zM139 678q0 33 33 33t33 -33t-33 -33t-33 33zM139 942q0 33 33 33t33 -33t-33 -33t-33 33zM270 678q0 33 33 33t33 -33t-33 -33t-33 33zM270 1073q0 33 33 33t33 -33t-33 -33t-33 33z M403 678q0 33 33 33t33 -33t-33 -33t-33 33zM403 1206q0 33 33 33t33 -33t-33 -32q-33 0 -33 32zM535 678q0 33 32 33q33 0 33 -33t-33 -33t-32 33zM535 1337q0 33 32 33q33 0 33 -33t-33 -32q-33 0 -32 32zM659 20q0 33 33 33q35 0 35 -33t-35 -32q-33 0 -33 32zM659 152 q0 33 33 32q35 1 35 -32t-35 -33q-33 0 -33 33zM659 285q0 33 33 32q35 1 35 -32t-35 -33q-33 0 -33 33zM659 416q0 33 33 33q35 0 35 -33t-35 -33q-33 0 -33 33zM668 545q0 33 32 33q33 0 33 -33t-33 -33t-32 33zM668 678q0 33 32 33q33 0 33 -33t-33 -33t-32 33zM668 809 q0 33 32 33q33 0 33 -33t-33 -33t-32 33zM668 942q0 33 32 33q33 0 33 -33t-33 -33t-32 33zM668 1073q0 33 32 33q33 0 33 -33t-33 -33t-32 33zM668 1206q0 33 32 33q33 0 33 -33t-33 -32q-33 0 -32 32zM668 1337q0 33 32 33q33 0 33 -33t-33 -32q-33 0 -32 32zM668 1470 q0 33 32 33q33 0 33 -33t-33 -32q-33 0 -32 32zM799 678q0 33 32 33q33 0 33 -33t-33 -33t-32 33zM932 678q0 33 33 33q32 0 32 -33t-32 -33q-33 0 -33 33z" />
<glyph unicode="5" horiz-adv-x="925" d="M0 285q0 33 33 32q33 1 33 -32t-33 -33t-33 33zM0 416q0 33 33 33t33 -33t-33 -33t-33 33zM0 809q0 35 33 35t33 -35q0 -33 -33 -33t-33 33zM2 946q0 33 33 33t33 -33t-33 -33t-33 33zM4 1069q0 33 33 33t33 -33t-33 -33t-33 33zM4 1202q0 33 33 33t33 -33q0 -35 -33 -35 t-33 35zM4 1333q0 33 33 33t33 -33t-33 -33t-33 33zM4 1466q0 33 33 33t33 -33q0 -35 -33 -34q-33 0 -33 34zM131 809q0 35 33 35t33 -35q0 -33 -33 -33t-33 33zM133 152q0 33 33 32q33 1 33 -32t-33 -33t-33 33zM135 1466q0 33 33 33q35 0 35 -33q0 -35 -35 -34 q-33 0 -33 34zM264 20q0 33 33 33t33 -33t-33 -32q-33 0 -33 32zM264 809q0 35 33 35t33 -35q0 -33 -33 -33t-33 33zM268 1466q0 33 33 33t33 -33q0 -35 -33 -34q-33 0 -33 34zM397 20q0 33 33 33t33 -33t-33 -32q-33 0 -33 32zM397 813q0 33 33 33t33 -33t-33 -33t-33 33z M399 1466q0 33 33 33q35 0 35 -33q0 -35 -35 -34q-33 0 -33 34zM528 152q0 33 33 32q33 1 33 -32t-33 -33t-33 33zM528 680q0 33 33 33t33 -33t-33 -33t-33 33zM532 1466q0 33 33 33t33 -33q0 -35 -33 -34q-33 0 -33 34zM662 285q0 33 32 32q33 1 33 -32t-33 -33t-32 33z M662 416q0 33 32 33q33 0 33 -33t-33 -33t-32 33zM662 549q0 33 32 33q33 0 33 -33t-33 -33t-32 33zM664 1466q0 33 32 33q35 0 35 -33q0 -35 -35 -34q-33 0 -32 34z" />
<glyph unicode="6" horiz-adv-x="931" d="M-2 1079q0 33 33 33q35 0 35 -33q0 -35 -35 -35q-33 0 -33 35zM-2 1210q0 33 33 33q35 0 35 -33t-35 -32q-33 0 -33 32zM0 285q0 33 33 32q33 1 33 -32t-33 -33t-33 33zM0 416q0 33 33 33t33 -33t-33 -33t-33 33zM0 549q0 33 33 33t33 -33t-33 -33t-33 33zM0 680 q0 33 33 33t33 -33t-33 -33t-33 33zM0 809q0 35 33 35t33 -35q0 -33 -33 -33t-33 33zM2 946q0 33 33 33t33 -33t-33 -33t-33 33zM131 805q0 33 33 33t33 -33t-33 -33t-33 33zM131 1343q0 33 33 33t33 -33t-33 -32q-33 0 -33 32zM133 152q0 33 33 32q33 1 33 -32t-33 -33 t-33 33zM262 1475q0 33 33 32q35 1 35 -32t-35 -33q-33 0 -33 33zM264 20q0 33 33 33t33 -33t-33 -32q-33 0 -33 32zM264 809q0 35 33 35t33 -35q0 -33 -33 -33t-33 33zM395 1475q0 33 33 32q33 1 33 -32t-33 -33t-33 33zM397 20q0 33 33 33t33 -33t-33 -32q-33 0 -33 32z M397 813q0 33 33 33t33 -33t-33 -33t-33 33zM526 1343q0 33 33 33q35 0 35 -33t-35 -32q-33 0 -33 32zM528 152q0 33 33 32q33 1 33 -32t-33 -33t-33 33zM528 680q0 33 33 33t33 -33t-33 -33t-33 33zM659 1210q0 33 33 33t33 -33t-33 -32q-33 0 -33 32zM662 285q0 33 32 32 q33 1 33 -32t-33 -33t-32 33zM662 416q0 33 32 33q33 0 33 -33t-33 -33t-32 33zM662 549q0 33 32 33q33 0 33 -33t-33 -33t-32 33z" />
<glyph unicode="7" horiz-adv-x="929" d="M0 20q0 33 33 33t33 -33t-33 -32q-33 0 -33 32zM0 152q0 33 33 32q33 1 33 -32t-33 -33t-33 33zM2 1479q0 33 33 32q33 1 33 -32t-33 -33t-33 33zM133 285q0 33 33 32q33 1 33 -32t-33 -33t-33 33zM133 416q0 33 33 33t33 -33t-33 -33t-33 33zM133 1479q0 33 33 32 q33 1 33 -32t-33 -33t-33 33zM264 549q0 33 33 33t33 -33t-33 -33t-33 33zM264 680q0 33 33 33t33 -33t-33 -33t-33 33zM266 1479q0 33 33 32q33 1 33 -32t-33 -33t-33 33zM397 813q0 33 33 33t33 -33t-33 -33t-33 33zM397 944q0 33 33 33t33 -33t-33 -33t-33 33zM397 1479 q0 33 33 32q33 1 33 -32t-33 -33t-33 33zM528 1077q0 33 33 33t33 -33t-33 -33t-33 33zM528 1208q0 33 33 33t33 -33t-33 -32q-33 0 -33 32zM530 1479q0 33 33 32q33 1 33 -32t-33 -33t-33 33zM662 1479q0 33 32 32q33 1 33 -32t-33 -33t-32 33zM664 1341q0 33 32 33 q33 0 33 -33t-33 -32q-33 0 -32 32z" />
<glyph unicode="8" horiz-adv-x="925" d="M0 285q0 33 33 32q33 1 33 -32t-33 -33t-33 33zM0 416q0 33 33 33t33 -33t-33 -33t-33 33zM0 549q0 33 33 33t33 -33t-33 -33t-33 33zM2 1075q0 33 33 33t33 -33t-33 -33t-33 33zM2 1206q0 33 33 33t33 -33t-33 -32q-33 0 -33 32zM133 152q0 33 33 32q33 1 33 -32 t-33 -33t-33 33zM133 680q0 33 33 33t33 -33t-33 -33t-33 33zM133 942q0 33 33 33q35 0 35 -33t-35 -33q-33 0 -33 33zM133 1339q0 33 33 33q35 0 35 -33t-35 -32q-33 0 -33 32zM264 20q0 33 33 33t33 -33t-33 -32q-33 0 -33 32zM264 813q0 33 33 33t33 -33t-33 -33t-33 33z M266 1470q0 33 33 33t33 -33t-33 -32q-33 0 -33 32zM397 20q0 33 33 33t33 -33t-33 -32q-33 0 -33 32zM397 813q0 33 33 33t33 -33t-33 -33t-33 33zM397 1470q0 33 33 33q35 0 35 -33t-35 -32q-33 0 -33 32zM528 152q0 33 33 32q33 1 33 -32t-33 -33t-33 33zM528 680 q0 33 33 33t33 -33t-33 -33t-33 33zM530 942q0 33 33 33t33 -33t-33 -33t-33 33zM530 1339q0 33 33 33t33 -33t-33 -32q-33 0 -33 32zM662 285q0 33 32 32q33 1 33 -32t-33 -33t-32 33zM662 416q0 33 32 33q33 0 33 -33t-33 -33t-32 33zM662 549q0 33 32 33q33 0 33 -33 t-33 -33t-32 33zM662 1075q0 33 34 33q33 0 33 -33t-33 -33q-35 0 -34 33zM662 1206q0 33 34 33q33 0 33 -33t-33 -32q-35 0 -34 32z" />
<glyph unicode="9" horiz-adv-x="923" d="M0 285q0 33 33 32q33 1 33 -32t-33 -33t-33 33zM4 946q0 33 33 33t33 -33q0 -35 -33 -35t-33 35zM4 1077q0 33 33 33t33 -33t-33 -33t-33 33zM4 1210q0 33 33 33t33 -33q0 -35 -33 -34q-33 0 -33 34zM131 154q0 33 33 32q33 1 33 -32q0 -35 -33 -35t-33 35zM137 813 q0 33 33 33t33 -33t-33 -33t-33 33zM137 1341q0 33 33 33t33 -33t-33 -32q-33 0 -33 32zM264 20q0 33 33 33t33 -33t-33 -32q-33 0 -33 32zM268 680q0 35 33 35t33 -35q0 -33 -33 -33t-33 33zM268 1475q0 33 33 32q33 1 33 -32q0 -35 -33 -35t-33 35zM395 20q0 33 33 33 t33 -33t-33 -32q-33 0 -33 32zM401 684q0 33 33 33t33 -33t-33 -33t-33 33zM401 1475q0 33 33 32q33 1 33 -32q0 -35 -33 -35t-33 35zM528 154q0 33 33 32q33 1 33 -32q0 -35 -33 -35t-33 35zM532 1341q0 33 33 33t33 -33t-33 -32q-33 0 -33 32zM535 688q0 33 32 33 q33 0 33 -33t-33 -33t-32 33zM659 285q0 33 33 32q33 1 33 -32t-33 -33t-33 33zM659 418q0 33 33 33t33 -33q0 -35 -33 -35t-33 35zM664 547q0 33 32 33q33 0 33 -33t-33 -33t-32 33zM666 684q0 33 32 33q33 0 33 -33t-33 -33t-32 33zM666 813q0 33 32 33q33 0 33 -33 t-33 -33t-32 33zM666 946q0 33 32 33q33 0 33 -33q0 -35 -33 -35t-32 35zM666 1077q0 33 32 33q33 0 33 -33t-33 -33t-32 33zM666 1210q0 33 32 33q33 0 33 -33q0 -35 -33 -34q-33 0 -32 34z" />
<glyph unicode=":" horiz-adv-x="198" d="M0 549q0 33 33 33t33 -33t-33 -33t-33 33zM0 1077q0 33 33 33t33 -33t-33 -33t-33 33z" />
<glyph unicode=";" horiz-adv-x="327" d="M0 285q0 33 33 32q33 1 33 -32t-33 -33t-33 33zM133 414q0 33 33 32q33 1 33 -32t-33 -33t-33 33zM133 545q0 35 33 35t33 -35q0 -33 -33 -33t-33 33zM133 1073q0 35 33 35t33 -35q0 -33 -33 -33t-33 33z" />
<glyph unicode="&#x3c;" horiz-adv-x="661" d="M0 813q0 33 33 33t33 -33t-33 -33t-33 33zM133 680q0 33 33 33t33 -33t-33 -33t-33 33zM133 944q0 33 33 33t33 -33t-33 -33t-33 33zM264 549q0 33 33 33t33 -33t-33 -33t-33 33zM264 1077q0 33 33 33t33 -33t-33 -33t-33 33zM397 416q0 33 33 33t33 -33t-33 -33t-33 33z M397 1208q0 33 33 33t33 -33t-33 -32q-33 0 -33 32z" />
<glyph unicode="=" horiz-adv-x="792" d="M0 680q0 33 33 33t33 -33t-33 -33t-33 33zM0 944q0 33 33 33t33 -33t-33 -33t-33 33zM133 680q0 33 33 33t33 -33t-33 -33t-33 33zM133 944q0 33 33 33t33 -33t-33 -33t-33 33zM264 680q0 33 33 33t33 -33t-33 -33t-33 33zM264 944q0 33 33 33t33 -33t-33 -33t-33 33z M397 680q0 33 33 33t33 -33t-33 -33t-33 33zM397 944q0 33 33 33t33 -33t-33 -33t-33 33zM528 680q0 33 33 33t33 -33t-33 -33t-33 33zM528 944q0 33 33 33t33 -33t-33 -33t-33 33z" />
<glyph unicode="&#x3e;" horiz-adv-x="661" d="M4 414q0 33 33 32q33 1 33 -32t-33 -33t-33 33zM4 1206q0 33 33 33t33 -33t-33 -32q-33 0 -33 32zM135 547q0 33 35 33q33 0 33 -33q0 -35 -33 -35q-35 0 -35 35zM135 1075q0 33 35 33q33 0 33 -33q0 -35 -33 -35q-35 0 -35 35zM268 678q0 33 33 33t33 -33t-33 -33 t-33 33zM268 942q0 33 33 33t33 -33t-33 -33t-33 33zM399 811q0 33 35 33q33 0 33 -33q0 -35 -33 -35q-35 0 -35 35z" />
<glyph unicode="?" d="M2 1075q0 33 33 33t33 -33t-33 -33t-33 33zM2 1206q0 33 33 33t33 -33t-33 -32q-33 0 -33 32zM133 1339q0 33 33 33q35 0 35 -33t-35 -32q-33 0 -33 32zM266 1470q0 33 33 33t33 -33t-33 -32q-33 0 -33 32zM397 20q0 33 33 33t33 -33t-33 -32q-33 0 -33 32zM397 416 q0 33 33 33t33 -33t-33 -33t-33 33zM397 549q0 33 33 33t33 -33t-33 -33t-33 33zM397 1470q0 33 33 33q35 0 35 -33t-35 -32q-33 0 -33 32zM530 678q0 33 33 33t33 -33t-33 -33t-33 33zM530 1470q0 33 33 33t33 -33t-33 -32q-33 0 -33 32zM662 811q0 33 34 33q33 0 33 -33 t-33 -33q-35 0 -34 33zM662 1339q0 33 34 33q33 0 33 -33t-33 -32q-35 0 -34 32zM795 942q0 33 32 33q33 0 33 -33t-33 -33t-32 33zM795 1075q0 33 32 33q33 0 33 -33t-33 -33t-32 33zM795 1206q0 33 32 33q33 0 33 -33t-33 -32q-33 0 -32 32z" />
<glyph unicode="@" horiz-adv-x="1458" d="M127 682q0 33 33 33t33 -33t-33 -33t-33 33zM129 420q0 33 33 33t33 -33q0 -35 -33 -35t-33 35zM133 549q0 33 33 33t33 -33t-33 -33t-33 33zM266 815q0 33 33 33t33 -33t-33 -33t-33 33zM268 285q0 35 33 34q33 1 33 -34q0 -33 -33 -33t-33 33zM397 416q0 33 33 33 t33 -33t-33 -33t-33 33zM397 549q0 33 33 33t33 -33t-33 -33t-33 33zM397 680q0 33 33 33t33 -33t-33 -33t-33 33zM397 948q0 33 33 33t33 -33t-33 -33t-33 33zM399 154q0 33 33 32q35 1 35 -32t-35 -33q-33 0 -33 33zM528 285q0 33 33 32q33 1 33 -32t-33 -33t-33 33z M530 1079q0 33 33 33t33 -33t-33 -32q-33 0 -33 32zM532 20q0 35 33 35t33 -35q0 -33 -33 -32q-33 0 -33 32zM532 811q0 33 35 33q33 0 33 -33t-33 -33q-35 0 -35 33zM655 811q0 33 33 33t33 -33t-33 -33t-33 33zM662 285q0 33 32 32q33 1 33 -32t-33 -33t-32 33zM662 1079 q0 33 32 33q33 0 33 -33t-33 -32q-33 0 -32 32zM664 20q0 35 34 35q33 0 33 -35q0 -33 -33 -32q-35 0 -34 32zM788 811q0 33 33 33t33 -33t-33 -33t-33 33zM793 416q0 33 32 33q33 0 33 -33t-33 -33t-32 33zM795 1079q0 33 32 33q33 0 33 -33t-33 -32q-33 0 -32 32zM926 285 q0 33 32 32q33 1 33 -32t-33 -33t-32 33zM926 416q0 33 32 33q33 0 33 -33t-33 -33t-32 33zM926 549q0 33 32 33q33 0 33 -33t-33 -33t-32 33zM926 680q0 33 32 33q33 0 33 -33t-33 -33t-32 33zM926 948q0 33 32 33q33 0 33 -33t-33 -33t-32 33zM1059 815q0 33 33 33 q32 0 32 -33t-32 -33q-33 0 -33 33zM1061 285q0 35 33 34q32 1 32 -34q0 -33 -32 -33q-33 0 -33 33zM1190 549q0 33 33 33q32 0 32 -33t-32 -33q-33 0 -33 33zM1190 686q0 33 33 33q32 0 32 -33t-32 -33q-33 0 -33 33zM1192 416q0 33 33 33q32 0 32 -33t-32 -33 q-33 0 -33 33z" />
<glyph unicode="A" horiz-adv-x="925" d="M0 18q0 33 33 33t33 -33q0 -32 -31 -32h-2q-33 0 -33 32zM0 150q0 33 33 32q33 1 33 -32t-33 -33t-33 33zM0 283q0 33 33 32q33 1 33 -32t-33 -33t-33 33zM0 414q0 33 33 32q33 1 33 -32t-33 -33t-33 33zM0 547q0 33 33 33t33 -33t-33 -33t-33 33zM0 678q0 35 33 35 t33 -35q0 -33 -33 -33t-33 33zM0 811q0 33 33 33t33 -33t-33 -33t-33 33zM0 942q0 35 33 35t33 -35q0 -33 -33 -33t-33 33zM0 1075q0 33 33 33t33 -33t-33 -33t-33 33zM0 1206q0 35 33 35t33 -35q0 -33 -33 -32q-33 0 -33 32zM0 1339q0 33 33 33t33 -33t-33 -32 q-33 0 -33 32zM131 1475q0 32 31 32h2h2q33 0 33 -32q0 -33 -35 -33q-33 0 -33 33zM133 811q0 33 33 33t33 -33t-33 -33t-33 33zM264 811q0 33 33 33t33 -33t-33 -33t-33 33zM264 1475q0 32 31 32h2h2q31 0 31 -32q0 -33 -33 -33t-33 33zM395 1475q0 32 31 32h2h2 q33 0 33 -32q0 -33 -35 -33q-33 0 -33 33zM397 811q0 33 33 33t33 -33t-33 -33t-33 33zM528 811q0 33 33 33t33 -33t-33 -33t-33 33zM528 1475q0 32 31 32h2h2q31 0 31 -32q0 -33 -33 -33t-33 33zM662 18q0 33 32 33q33 0 33 -33q0 -32 -31 -32h-2q-33 0 -32 32zM694 182 q33 1 33 -32t-33 -33q-32 0 -32 31q0 35 32 34zM694 315q33 1 33 -32t-33 -33q-32 0 -32 31q0 35 32 34zM694 446q33 1 33 -32t-33 -33q-32 0 -32 31q0 35 32 34zM694 580q33 0 33 -33t-33 -33q-32 0 -32 31q0 35 32 35zM662 678q0 35 32 35q33 0 33 -35q0 -33 -33 -33 t-32 33zM694 844q33 0 33 -33t-33 -33q-32 0 -32 31q0 35 32 35zM662 942q0 35 32 35q33 0 33 -35q0 -33 -33 -33t-32 33zM694 1108q33 0 33 -33t-33 -33q-32 0 -32 31q0 35 32 35zM662 1206q0 35 32 35q33 0 33 -35q0 -32 -31 -32h-2q-33 0 -32 32zM662 1339q0 33 32 33 q33 0 33 -33q0 -32 -31 -32h-2q-33 0 -32 32z" />
<glyph unicode="B" horiz-adv-x="929" d="M0 20q0 33 33 33t33 -33q0 -32 -31 -32h-2q-33 0 -33 32zM0 152q0 33 33 32q33 1 33 -32t-33 -33t-33 33zM0 285q0 33 33 32q33 1 33 -32t-33 -33t-33 33zM0 416q0 33 33 33t33 -33t-33 -33t-33 33zM0 549q0 33 33 33t33 -33t-33 -33t-33 33zM2 680q0 33 33 33 q35 0 35 -33t-35 -33q-33 0 -33 33zM2 813q0 33 33 33q35 0 35 -33t-35 -33q-33 0 -33 33zM2 944q0 33 33 33q35 0 35 -33t-35 -33q-33 0 -33 33zM2 1077q0 33 33 33q35 0 35 -33t-35 -33q-33 0 -33 33zM2 1208q0 33 33 33q35 0 35 -33t-35 -32q-33 0 -33 32zM2 1341 q0 33 33 33q35 0 35 -33t-35 -32q-33 0 -33 32zM2 1473q0 32 31 32h2h2q33 0 33 -32q0 -33 -35 -33q-33 0 -33 33zM133 20q0 33 33 33t33 -33q0 -32 -31 -32h-2q-33 0 -33 32zM135 813q0 33 33 33t33 -33t-33 -33t-33 33zM135 1473q0 32 31 32h2h2q31 0 31 -32 q0 -33 -33 -33t-33 33zM264 20q0 33 33 33t33 -33q0 -32 -31 -32h-2q-33 0 -33 32zM266 813q0 33 33 33q35 0 35 -33t-35 -33q-33 0 -33 33zM266 1473q0 32 31 32h2h2q33 0 33 -32q0 -33 -35 -33q-33 0 -33 33zM397 20q0 33 33 33t33 -33q0 -32 -31 -32h-2q-33 0 -33 32z M399 813q0 33 33 33t33 -33t-33 -33t-33 33zM399 1473q0 32 31 32h2h2q31 0 31 -32q0 -33 -33 -33t-33 33zM528 20q0 33 33 33t33 -33q0 -32 -31 -32h-2q-33 0 -33 32zM530 813q0 33 33 33q35 0 35 -33t-35 -33q-33 0 -33 33zM530 1473q0 32 31 32h2h2q33 0 33 -32 q0 -33 -35 -33q-33 0 -33 33zM698 184q33 1 33 -32t-33 -33q-34 0 -34 31q0 35 34 34zM698 317q33 1 33 -32t-33 -33q-34 0 -34 31q0 35 34 34zM698 449q33 0 33 -33t-33 -33q-34 0 -34 31q0 35 34 35zM698 582q33 0 33 -33t-33 -33q-34 0 -34 31q0 35 34 35zM696 713 q33 0 33 -33t-33 -33q-32 0 -32 31q0 35 32 35zM696 977q33 0 33 -33t-33 -33q-32 0 -32 31q0 35 32 35zM696 1110q33 0 33 -33t-33 -33q-32 0 -32 31q0 35 32 35zM664 1208q0 33 32 33q33 0 33 -33q0 -32 -31 -32h-2q-33 0 -32 32zM664 1341q0 33 32 33q33 0 33 -33 q0 -32 -31 -32h-2q-33 0 -32 32z" />
<glyph unicode="C" horiz-adv-x="1056" d="M0 285q0 33 33 32q33 1 33 -32t-33 -33t-33 33zM0 416q0 33 33 33t33 -33t-33 -33t-33 33zM0 549q0 33 33 33t33 -33t-33 -33t-33 33zM0 680q0 33 33 33t33 -33t-33 -33t-33 33zM2 815q0 33 33 33t33 -33q0 -35 -33 -35t-33 35zM2 946q0 33 33 33t33 -33t-33 -33t-33 33z M2 1079q0 33 33 33t33 -33q0 -35 -33 -35t-33 35zM2 1210q0 33 33 33t33 -33t-33 -32q-33 0 -33 32zM133 152q0 33 33 32q33 1 33 -32t-33 -33t-33 33zM133 1343q0 33 33 33q35 0 35 -33t-35 -32q-33 0 -33 32zM264 20q0 33 33 33t33 -33q0 -32 -31 -32h-2q-33 0 -33 32z M266 1475q0 32 31 32h2h2q31 0 31 -32q0 -33 -33 -33t-33 33zM397 20q0 33 33 33t33 -33q0 -32 -31 -32h-2q-33 0 -33 32zM397 1475q0 32 31 32h2h2q33 0 33 -32q0 -33 -35 -33q-33 0 -33 33zM528 20q0 33 33 33t33 -33q0 -32 -31 -32h-2q-33 0 -33 32zM530 1475q0 32 31 32 h2h2q31 0 31 -32q0 -33 -33 -33t-33 33zM694 184q33 1 33 -32t-33 -33q-32 0 -32 31q0 35 32 34zM662 1343q0 33 32 33q35 0 35 -33t-35 -32q-33 0 -32 32zM825 317q33 1 33 -32t-33 -33q-32 0 -32 31q0 35 32 34zM825 449q33 0 33 -33t-33 -33q-32 0 -32 31q0 35 32 35z M795 1210q0 33 32 33q33 0 33 -33q0 -32 -31 -32h-2q-33 0 -32 32z" />
<glyph unicode="D" horiz-adv-x="1056" d="M0 20q0 33 33 33t33 -33q0 -32 -31 -32h-2q-33 0 -33 32zM0 152q0 33 33 32q33 1 33 -32t-33 -33t-33 33zM0 285q0 33 33 32q33 1 33 -32t-33 -33t-33 33zM0 416q0 33 33 33t33 -33t-33 -33t-33 33zM0 549q0 33 33 33t33 -33t-33 -33t-33 33zM0 680q0 33 33 33t33 -33 t-33 -33t-33 33zM0 813q0 33 33 33t33 -33t-33 -33t-33 33zM0 944q0 33 33 33t33 -33t-33 -33t-33 33zM0 1077q0 33 33 33t33 -33t-33 -33t-33 33zM0 1208q0 33 33 33t33 -33t-33 -32q-33 0 -33 32zM0 1341q0 33 33 33t33 -33t-33 -32q-33 0 -33 32zM0 1473q0 34 31 34h2h2 q31 0 31 -34q0 -33 -33 -33t-33 33zM133 20q0 33 33 33t33 -33q0 -32 -31 -32h-2q-33 0 -33 32zM133 1473q0 34 31 34h2h2q31 0 31 -34q0 -33 -33 -33t-33 33zM264 20q0 33 33 33t33 -33q0 -32 -31 -32h-2q-33 0 -33 32zM264 1473q0 34 31 34h2h2q31 0 31 -34q0 -33 -33 -33 t-33 33zM397 20q0 33 33 33t33 -33q0 -32 -31 -32h-2q-33 0 -33 32zM397 1473q0 34 31 34h2h2q31 0 31 -34q0 -33 -33 -33t-33 33zM528 20q0 33 33 33t33 -33q0 -32 -31 -32h-2q-33 0 -33 32zM528 1473q0 34 31 34h2h2q31 0 31 -34q0 -33 -33 -33t-33 33zM694 184 q33 1 33 -32t-33 -33q-32 0 -32 31q0 35 32 34zM662 1341q0 33 32 33q33 0 33 -33t-33 -32q-33 0 -32 32zM825 317q33 1 33 -32t-33 -33q-32 0 -32 31q0 35 32 34zM825 449q33 0 33 -33t-33 -33q-32 0 -32 31q0 35 32 35zM825 582q33 0 33 -33t-33 -33q-32 0 -32 31 q0 35 32 35zM825 713q33 0 33 -33t-33 -33q-32 0 -32 31q0 35 32 35zM825 846q33 0 33 -33t-33 -33q-32 0 -32 31q0 35 32 35zM825 977q33 0 33 -33t-33 -33q-32 0 -32 31q0 35 32 35zM825 1110q33 0 33 -33t-33 -33q-32 0 -32 31q0 35 32 35zM793 1208q0 33 32 33 q33 0 33 -33q0 -32 -31 -32h-2q-33 0 -32 32z" />
<glyph unicode="E" horiz-adv-x="927" d="M0 20q0 33 33 33t33 -33q0 -32 -31 -32h-2q-33 0 -33 32zM0 152q0 33 33 32q33 1 33 -32t-33 -33t-33 33zM0 285q0 33 33 32q33 1 33 -32t-33 -33t-33 33zM0 416q0 33 33 33t33 -33t-33 -33t-33 33zM0 549q0 33 33 33t33 -33t-33 -33t-33 33zM2 678q0 33 33 33 q35 0 35 -33q0 -35 -35 -35q-33 0 -33 35zM2 809q0 33 33 33q35 0 35 -33t-35 -33q-33 0 -33 33zM2 942q0 33 33 33q35 0 35 -33t-35 -33q-33 0 -33 33zM2 1073q0 33 33 33q35 0 35 -33t-35 -33q-33 0 -33 33zM2 1206q0 33 33 33q35 0 35 -33t-35 -32q-33 0 -33 32zM2 1337 q0 33 33 33q35 0 35 -33t-35 -32q-33 0 -33 32zM2 1470q0 33 33 33q35 0 35 -33t-35 -32q-33 0 -33 32zM133 20q0 33 33 33t33 -33q0 -32 -31 -32h-2q-33 0 -33 32zM135 809q0 33 33 33t33 -33t-33 -33t-33 33zM135 1470q0 33 33 33t33 -33t-33 -32q-33 0 -33 32zM264 20 q0 33 33 33t33 -33q0 -32 -31 -32h-2q-33 0 -33 32zM266 809q0 33 33 33q35 0 35 -33t-35 -33q-33 0 -33 33zM266 1470q0 33 33 33q35 0 35 -33t-35 -32q-33 0 -33 32zM397 20q0 33 33 33t33 -33q0 -32 -31 -32h-2q-33 0 -33 32zM399 809q0 33 33 33t33 -33t-33 -33t-33 33z M399 1470q0 33 33 33t33 -33t-33 -32q-33 0 -33 32zM528 20q0 33 33 33t33 -33q0 -32 -31 -32h-2q-33 0 -33 32zM530 809q0 33 33 33q35 0 35 -33t-35 -33q-33 0 -33 33zM530 1470q0 33 33 33q35 0 35 -33t-35 -32q-33 0 -33 32zM662 20q0 33 32 33q33 0 33 -33 q0 -32 -31 -32h-2q-33 0 -32 32zM696 842q33 0 33 -33t-33 -33q-32 0 -32 31q0 35 32 35zM664 1470q0 33 32 33q33 0 33 -33q0 -32 -31 -32h-2q-33 0 -32 32z" />
<glyph unicode="F" horiz-adv-x="931" d="M0 20q0 33 33 33t33 -33q0 -32 -31 -32h-2q-33 0 -33 32zM0 152q0 33 33 32q33 1 33 -32t-33 -33t-33 33zM0 285q0 33 33 32q33 1 33 -32t-33 -33t-33 33zM0 416q0 33 33 33t33 -33t-33 -33t-33 33zM0 549q0 33 33 33t33 -33t-33 -33t-33 33zM4 678q0 33 33 33 q35 0 35 -33q0 -35 -35 -35q-33 0 -33 35zM4 809q0 33 33 33q35 0 35 -33t-35 -33q-33 0 -33 33zM4 942q0 33 33 33q35 0 35 -33t-35 -33q-33 0 -33 33zM4 1073q0 33 33 33q35 0 35 -33t-35 -33q-33 0 -33 33zM4 1206q0 33 33 33q35 0 35 -33t-35 -32q-33 0 -33 32zM4 1337 q0 33 33 33q35 0 35 -33t-35 -32q-33 0 -33 32zM4 1470q0 33 33 33q35 0 35 -33t-35 -32q-33 0 -33 32zM137 809q0 33 33 33t33 -33t-33 -33t-33 33zM137 1470q0 33 33 33t33 -33t-33 -32q-33 0 -33 32zM268 809q0 33 33 33q35 0 35 -33t-35 -33q-33 0 -33 33zM268 1470 q0 33 33 33q35 0 35 -33t-35 -32q-33 0 -33 32zM401 809q0 33 33 33t33 -33t-33 -33t-33 33zM401 1470q0 33 33 33t33 -33t-33 -32q-33 0 -33 32zM532 809q0 33 33 33q35 0 35 -33t-35 -33q-33 0 -33 33zM532 1470q0 33 33 33q35 0 35 -33t-35 -32q-33 0 -33 32zM698 842 q33 0 33 -33t-33 -33q-32 0 -32 31q0 35 32 35zM666 1470q0 33 32 33q33 0 33 -33q0 -32 -31 -32h-2q-33 0 -32 32z" />
<glyph unicode="G" horiz-adv-x="1056" d="M0 285q0 33 33 32q33 1 33 -32t-33 -33t-33 33zM0 416q0 33 33 33t33 -33t-33 -33t-33 33zM0 549q0 33 33 33t33 -33t-33 -33t-33 33zM0 680q0 33 33 33t33 -33t-33 -33t-33 33zM0 813q0 33 33 33t33 -33t-33 -33t-33 33zM0 944q0 33 33 33t33 -33t-33 -33t-33 33z M0 1073q0 33 33 33t33 -33q0 -35 -33 -35t-33 35zM0 1204q0 33 33 33t33 -33t-33 -33t-33 33zM131 1337q0 33 33 33q35 0 35 -33t-35 -32q-33 0 -33 32zM133 152q0 33 33 32q33 1 33 -32t-33 -33t-33 33zM264 20q0 33 33 33t33 -33q0 -32 -31 -32h-2q-33 0 -33 32zM264 1468 q0 33 33 33t33 -33t-33 -32q-33 0 -33 32zM395 1468q0 33 33 33q35 0 35 -33t-35 -32q-33 0 -33 32zM397 20q0 33 33 33t33 -33q0 -32 -31 -32h-2q-33 0 -33 32zM397 680q0 33 33 33t33 -33t-33 -33t-33 33zM528 20q0 33 33 33t33 -33q0 -32 -31 -32h-2q-33 0 -33 32z M528 680q0 33 33 33t33 -33t-33 -33t-33 33zM528 1468q0 33 33 33t33 -33t-33 -32q-33 0 -33 32zM659 1337q0 33 33 33q35 0 35 -33t-35 -32q-33 0 -33 32zM694 184q33 1 33 -32t-33 -33q-32 0 -32 31q0 35 32 34zM694 713q33 0 33 -33t-33 -33q-32 0 -32 31q0 35 32 35z M825 317q33 1 33 -32t-33 -33q-32 0 -32 31q0 35 32 34zM825 449q33 0 33 -33t-33 -33q-32 0 -32 31q0 35 32 35zM825 582q33 0 33 -33t-33 -33q-32 0 -32 31q0 35 32 35zM825 713q33 0 33 -33t-33 -33q-32 0 -32 31q0 35 32 35zM825 1237q33 0 33 -33t-33 -33q-32 0 -32 31 q0 35 32 35z" />
<glyph unicode="H" horiz-adv-x="931" d="M0 20q0 33 33 33t33 -33q0 -32 -31 -32h-2q-33 0 -33 32zM0 152q0 33 33 32q33 1 33 -32t-33 -33t-33 33zM0 285q0 33 33 32q33 1 33 -32t-33 -33t-33 33zM0 416q0 33 33 33t33 -33t-33 -33t-33 33zM0 549q0 33 33 33t33 -33t-33 -33t-33 33zM2 676q0 33 33 33 q35 0 35 -33t-35 -33q-33 0 -33 33zM2 809q0 33 33 33q35 0 35 -33t-35 -33q-33 0 -33 33zM2 940q0 33 33 33q35 0 35 -33t-35 -33q-33 0 -33 33zM2 1073q0 33 33 33q35 0 35 -33t-35 -33q-33 0 -33 33zM2 1204q0 33 33 33q35 0 35 -33t-35 -33q-33 0 -33 33zM2 1337 q0 33 33 33q35 0 35 -33t-35 -32q-33 0 -33 32zM2 1468q0 33 33 33q35 0 35 -33t-35 -32q-33 0 -33 32zM135 809q0 33 33 33t33 -33t-33 -33t-33 33zM266 809q0 33 33 33q35 0 35 -33t-35 -33q-33 0 -33 33zM399 809q0 33 33 33t33 -33t-33 -33t-33 33zM530 809q0 33 33 33 q35 0 35 -33t-35 -33q-33 0 -33 33zM662 20q0 33 32 33q33 0 33 -33q0 -32 -31 -32h-2q-33 0 -32 32zM694 184q33 1 33 -32t-33 -33q-32 0 -32 31q0 35 32 34zM694 317q33 1 33 -32t-33 -33q-32 0 -32 31q0 35 32 34zM694 449q33 0 33 -33t-33 -33q-32 0 -32 31q0 35 32 35z M694 582q33 0 33 -33t-33 -33q-32 0 -32 31q0 35 32 35zM696 709q33 0 33 -33t-33 -33q-32 0 -32 31q0 35 32 35zM696 842q33 0 33 -33t-33 -33q-32 0 -32 31q0 35 32 35zM696 973q33 0 33 -33t-33 -33q-32 0 -32 31q0 35 32 35zM696 1106q33 0 33 -33t-33 -33q-32 0 -32 31 q0 35 32 35zM696 1237q33 0 33 -33t-33 -33q-32 0 -32 31q0 35 32 35zM664 1337q0 33 32 33q33 0 33 -33q0 -32 -31 -32h-2q-33 0 -32 32zM664 1468q0 33 32 33q33 0 33 -33q0 -32 -31 -32h-2q-33 0 -32 32z" />
<glyph unicode="I" horiz-adv-x="264" d="M0 20q0 33 33 33t33 -33q0 -32 -31 -32h-2q-33 0 -33 32zM0 152q0 33 33 32q33 1 33 -32t-33 -33t-33 33zM0 285q0 33 33 32q33 1 33 -32t-33 -33t-33 33zM0 416q0 33 33 33t33 -33t-33 -33t-33 33zM0 549q0 33 33 33t33 -33t-33 -33t-33 33zM0 680q0 33 33 33t33 -33 t-33 -33t-33 33zM0 813q0 33 33 33t33 -33t-33 -33t-33 33zM0 944q0 33 33 33t33 -33t-33 -33t-33 33zM0 1077q0 33 33 33t33 -33t-33 -33t-33 33zM0 1208q0 33 33 33t33 -33q0 -32 -31 -32h-2q-33 0 -33 32zM0 1341q0 33 33 33t33 -33q0 -32 -31 -32h-2q-33 0 -33 32z M0 1473q0 34 31 34h2h2q31 0 31 -34q0 -33 -33 -33t-33 33z" />
<glyph unicode="J" horiz-adv-x="1058" d="M2 283q0 33 33 32q33 1 33 -32t-33 -33t-33 33zM2 414q0 33 33 32q33 1 33 -32t-33 -33t-33 33zM133 150q0 33 33 32q35 1 35 -32t-35 -33q-33 0 -33 33zM266 18q0 33 33 33t33 -33q0 -32 -31 -32h-2q-33 0 -33 32zM397 18q0 33 33 33q35 0 35 -33q0 -32 -33 -32h-2 q-33 0 -33 32zM530 18q0 33 33 33t33 -33q0 -32 -31 -32h-2q-33 0 -33 32zM696 182q33 1 33 -32t-33 -33q-34 0 -34 31q0 35 34 34zM827 315q33 1 33 -32t-33 -33q-32 0 -32 31q0 35 32 34zM827 446q33 1 33 -32t-33 -33q-32 0 -32 31q0 35 32 34zM827 580q33 0 33 -33 t-33 -33q-32 0 -32 31q0 35 32 35zM795 678q0 35 32 35q33 0 33 -35q0 -33 -33 -33t-32 33zM827 844q33 0 33 -33t-33 -33q-32 0 -32 31q0 35 32 35zM795 942q0 35 32 35q33 0 33 -35q0 -33 -33 -33t-32 33zM827 1108q33 0 33 -33t-33 -33q-32 0 -32 31q0 35 32 35z M795 1206q0 35 32 35q33 0 33 -35q0 -32 -31 -32h-2q-33 0 -32 32zM795 1339q0 33 32 33q33 0 33 -33q0 -32 -31 -32h-2q-33 0 -32 32zM825 1505h2h2q31 0 31 -32q0 -35 -33 -35q-32 0 -32 33q0 34 30 34z" />
<glyph unicode="K" horiz-adv-x="1058" d="M0 20q0 33 33 33t33 -33q0 -32 -31 -32h-2q-33 0 -33 32zM0 152q0 33 33 32q33 1 33 -32t-33 -33t-33 33zM0 285q0 33 33 32q33 1 33 -32t-33 -33t-33 33zM0 416q0 33 33 33t33 -33t-33 -33t-33 33zM0 549q0 33 33 33t33 -33t-33 -33t-33 33zM0 680q0 33 33 33t33 -33 t-33 -33t-33 33zM2 813q0 33 33 33t33 -33t-33 -33t-33 33zM2 946q0 33 33 33t33 -33q0 -35 -33 -35t-33 35zM2 1077q0 33 33 33t33 -33t-33 -33t-33 33zM2 1210q0 33 33 33t33 -33q0 -35 -33 -34q-33 0 -33 34zM2 1341q0 33 33 33t33 -33t-33 -32q-33 0 -33 32zM2 1475 q0 32 31 32h2h2q31 0 31 -32q0 -35 -33 -35t-33 35zM133 680q0 33 33 33t33 -33t-33 -33t-33 33zM135 813q0 33 33 33t33 -33t-33 -33t-33 33zM264 549q0 33 33 33t33 -33t-33 -33t-33 33zM264 942q0 33 33 33q35 0 35 -33t-35 -33q-33 0 -33 33zM397 416q0 33 33 33t33 -33 t-33 -33t-33 33zM397 1075q0 33 33 33t33 -33t-33 -33t-33 33zM528 285q0 33 33 32q33 1 33 -32t-33 -33t-33 33zM528 1206q0 35 35 35q33 0 33 -35q0 -33 -33 -32q-35 0 -35 32zM694 184q33 1 33 -32t-33 -33q-32 0 -32 31q0 35 32 34zM662 1339q0 33 32 33q33 0 33 -33 t-33 -32q-33 0 -32 32zM793 20q0 33 32 33q33 0 33 -33q0 -32 -31 -32h-2q-33 0 -32 32zM793 1470q0 35 34 35q33 0 33 -35q0 -32 -31 -32h-2q-35 0 -34 32z" />
<glyph unicode="L" horiz-adv-x="913" d="M0 20q0 33 33 33t33 -33q0 -32 -31 -32h-2q-33 0 -33 32zM0 152q0 33 33 32q33 1 33 -32t-33 -33t-33 33zM0 285q0 33 33 32q33 1 33 -32t-33 -33t-33 33zM0 416q0 33 33 33t33 -33t-33 -33t-33 33zM0 549q0 33 33 33t33 -33t-33 -33t-33 33zM0 680q0 33 33 33t33 -33 t-33 -33t-33 33zM0 813q0 33 33 33t33 -33t-33 -33t-33 33zM0 944q0 33 33 33t33 -33t-33 -33t-33 33zM0 1077q0 33 33 33t33 -33t-33 -33t-33 33zM0 1208q0 33 33 33t33 -33t-33 -32q-33 0 -33 32zM0 1341q0 33 33 33t33 -33t-33 -32q-33 0 -33 32zM0 1473q0 34 31 34h2h2 q31 0 31 -34q0 -33 -33 -33t-33 33zM133 20q0 33 33 33t33 -33q0 -32 -31 -32h-2q-33 0 -33 32zM264 20q0 33 33 33t33 -33q0 -32 -31 -32h-2q-33 0 -33 32zM397 20q0 33 33 33t33 -33q0 -32 -31 -32h-2q-33 0 -33 32zM528 20q0 33 33 33t33 -33q0 -32 -31 -32h-2 q-33 0 -33 32zM662 20q0 33 32 33q33 0 33 -33q0 -32 -31 -32h-2q-33 0 -32 32z" />
<glyph unicode="M" horiz-adv-x="989" d="M0 20q0 33 33 33t33 -33q0 -32 -31 -32h-2q-33 0 -33 32zM0 152q0 33 33 32q33 1 33 -32t-33 -33t-33 33zM0 285q0 33 33 32q33 1 33 -32t-33 -33t-33 33zM0 416q0 33 33 33t33 -33t-33 -33t-33 33zM0 549q0 33 33 33t33 -33t-33 -33t-33 33zM0 680q0 33 33 33t33 -33 t-33 -33t-33 33zM0 813q0 33 33 33t33 -33t-33 -33t-33 33zM0 944q0 33 33 33t33 -33t-33 -33t-33 33zM0 1077q0 33 33 33t33 -33t-33 -33t-33 33zM0 1208q0 33 33 33t33 -33t-33 -32q-33 0 -33 32zM0 1341q0 33 33 33t33 -33t-33 -32q-33 0 -33 32zM0 1473q0 34 31 34h2h2 q31 0 31 -34q0 -33 -33 -33t-33 33zM133 1341q0 33 33 33t33 -33t-33 -32q-33 0 -33 32zM141 1206q0 33 33 33q35 0 35 -33t-35 -32q-33 0 -33 32zM264 940q0 35 33 35t33 -35q0 -33 -33 -33t-33 33zM264 1077q0 33 33 33t33 -33t-33 -33t-33 33zM397 813q0 33 33 33t33 -33 t-33 -33t-33 33zM401 688q0 33 33 33t33 -33q0 -35 -33 -35t-33 35zM528 940q0 35 33 35t33 -35q0 -33 -33 -33t-33 33zM528 1077q0 33 33 33t33 -33t-33 -33t-33 33zM662 1341q0 33 32 33q33 0 33 -33t-33 -32q-33 0 -32 32zM670 1206q0 33 32 33q35 0 35 -33t-35 -32 q-33 0 -32 32zM793 20q0 33 32 33q33 0 33 -33q0 -32 -31 -32h-2q-33 0 -32 32zM825 184q33 1 33 -32t-33 -33q-32 0 -32 31q0 35 32 34zM825 317q33 1 33 -32t-33 -33q-32 0 -32 31q0 35 32 34zM825 449q33 0 33 -33t-33 -33q-32 0 -32 31q0 35 32 35zM825 582q33 0 33 -33 t-33 -33q-32 0 -32 31q0 35 32 35zM825 713q33 0 33 -33t-33 -33q-32 0 -32 31q0 35 32 35zM825 846q33 0 33 -33t-33 -33q-32 0 -32 31q0 35 32 35zM825 977q33 0 33 -33t-33 -33q-32 0 -32 31q0 35 32 35zM825 1110q33 0 33 -33t-33 -33q-32 0 -32 31q0 35 32 35z M793 1208q0 33 32 33q33 0 33 -33q0 -32 -31 -32h-2q-33 0 -32 32zM793 1341q0 33 32 33q33 0 33 -33q0 -32 -31 -32h-2q-33 0 -32 32zM793 1473q0 34 30 34h2h2q31 0 31 -34q0 -33 -33 -33t-32 33z" />
<glyph unicode="N" horiz-adv-x="1058" d="M0 20q0 33 33 33t33 -33q0 -32 -31 -32h-2q-33 0 -33 32zM0 152q0 33 33 32q33 1 33 -32t-33 -33t-33 33zM0 285q0 33 33 32q33 1 33 -32t-33 -33t-33 33zM0 416q0 33 33 33t33 -33t-33 -33t-33 33zM0 549q0 33 33 33t33 -33t-33 -33t-33 33zM0 680q0 33 33 33t33 -33 t-33 -33t-33 33zM0 813q0 33 33 33t33 -33t-33 -33t-33 33zM0 944q0 33 33 33t33 -33t-33 -33t-33 33zM0 1077q0 33 33 33t33 -33t-33 -33t-33 33zM0 1208q0 33 33 33t33 -33t-33 -32q-33 0 -33 32zM0 1341q0 33 33 33t33 -33t-33 -32q-33 0 -33 32zM0 1473q0 34 31 34h2h2 q31 0 31 -34q0 -33 -33 -33t-33 33zM133 1208q0 33 33 33t33 -33t-33 -32q-33 0 -33 32zM141 1337q0 35 33 35q35 0 35 -35q0 -33 -35 -32q-33 0 -33 32zM264 944q0 33 33 33t33 -33t-33 -33t-33 33zM264 1077q0 33 33 33t33 -33t-33 -33t-33 33zM397 680q0 33 33 33t33 -33 t-33 -33t-33 33zM397 813q0 33 33 33t33 -33t-33 -33t-33 33zM528 416q0 33 33 33t33 -33t-33 -33t-33 33zM528 549q0 33 33 33t33 -33t-33 -33t-33 33zM694 184q33 1 33 -32t-33 -33q-32 0 -32 31q0 35 32 34zM694 317q33 1 33 -32t-33 -33q-32 0 -32 31q0 35 32 34z M793 20q0 33 32 33q33 0 33 -33q0 -32 -31 -32h-2q-33 0 -32 32zM825 184q33 1 33 -32t-33 -33q-32 0 -32 31q0 35 32 34zM825 317q33 1 33 -32t-33 -33q-32 0 -32 31q0 35 32 34zM825 449q33 0 33 -33t-33 -33q-32 0 -32 31q0 35 32 35zM825 582q33 0 33 -33t-33 -33 q-32 0 -32 31q0 35 32 35zM825 713q33 0 33 -33t-33 -33q-32 0 -32 31q0 35 32 35zM825 846q33 0 33 -33t-33 -33q-32 0 -32 31q0 35 32 35zM825 977q33 0 33 -33t-33 -33q-32 0 -32 31q0 35 32 35zM825 1110q33 0 33 -33t-33 -33q-32 0 -32 31q0 35 32 35zM793 1208 q0 33 32 33q33 0 33 -33q0 -32 -31 -32h-2q-33 0 -32 32zM793 1341q0 33 32 33q33 0 33 -33q0 -32 -31 -32h-2q-33 0 -32 32zM793 1473q0 34 30 34h2h2q31 0 31 -34q0 -33 -33 -33t-32 33z" />
<glyph unicode="O" horiz-adv-x="1056" d="M0 285q0 33 33 32q33 1 33 -32t-33 -33t-33 33zM0 416q0 33 33 33t33 -33t-33 -33t-33 33zM0 549q0 33 33 33t33 -33t-33 -33t-33 33zM0 680q0 33 33 33t33 -33t-33 -33t-33 33zM0 813q0 33 33 33t33 -33t-33 -33t-33 33zM8 942q0 33 33 33t33 -33t-33 -33t-33 33z M8 1075q0 33 33 33t33 -33t-33 -33t-33 33zM8 1206q0 33 33 33t33 -33t-33 -32q-33 0 -33 32zM133 152q0 33 33 32q33 1 33 -32t-33 -33t-33 33zM139 1339q0 33 33 33q35 0 35 -33t-35 -32q-33 0 -33 32zM264 20q0 33 33 33t33 -33q0 -32 -31 -32h-2q-33 0 -33 32zM272 1470 q0 33 33 33t33 -33t-33 -32q-33 0 -33 32zM397 20q0 33 33 33t33 -33q0 -32 -31 -32h-2q-33 0 -33 32zM403 1470q0 33 33 33q35 0 35 -33t-35 -32q-33 0 -33 32zM528 20q0 33 33 33t33 -33q0 -32 -31 -32h-2q-33 0 -33 32zM537 1470q0 33 32 33q33 0 33 -33t-33 -32 q-33 0 -32 32zM694 184q33 1 33 -32t-33 -33q-32 0 -32 31q0 35 32 34zM668 1339q0 33 32 33q35 0 35 -33t-35 -32q-33 0 -32 32zM825 317q33 1 33 -32t-33 -33q-32 0 -32 31q0 35 32 34zM825 449q33 0 33 -33t-33 -33q-32 0 -32 31q0 35 32 35zM825 582q33 0 33 -33 t-33 -33q-32 0 -32 31q0 35 32 35zM825 713q33 0 33 -33t-33 -33q-32 0 -32 31q0 35 32 35zM825 846q33 0 33 -33t-33 -33q-32 0 -32 31q0 35 32 35zM801 942q0 33 33 33q32 0 32 -33t-32 -33q-33 0 -33 33zM801 1075q0 33 33 33q32 0 32 -33t-32 -33q-33 0 -33 33z M801 1206q0 33 33 33q32 0 32 -33q0 -32 -30 -32h-2q-33 0 -33 32z" />
<glyph unicode="P" horiz-adv-x="921" d="M0 20q0 33 33 33t33 -33q0 -32 -31 -32h-2q-33 0 -33 32zM0 152q0 33 33 32q33 1 33 -32t-33 -33t-33 33zM0 285q0 33 33 32q33 1 33 -32t-33 -33t-33 33zM0 416q0 33 33 33t33 -33t-33 -33t-33 33zM0 549q0 33 33 33t33 -33t-33 -33t-33 33zM0 680q0 33 33 33t33 -33 t-33 -33t-33 33zM0 813q0 33 33 33t33 -33t-33 -33t-33 33zM0 944q0 33 33 33t33 -33t-33 -33t-33 33zM0 1077q0 33 33 33t33 -33t-33 -33t-33 33zM0 1208q0 33 33 33t33 -33t-33 -32q-33 0 -33 32zM0 1341q0 33 33 33t33 -33t-33 -32q-33 0 -33 32zM0 1473q0 34 31 34h2h2 q31 0 31 -34q0 -33 -33 -33t-33 33zM133 813q0 33 33 33t33 -33t-33 -33t-33 33zM133 1473q0 34 31 34h2h2q31 0 31 -34q0 -33 -33 -33t-33 33zM264 813q0 33 33 33t33 -33t-33 -33t-33 33zM264 1473q0 34 31 34h2h2q31 0 31 -34q0 -33 -33 -33t-33 33zM397 813q0 33 33 33 t33 -33t-33 -33t-33 33zM397 1473q0 34 31 34h2h2q31 0 31 -34q0 -33 -33 -33t-33 33zM528 813q0 33 33 33t33 -33t-33 -33t-33 33zM528 1473q0 34 31 34h2h2q31 0 31 -34q0 -33 -33 -33t-33 33zM659 1073q0 33 35 33q33 0 33 -33t-33 -33q-35 0 -35 33zM659 1204 q0 35 35 35q33 0 33 -35q0 -33 -33 -33q-35 0 -35 33zM694 977q33 0 33 -33t-33 -33q-32 0 -32 31q0 35 32 35zM662 1341q0 33 32 33q33 0 33 -33q0 -32 -31 -32h-2q-33 0 -32 32z" />
<glyph unicode="Q" horiz-adv-x="1058" d="M0 285q0 33 33 32q33 1 33 -32t-33 -33t-33 33zM0 416q0 33 33 33t33 -33t-33 -33t-33 33zM0 549q0 33 33 33t33 -33t-33 -33t-33 33zM0 680q0 33 33 33t33 -33t-33 -33t-33 33zM0 813q0 33 33 33t33 -33t-33 -33t-33 33zM0 944q0 33 33 33t33 -33t-33 -33t-33 33z M6 1077q0 33 33 33t33 -33t-33 -33t-33 33zM6 1210q0 33 33 33t33 -33t-33 -32q-33 0 -33 32zM133 152q0 33 33 32q33 1 33 -32t-33 -33t-33 33zM137 1341q0 33 33 33q35 0 35 -33t-35 -32q-33 0 -33 32zM264 20q0 33 33 33t33 -33q0 -32 -31 -32h-2q-33 0 -33 32zM270 1475 q0 32 31 32h2h2q31 0 31 -32q0 -33 -33 -33t-33 33zM397 20q0 33 33 33t33 -33q0 -32 -31 -32h-2q-33 0 -33 32zM401 1475q0 32 31 32h2h2q33 0 33 -32q0 -33 -35 -33q-33 0 -33 33zM528 20q0 33 33 33t33 -33q0 -32 -31 -32h-2q-33 0 -33 32zM528 285q0 33 33 32 q33 1 33 -32t-33 -33t-33 33zM565 1507h2h2q31 0 31 -32q0 -33 -33 -33q-32 0 -32 31q0 34 30 34zM694 184q33 1 33 -32t-33 -33q-32 0 -32 31q0 35 32 34zM666 1341q0 33 32 33q35 0 35 -33t-35 -32q-33 0 -32 32zM793 20q0 33 32 33q33 0 33 -33q0 -32 -31 -32h-2 q-33 0 -32 32zM825 317q33 1 33 -32t-33 -33q-32 0 -32 31q0 35 32 34zM825 449q33 0 33 -33t-33 -33q-32 0 -32 31q0 35 32 35zM825 582q33 0 33 -33t-33 -33q-32 0 -32 31q0 35 32 35zM825 713q33 0 33 -33t-33 -33q-32 0 -32 31q0 35 32 35zM825 846q33 0 33 -33t-33 -33 q-32 0 -32 31q0 35 32 35zM825 977q33 0 33 -33t-33 -33q-32 0 -32 31q0 35 32 35zM831 1110q33 0 33 -33t-33 -33q-32 0 -32 31q0 35 32 35zM799 1210q0 33 32 33q33 0 33 -33q0 -32 -31 -32h-2q-33 0 -32 32z" />
<glyph unicode="R" d="M0 20q0 33 33 33t33 -33q0 -32 -31 -32h-2q-33 0 -33 32zM0 152q0 33 33 32q33 1 33 -32t-33 -33t-33 33zM0 285q0 33 33 32q33 1 33 -32t-33 -33t-33 33zM0 416q0 33 33 33t33 -33t-33 -33t-33 33zM0 549q0 33 33 33t33 -33t-33 -33t-33 33zM0 680q0 33 33 33t33 -33 t-33 -33t-33 33zM4 809q0 33 33 33t33 -33q0 -35 -33 -35t-33 35zM4 940q0 33 33 33t33 -33t-33 -33t-33 33zM4 1073q0 33 33 33t33 -33q0 -35 -33 -35t-33 35zM4 1204q0 33 33 33t33 -33t-33 -33t-33 33zM4 1337q0 33 33 33t33 -33q0 -35 -33 -34q-33 0 -33 34zM4 1468 q0 33 33 33t33 -33t-33 -32q-33 0 -33 32zM133 680q0 33 33 33t33 -33t-33 -33t-33 33zM135 809q0 33 33 33q35 0 35 -33q0 -35 -35 -35q-33 0 -33 35zM135 1468q0 33 33 33q35 0 35 -33t-35 -32q-33 0 -33 32zM264 549q0 33 33 33t33 -33t-33 -33t-33 33zM268 809 q0 33 33 33t33 -33q0 -35 -33 -35t-33 35zM268 1468q0 33 33 33t33 -33t-33 -32q-33 0 -33 32zM397 416q0 33 33 33t33 -33t-33 -33t-33 33zM399 809q0 33 33 33q35 0 35 -33q0 -35 -35 -35q-33 0 -33 35zM399 1468q0 33 33 33q35 0 35 -33t-35 -32q-33 0 -33 32zM528 285 q0 33 33 32q33 1 33 -32t-33 -33t-33 33zM532 809q0 33 33 33t33 -33q0 -35 -33 -35t-33 35zM532 1468q0 33 33 33t33 -33t-33 -32q-33 0 -33 32zM694 184q33 1 33 -32t-33 -33q-32 0 -32 31q0 35 32 34zM698 973q33 0 33 -33t-33 -33q-34 0 -34 31q0 35 34 35zM696 1102 q35 0 35 -33t-35 -33q-32 0 -32 31q0 35 32 35zM696 1233q35 0 35 -33t-35 -33q-32 0 -32 31q0 35 32 35zM698 1370q33 0 33 -33q0 -35 -33 -34q-34 0 -34 32q0 35 34 35zM793 20q0 33 32 33q33 0 33 -33q0 -32 -31 -32h-2q-33 0 -32 32z" />
<glyph unicode="S" horiz-adv-x="1056" d="M0 285q0 33 33 32q33 1 33 -32t-33 -33t-33 33zM0 1075q0 33 33 33t33 -33t-33 -33t-33 33zM0 1208q0 33 33 33t33 -33t-33 -32q-33 0 -33 32zM131 944q0 33 33 33q35 0 35 -33t-35 -33q-33 0 -33 33zM131 1339q0 33 33 33q35 0 35 -33t-35 -32q-33 0 -33 32zM133 152 q0 33 33 32q33 1 33 -32t-33 -33t-33 33zM264 20q0 33 33 33t33 -33q0 -32 -31 -32h-2q-33 0 -33 32zM264 811q0 33 33 33t33 -33t-33 -33t-33 33zM264 1473q0 32 31 32h2h2q31 0 31 -32q0 -33 -33 -33t-33 33zM395 811q0 33 33 33q35 0 35 -33t-35 -33q-33 0 -33 33z M395 1473q0 32 31 32h2h2q33 0 33 -32q0 -33 -35 -33q-33 0 -33 33zM397 20q0 33 33 33t33 -33q0 -32 -31 -32h-2q-33 0 -33 32zM528 20q0 33 33 33t33 -33q0 -32 -31 -32h-2q-33 0 -33 32zM528 811q0 33 33 33t33 -33t-33 -33t-33 33zM528 1473q0 32 31 32h2h2q31 0 31 -32 q0 -33 -33 -33t-33 33zM659 680q0 33 35 33q33 0 33 -33q0 -35 -33 -35q-35 0 -35 35zM659 1339q0 33 35 33q33 0 33 -33t-33 -32q-35 0 -35 32zM694 184q33 1 33 -32t-33 -33q-32 0 -32 31q0 35 32 34zM825 317q33 1 33 -32t-33 -33q-32 0 -32 31q0 35 32 34zM825 449 q33 0 33 -33q0 -35 -33 -35q-32 0 -32 33q0 35 32 35zM825 580q33 0 33 -33t-33 -33q-32 0 -32 31q0 35 32 35zM793 1208q0 33 32 33q33 0 33 -33q0 -32 -31 -32h-2q-33 0 -32 32z" />
<glyph unicode="T" horiz-adv-x="1058" d="M100 1470q0 33 33 33t33 -33t-33 -32q-33 0 -33 32zM233 1470q0 33 33 33t33 -33t-33 -32q-33 0 -33 32zM365 1470q0 33 32 33q33 0 33 -33t-33 -32q-33 0 -32 32zM496 20q0 33 32 33q33 0 33 -33q0 -32 -31 -32h-2q-33 0 -32 32zM528 184q33 1 33 -32t-33 -33 q-32 0 -32 31q0 35 32 34zM528 317q33 1 33 -32t-33 -33q-32 0 -32 31q0 35 32 34zM528 449q33 0 33 -33t-33 -33q-32 0 -32 31q0 35 32 35zM528 582q33 0 33 -33t-33 -33q-32 0 -32 31q0 35 32 35zM528 713q33 0 33 -33t-33 -33q-32 0 -32 31q0 35 32 35zM528 846 q33 0 33 -33t-33 -33q-32 0 -32 31q0 35 32 35zM528 977q33 0 33 -33t-33 -33q-32 0 -32 31q0 35 32 35zM528 1110q33 0 33 -33t-33 -33q-32 0 -32 31q0 35 32 35zM496 1208q0 33 32 33q33 0 33 -33q0 -32 -31 -32h-2q-33 0 -32 32zM498 1337q0 33 32 33q33 0 33 -33 q0 -32 -31 -32h-2q-33 0 -32 32zM498 1470q0 33 32 33q33 0 33 -33q0 -32 -31 -32h-2q-33 0 -32 32zM629 1470q0 33 33 33q32 0 32 -33q0 -32 -30 -32h-2q-33 0 -33 32zM762 1470q0 33 33 33q32 0 32 -33q0 -32 -30 -32h-2q-33 0 -33 32zM893 1470q0 33 33 33q32 0 32 -33 q0 -32 -30 -32h-2q-33 0 -33 32z" />
<glyph unicode="U" d="M0 285q0 33 33 32q33 1 33 -32t-33 -33t-33 33zM0 416q0 33 33 33t33 -33t-33 -33t-33 33zM0 549q0 33 33 33t33 -33t-33 -33t-33 33zM0 680q0 33 33 33t33 -33t-33 -33t-33 33zM0 813q0 33 33 33t33 -33t-33 -33t-33 33zM0 944q0 33 33 33t33 -33t-33 -33t-33 33z M0 1077q0 33 33 33t33 -33t-33 -33t-33 33zM0 1208q0 33 33 33t33 -33t-33 -32q-33 0 -33 32zM0 1341q0 33 33 33t33 -33t-33 -32q-33 0 -33 32zM0 1473q0 34 31 34h2h2q31 0 31 -34q0 -33 -33 -33t-33 33zM133 152q0 33 33 32q33 1 33 -32t-33 -33t-33 33zM264 20 q0 33 33 33t33 -33q0 -32 -31 -32h-2q-33 0 -33 32zM397 20q0 33 33 33t33 -33q0 -32 -31 -32h-2q-33 0 -33 32zM528 20q0 33 33 33t33 -33q0 -32 -31 -32h-2q-33 0 -33 32zM694 184q33 1 33 -32t-33 -33q-32 0 -32 31q0 35 32 34zM825 317q33 1 33 -32t-33 -33 q-32 0 -32 31q0 35 32 34zM825 449q33 0 33 -33t-33 -33q-32 0 -32 31q0 35 32 35zM825 582q33 0 33 -33t-33 -33q-32 0 -32 31q0 35 32 35zM825 713q33 0 33 -33t-33 -33q-32 0 -32 31q0 35 32 35zM825 846q33 0 33 -33t-33 -33q-32 0 -32 31q0 35 32 35zM825 977 q33 0 33 -33t-33 -33q-32 0 -32 31q0 35 32 35zM825 1110q33 0 33 -33t-33 -33q-32 0 -32 31q0 35 32 35zM793 1208q0 33 32 33q33 0 33 -33q0 -32 -31 -32h-2q-33 0 -32 32zM793 1341q0 33 32 33q33 0 33 -33q0 -32 -31 -32h-2q-33 0 -32 32zM793 1473q0 34 30 34h2h2 q31 0 31 -34q0 -33 -33 -33t-32 33z" />
<glyph unicode="V" horiz-adv-x="1056" d="M0 944q0 33 33 33t33 -33t-33 -33t-33 33zM0 1208q0 33 33 33t33 -33t-33 -32q-33 0 -33 32zM0 1341q0 33 33 33t33 -33t-33 -32q-33 0 -33 32zM0 1477q0 32 31 32h2h2q31 0 31 -32q0 -33 -33 -33t-33 33zM6 1079q0 33 33 33t33 -33t-33 -32q-33 0 -33 32zM133 684 q0 33 33 33t33 -33t-33 -33t-33 33zM133 813q0 33 33 33t33 -33t-33 -33t-33 33zM264 289q0 33 33 33t33 -33q0 -35 -33 -35t-33 35zM264 416q0 33 33 33t33 -33t-33 -33t-33 33zM264 549q0 33 33 33t33 -33t-33 -33t-33 33zM397 25q0 33 33 32q33 1 33 -32q0 -35 -33 -35 t-33 35zM397 152q0 33 33 32q33 1 33 -32t-33 -33t-33 33zM528 289q0 33 33 33t33 -33q0 -35 -33 -35t-33 35zM528 416q0 33 33 33t33 -33t-33 -33t-33 33zM528 549q0 33 33 33t33 -33t-33 -33t-33 33zM659 678q0 35 35 35q33 0 33 -35q0 -33 -33 -33q-35 0 -35 33zM694 846 q33 0 33 -33t-33 -33q-32 0 -32 31q0 35 32 35zM825 977q33 0 33 -33t-33 -33q-32 0 -32 31q0 35 32 35zM825 1110q33 0 33 -33t-33 -33q-32 0 -32 31q0 35 32 35zM793 1208q0 33 32 33q33 0 33 -33q0 -32 -31 -32h-2q-33 0 -32 32zM793 1341q0 33 32 33q33 0 33 -33 q0 -32 -31 -32h-2q-33 0 -32 32zM823 1509h2h2q31 0 31 -32q0 -33 -33 -33q-32 0 -32 31q0 34 30 34z" />
<glyph unicode="W" horiz-adv-x="1832" d="M0 944q0 33 33 33t33 -33t-33 -33t-33 33zM0 1208q0 33 33 33t33 -33t-33 -32q-33 0 -33 32zM0 1341q0 33 33 33t33 -33t-33 -32q-33 0 -33 32zM0 1477q0 33 33 32q33 1 33 -32t-33 -33t-33 33zM6 1079q0 33 33 33t33 -33t-33 -32q-33 0 -33 32zM133 684q0 33 33 33 t33 -33t-33 -33t-33 33zM133 813q0 33 33 33t33 -33t-33 -33t-33 33zM264 289q0 33 33 33t33 -33q0 -35 -33 -35t-33 35zM264 416q0 33 33 33t33 -33t-33 -33t-33 33zM264 549q0 33 33 33t33 -33t-33 -33t-33 33zM397 25q0 33 33 32q33 1 33 -32q0 -35 -33 -35t-33 35z M397 152q0 33 33 32q33 1 33 -32t-33 -33t-33 33zM528 289q0 33 33 33t33 -33q0 -35 -33 -35t-33 35zM528 416q0 33 33 33t33 -33t-33 -33t-33 33zM528 549q0 33 33 33t33 -33t-33 -33t-33 33zM659 678q0 35 35 35q33 0 33 -35q0 -33 -33 -33q-35 0 -35 33zM694 846 q33 0 33 -33t-33 -33q-32 0 -32 31q0 35 32 35zM791 948q0 33 32 33q35 0 35 -37q0 -33 -33 -33q-20 0 -28 19q-6 8 -6 18zM791 1212q0 33 32 33q35 0 35 -37q0 -33 -33 -32q-20 0 -28 18q-6 8 -6 18zM791 1346q0 33 32 32q35 0 35 -37q0 -33 -33 -32q-20 0 -28 18 q-6 8 -6 19zM791 1481q0 32 30 32h2h2q33 0 33 -36q0 -33 -33 -33q-20 0 -28 18q-6 8 -6 19zM801 1098q10 18 28 18q33 0 33 -33q0 -12 -8 -22q-8 -16 -29 -17q-32 0 -32 31q0 14 8 23zM956 721q33 0 33 -33t-33 -33q-32 0 -32 31q0 35 32 35zM956 850q33 0 33 -33t-33 -33 q-32 0 -32 31q0 35 32 35zM1055 291q0 35 32 35q33 0 33 -35q0 -33 -33 -33t-32 33zM1087 453q33 0 33 -33t-33 -33q-32 0 -32 31q0 35 32 35zM1087 586q33 0 33 -33q0 -35 -33 -35q-32 0 -32 33q0 35 32 35zM1188 27q0 33 33 32q32 1 32 -32t-32 -33q-33 0 -33 33z M1188 156q0 33 33 32q32 1 32 -32t-32 -33q-33 0 -33 33zM1319 291q0 35 33 35q32 0 32 -35q0 -33 -32 -33q-33 0 -33 33zM1319 420q0 33 33 33q32 0 32 -33t-32 -33q-33 0 -33 33zM1319 553q0 33 33 33q32 0 32 -33q0 -35 -32 -35q-33 0 -33 35zM1452 682q0 33 33 33 t33 -33t-33 -33t-33 33zM1452 817q0 33 33 33t33 -33t-33 -33t-33 33zM1583 948q0 33 33 33t33 -33t-33 -33t-33 33zM1583 1081q0 33 33 33t33 -33q0 -32 -31 -32h-2q-33 0 -33 32zM1583 1212q0 33 33 33t33 -33q0 -32 -31 -32h-2q-33 0 -33 32zM1583 1346q0 33 33 32 q33 1 33 -32t-33 -33t-33 33zM1583 1481q0 32 31 32h2h2q31 0 31 -32q0 -33 -33 -33t-33 33z" />
<glyph unicode="X" horiz-adv-x="1056" d="M0 20q0 33 33 33t33 -33q0 -32 -31 -32h-2q-33 0 -33 32zM0 152q0 33 33 32q33 1 33 -32t-33 -33t-33 33zM4 1339q0 33 33 33t33 -33t-33 -32q-33 0 -33 32zM4 1470q0 33 33 33t33 -33t-33 -32q-33 0 -33 32zM133 285q0 33 33 32q33 1 33 -32t-33 -33t-33 33zM133 416 q0 33 33 33t33 -33t-33 -33t-33 33zM135 1075q0 33 33 33q35 0 35 -33t-35 -33q-33 0 -33 33zM135 1206q0 33 33 33q35 0 35 -33t-35 -32q-33 0 -33 32zM264 549q0 33 33 33t33 -33t-33 -33t-33 33zM264 680q0 33 33 33t33 -33t-33 -33t-33 33zM268 942q0 33 33 33t33 -33 t-33 -33t-33 33zM399 811q0 33 33 33q35 0 35 -33q0 -35 -35 -35q-33 0 -33 35zM528 549q0 33 33 33t33 -33t-33 -33t-33 33zM528 680q0 33 33 33t33 -33t-33 -33t-33 33zM532 942q0 33 33 33t33 -33t-33 -33t-33 33zM694 449q33 0 33 -33t-33 -33q-32 0 -32 31q0 35 32 35z M698 1108q33 0 33 -33t-33 -33q-34 0 -34 31q0 35 34 35zM664 1206q0 33 34 33q33 0 33 -33t-33 -32q-35 0 -34 32zM702 313q33 1 33 -32t-33 -33q-34 0 -34 31q0 35 34 34zM793 20q0 33 32 33q33 0 33 -33q0 -32 -31 -32h-2q-33 0 -32 32zM825 184q33 1 33 -32t-33 -33 q-32 0 -32 31q0 35 32 34zM797 1339q0 33 32 33q33 0 33 -33q0 -32 -31 -32h-2q-33 0 -32 32zM797 1470q0 33 32 33q33 0 33 -33q0 -32 -31 -32h-2q-33 0 -32 32z" />
<glyph unicode="Y" d="M0 1473q0 34 31 34h2h2q31 0 31 -34q0 -33 -33 -33t-33 33zM133 1208q0 33 33 33t33 -33t-33 -32q-33 0 -33 32zM133 1341q0 33 33 33t33 -33t-33 -32q-33 0 -33 32zM264 944q0 33 33 33t33 -33t-33 -33t-33 33zM264 1077q0 33 33 33t33 -33t-33 -33t-33 33zM397 20 q0 33 33 33t33 -33q0 -32 -31 -32h-2q-33 0 -33 32zM397 152q0 33 33 32q33 1 33 -32t-33 -33t-33 33zM397 285q0 33 33 32q33 1 33 -32t-33 -33t-33 33zM397 416q0 33 33 33t33 -33t-33 -33t-33 33zM397 549q0 33 33 33t33 -33t-33 -33t-33 33zM397 680q0 33 33 33t33 -33 t-33 -33t-33 33zM397 813q0 33 33 33t33 -33t-33 -33t-33 33zM528 944q0 33 33 33t33 -33t-33 -33t-33 33zM528 1077q0 33 33 33t33 -33t-33 -33t-33 33zM662 1208q0 33 32 33q33 0 33 -33q0 -32 -31 -32h-2q-33 0 -32 32zM662 1341q0 33 32 33q33 0 33 -33q0 -32 -31 -32 h-2q-33 0 -32 32zM793 1473q0 34 30 34h2h2q31 0 31 -34q0 -33 -33 -33t-32 33z" />
<glyph unicode="Z" horiz-adv-x="1054" d="M0 20q0 33 33 33t33 -33q0 -32 -31 -32h-2q-33 0 -33 32zM0 1473q0 33 33 32q35 1 35 -32t-35 -33q-33 0 -33 33zM131 154q0 33 33 32q33 1 33 -32t-33 -33t-33 33zM131 285q0 33 33 32q33 1 33 -32t-33 -33t-33 33zM133 20q0 33 33 33t33 -33q0 -32 -31 -32h-2 q-33 0 -33 32zM133 1473q0 33 33 32q33 1 33 -32t-33 -33t-33 33zM264 20q0 33 33 33t33 -33q0 -32 -31 -32h-2q-33 0 -33 32zM264 1473q0 33 33 32q35 1 35 -32t-35 -33q-33 0 -33 33zM268 414q0 35 33 35t33 -35q0 -33 -33 -33t-33 33zM268 551q0 33 33 33t33 -33t-33 -33 t-33 33zM391 813q0 33 33 33t33 -33t-33 -33t-33 33zM395 682q0 33 33 33t33 -33t-33 -33t-33 33zM397 20q0 33 33 33t33 -33q0 -32 -31 -32h-2q-33 0 -33 32zM397 1473q0 33 33 32q33 1 33 -32t-33 -33t-33 33zM526 946q0 33 33 33q35 0 35 -33t-35 -33q-33 0 -33 33z M526 1079q0 33 33 33t33 -33t-33 -32q-33 0 -33 32zM528 20q0 33 33 33t33 -33q0 -32 -31 -32h-2q-33 0 -33 32zM528 1473q0 33 33 32q35 1 35 -32t-35 -33q-33 0 -33 33zM659 1210q0 33 33 33t33 -33t-33 -32q-33 0 -33 32zM662 20q0 33 32 33q33 0 33 -33q0 -32 -31 -32 h-2q-33 0 -32 32zM694 1505q33 1 33 -32t-33 -33q-32 0 -32 31q0 35 32 34zM664 1341q0 33 32 33q33 0 33 -33t-33 -32q-33 0 -32 32zM793 20q0 33 32 33q33 0 33 -33q0 -32 -31 -32h-2q-33 0 -32 32zM827 1509h2h2q31 0 31 -32q0 -33 -33 -33q-32 0 -32 31q0 34 30 34z" />
<glyph unicode="[" horiz-adv-x="528" d="M0 20q0 33 33 33t33 -33t-33 -32q-33 0 -33 32zM0 152q0 33 33 32q33 1 33 -32t-33 -33t-33 33zM0 285q0 33 33 32q33 1 33 -32t-33 -33t-33 33zM0 416q0 33 33 33t33 -33t-33 -33t-33 33zM0 549q0 33 33 33t33 -33t-33 -33t-33 33zM0 680q0 33 33 33t33 -33t-33 -33 t-33 33zM0 813q0 33 33 33t33 -33t-33 -33t-33 33zM0 944q0 33 33 33t33 -33t-33 -33t-33 33zM0 1077q0 33 33 33t33 -33t-33 -33t-33 33zM0 1208q0 33 33 33t33 -33t-33 -32q-33 0 -33 32zM0 1341q0 33 33 33t33 -33t-33 -32q-33 0 -33 32zM0 1473q0 35 33 34q33 1 33 -34 q0 -33 -33 -33t-33 33zM0 1606q0 33 33 32q33 1 33 -32t-33 -33t-33 33zM133 20q0 33 33 33t33 -33t-33 -32q-33 0 -33 32zM133 1606q0 33 33 32q33 1 33 -32t-33 -33t-33 33zM264 20q0 33 33 33t33 -33t-33 -32q-33 0 -33 32zM264 1606q0 33 33 32q33 1 33 -32t-33 -33 t-33 33z" />
<glyph unicode="\" horiz-adv-x="1253" d="M135 1608q0 33 33 32q35 1 35 -32t-35 -33q-33 0 -33 33zM268 1343q0 33 33 33t33 -33t-33 -32q-33 0 -33 32zM268 1477q0 33 33 32q33 1 33 -32q0 -35 -33 -35t-33 35zM399 1079q0 33 35 33q33 0 33 -33t-33 -32q-35 0 -35 32zM399 1210q0 35 35 35q33 0 33 -35 q0 -33 -33 -32q-35 0 -35 32zM532 815q0 33 33 33t33 -33t-33 -33t-33 33zM532 946q0 35 33 35t33 -35q0 -33 -33 -33t-33 33zM664 551q0 33 34 33q33 0 33 -33t-33 -33q-35 0 -34 33zM664 682q0 35 34 35q33 0 33 -35q0 -33 -33 -33q-35 0 -34 33zM797 287q0 33 32 32 q33 1 33 -32t-33 -33t-32 33zM797 418q0 35 32 35q33 0 33 -35q0 -33 -33 -33t-32 33zM928 23q0 33 35 32q32 1 32 -32t-32 -33q-35 0 -35 33zM928 154q0 33 35 32q32 1 32 -32t-32 -33q-35 0 -35 33z" />
<glyph unicode="]" horiz-adv-x="528" d="M8 14q0 33 33 33t33 -33t-33 -32q-33 0 -33 32zM8 1602q0 33 33 32q33 1 33 -32q0 -35 -33 -35t-33 35zM141 14q0 33 33 33t33 -33t-33 -32q-33 0 -33 32zM141 1602q0 33 33 32q33 1 33 -32q0 -35 -33 -35t-33 35zM272 14q0 33 33 33t33 -33t-33 -32q-33 0 -33 32z M272 147q0 33 33 33t33 -33t-33 -32q-33 0 -33 32zM272 279q0 35 33 34q33 1 33 -34q0 -33 -33 -33t-33 33zM272 412q0 33 33 32q33 1 33 -32t-33 -33t-33 33zM272 543q0 35 33 35t33 -35q0 -33 -33 -33t-33 33zM272 676q0 33 33 33t33 -33t-33 -33t-33 33zM272 807 q0 35 33 35t33 -35q0 -33 -33 -33t-33 33zM272 940q0 33 33 33t33 -33t-33 -33t-33 33zM272 1073q0 33 33 33t33 -33q0 -35 -33 -35t-33 35zM272 1204q0 33 33 33t33 -33t-33 -33t-33 33zM272 1337q0 33 33 33t33 -33q0 -35 -33 -34q-33 0 -33 34zM272 1468q0 33 33 33 t33 -33t-33 -32q-33 0 -33 32zM272 1602q0 33 33 32q33 1 33 -32q0 -35 -33 -35t-33 35z" />
<glyph unicode="^" horiz-adv-x="790" d="M131 1206q0 33 33 33t33 -33t-33 -32q-33 0 -33 32zM264 1339q0 33 33 33t33 -33t-33 -32q-33 0 -33 32zM395 1206q0 33 33 33t33 -33t-33 -32q-33 0 -33 32z" />
<glyph unicode="_" horiz-adv-x="929" d="M0 20q0 33 33 33t33 -33t-33 -32q-33 0 -33 32zM133 20q0 33 33 33t33 -33t-33 -32q-33 0 -33 32zM264 20q0 33 33 33t33 -33t-33 -32q-33 0 -33 32zM397 20q0 33 33 33t33 -33t-33 -32q-33 0 -33 32zM528 20q0 33 33 33t33 -33t-33 -32q-33 0 -33 32zM662 20q0 33 32 33 q33 0 33 -33t-33 -32q-33 0 -32 32z" />
<glyph unicode="`" horiz-adv-x="399" />
<glyph unicode="a" horiz-adv-x="925" d="M12 154q0 33 33 32q33 1 33 -32q0 -35 -33 -35t-33 35zM12 285q0 33 33 32q33 1 33 -32t-33 -33t-33 33zM12 418q0 33 33 33t33 -33q0 -35 -33 -35t-33 35zM12 549q0 33 33 33t33 -33t-33 -33t-33 33zM12 682q0 33 33 33t33 -33q0 -35 -33 -35t-33 35zM145 20q0 33 33 33 t33 -33q0 -32 -31 -32h-2q-33 0 -33 32zM145 813q0 33 33 33t33 -33t-33 -33t-33 33zM317 55q33 1 33 -32t-33 -33q-32 0 -32 31q0 35 32 34zM317 981q33 0 33 -33t-33 -33q-32 0 -32 31q0 35 32 35zM416 23q0 33 35 32q32 1 32 -32t-32 -33q-35 0 -35 33zM416 948 q0 33 35 33q32 0 32 -33t-32 -33q-35 0 -35 33zM549 156q0 33 33 32q32 1 32 -32q0 -35 -32 -35q-33 0 -33 35zM549 815q0 33 33 33q32 0 32 -33t-32 -33q-33 0 -33 33zM682 23q0 33 33 32q33 1 33 -32t-33 -33t-33 33zM682 156q0 33 33 32q33 1 33 -32q0 -35 -33 -35 t-33 35zM682 287q0 33 33 32q33 1 33 -32t-33 -33t-33 33zM682 420q0 33 33 33t33 -33q0 -35 -33 -35t-33 35zM682 551q0 33 33 33t33 -33t-33 -33t-33 33zM682 684q0 33 33 33t33 -33q0 -35 -33 -35t-33 35zM682 815q0 33 33 33t33 -33t-33 -33t-33 33zM682 948q0 33 33 33 t33 -33t-33 -33t-33 33z" />
<glyph unicode="b" horiz-adv-x="921" d="M0 20q0 33 33 33t33 -33q0 -32 -31 -32h-2q-33 0 -33 32zM0 152q0 33 33 32q33 1 33 -32t-33 -33t-33 33zM0 285q0 33 33 32q33 1 33 -32t-33 -33t-33 33zM0 416q0 33 33 33t33 -33t-33 -33t-33 33zM0 549q0 33 33 33t33 -33t-33 -33t-33 33zM0 680q0 33 33 33t33 -33 t-33 -33t-33 33zM0 813q0 33 33 33t33 -33t-33 -33t-33 33zM0 944q0 33 33 33t33 -33t-33 -33t-33 33zM0 1077q0 33 33 33t33 -33t-33 -33t-33 33zM0 1208q0 33 33 33t33 -33t-33 -32q-33 0 -33 32zM0 1341q0 33 33 33t33 -33t-33 -32q-33 0 -33 32zM0 1473q0 34 31 34h2h2 q31 0 31 -34q0 -33 -33 -33t-33 33zM133 152q0 33 33 32q33 1 33 -32t-33 -33t-33 33zM133 813q0 33 33 33t33 -33t-33 -33t-33 33zM264 20q0 33 33 33t33 -33q0 -32 -31 -32h-2q-33 0 -33 32zM264 944q0 33 33 33t33 -33t-33 -33t-33 33zM397 20q0 33 33 33t33 -33 q0 -32 -31 -32h-2q-33 0 -33 32zM397 944q0 33 33 33t33 -33t-33 -33t-33 33zM528 152q0 33 33 32q33 1 33 -32t-33 -33t-33 33zM528 813q0 33 33 33t33 -33t-33 -33t-33 33zM694 317q33 1 33 -32t-33 -33q-32 0 -32 31q0 35 32 34zM694 449q33 0 33 -33t-33 -33 q-32 0 -32 31q0 35 32 35zM694 582q33 0 33 -33t-33 -33q-32 0 -32 31q0 35 32 35zM694 713q33 0 33 -33t-33 -33q-32 0 -32 31q0 35 32 35z" />
<glyph unicode="c" horiz-adv-x="927" d="M0 285q0 33 33 32q33 1 33 -32t-33 -33t-33 33zM0 416q0 33 33 33t33 -33t-33 -33t-33 33zM0 549q0 33 33 33t33 -33t-33 -33t-33 33zM0 680q0 33 33 33t33 -33t-33 -33t-33 33zM133 152q0 33 33 32q33 1 33 -32t-33 -33t-33 33zM133 813q0 33 33 33t33 -33t-33 -33 t-33 33zM264 20q0 33 33 33t33 -33q0 -32 -31 -32h-2q-33 0 -33 32zM264 944q0 33 33 33t33 -33t-33 -33t-33 33zM397 20q0 33 33 33t33 -33q0 -32 -31 -32h-2q-33 0 -33 32zM397 944q0 33 33 33t33 -33t-33 -33t-33 33zM528 20q0 33 33 33t33 -33q0 -32 -31 -32h-2 q-33 0 -33 32zM528 944q0 33 33 33t33 -33t-33 -33t-33 33zM694 184q33 1 33 -32t-33 -33q-32 0 -32 31q0 35 32 34zM694 846q33 0 33 -33t-33 -33q-32 0 -32 31q0 35 32 35z" />
<glyph unicode="d" horiz-adv-x="921" d="M0 285q0 33 33 32q33 1 33 -32t-33 -33t-33 33zM0 416q0 33 33 33t33 -33t-33 -33t-33 33zM0 549q0 33 33 33t33 -33t-33 -33t-33 33zM0 680q0 33 33 33t33 -33t-33 -33t-33 33zM133 152q0 33 33 32q33 1 33 -32t-33 -33t-33 33zM133 813q0 33 33 33t33 -33t-33 -33 t-33 33zM264 20q0 33 33 33t33 -33q0 -32 -31 -32h-2q-33 0 -33 32zM264 944q0 33 33 33t33 -33t-33 -33t-33 33zM397 20q0 33 33 33t33 -33q0 -32 -31 -32h-2q-33 0 -33 32zM397 944q0 33 33 33t33 -33t-33 -33t-33 33zM528 152q0 33 33 32q33 1 33 -32t-33 -33t-33 33z M528 813q0 33 33 33t33 -33t-33 -33t-33 33zM662 20q0 33 32 33q33 0 33 -33q0 -32 -31 -32h-2q-33 0 -32 32zM694 184q33 1 33 -32t-33 -33q-32 0 -32 31q0 35 32 34zM694 317q33 1 33 -32t-33 -33q-32 0 -32 31q0 35 32 34zM694 449q33 0 33 -33t-33 -33q-32 0 -32 31 q0 35 32 35zM694 582q33 0 33 -33t-33 -33q-32 0 -32 31q0 35 32 35zM694 713q33 0 33 -33t-33 -33q-32 0 -32 31q0 35 32 35zM694 846q33 0 33 -33t-33 -33q-32 0 -32 31q0 35 32 35zM694 977q33 0 33 -33t-33 -33q-32 0 -32 31q0 35 32 35zM694 1110q33 0 33 -33t-33 -33 q-32 0 -32 31q0 35 32 35zM662 1208q0 33 32 33q33 0 33 -33q0 -32 -31 -32h-2q-33 0 -32 32zM662 1341q0 33 32 33q33 0 33 -33q0 -32 -31 -32h-2q-33 0 -32 32zM662 1473q0 34 30 34h2h2q31 0 31 -34q0 -33 -33 -33t-32 33z" />
<glyph unicode="e" horiz-adv-x="927" d="M0 285q0 33 33 32q33 1 33 -32t-33 -33t-33 33zM0 416q0 33 33 33t33 -33t-33 -33t-33 33zM0 549q0 33 33 33t33 -33t-33 -33t-33 33zM0 680q0 33 33 33t33 -33t-33 -33t-33 33zM133 152q0 33 33 32q33 1 33 -32t-33 -33t-33 33zM133 549q0 33 33 33t33 -33t-33 -33 t-33 33zM133 813q0 33 33 33t33 -33t-33 -33t-33 33zM264 20q0 33 33 33t33 -33q0 -32 -31 -32h-2q-33 0 -33 32zM264 549q0 33 33 33t33 -33t-33 -33t-33 33zM264 944q0 33 33 33t33 -33t-33 -33t-33 33zM397 20q0 33 33 33t33 -33q0 -32 -31 -32h-2q-33 0 -33 32zM397 549 q0 33 33 33t33 -33t-33 -33t-33 33zM397 944q0 33 33 33t33 -33t-33 -33t-33 33zM528 20q0 33 33 33t33 -33q0 -32 -31 -32h-2q-33 0 -33 32zM528 549q0 33 33 33t33 -33t-33 -33t-33 33zM528 944q0 33 33 33t33 -33t-33 -33t-33 33zM694 184q33 1 33 -32t-33 -33 q-32 0 -32 31q0 35 32 34zM694 582q33 0 33 -33t-33 -33q-32 0 -32 31q0 35 32 35zM694 713q33 0 33 -33t-33 -33q-32 0 -32 31q0 35 32 35zM694 846q33 0 33 -33t-33 -33q-32 0 -32 31q0 35 32 35z" />
<glyph unicode="f" d="M8 801q0 33 33 33t33 -33t-33 -33t-33 33zM139 801q0 33 33 33q35 0 35 -33t-35 -33q-33 0 -33 33zM264 20q0 33 33 33t33 -33q0 -32 -31 -32h-2q-33 0 -33 32zM264 152q0 33 33 32q33 1 33 -32t-33 -33t-33 33zM264 285q0 33 33 32q33 1 33 -32t-33 -33t-33 33zM264 416 q0 33 33 33t33 -33t-33 -33t-33 33zM272 537q0 33 33 32q33 1 33 -32t-33 -33t-33 33zM272 670q0 33 33 32q33 1 33 -32t-33 -33t-33 33zM272 801q0 33 33 33t33 -33t-33 -33t-33 33zM272 934q0 33 33 33t33 -33t-33 -33t-33 33zM272 1065q0 33 33 33t33 -33t-33 -33t-33 33 zM272 1198q0 33 33 33t33 -33t-33 -33t-33 33zM272 1329q0 33 33 33t33 -33t-33 -33t-33 33zM403 801q0 33 35 33q33 0 33 -33t-33 -33q-35 0 -35 33zM403 1462q0 33 35 33q33 0 33 -33t-33 -32q-35 0 -35 32zM569 834q33 0 33 -33t-33 -33q-32 0 -32 31q0 35 32 35z M537 1462q0 33 32 33q33 0 33 -33t-33 -32q-33 0 -32 32zM668 1462q0 33 34 33q33 0 33 -33t-33 -32q-35 0 -34 32zM801 1198q0 33 33 33q32 0 32 -33t-32 -33q-33 0 -33 33zM801 1329q0 33 33 33q32 0 32 -33t-32 -33q-33 0 -33 33z" />
<glyph unicode="g" horiz-adv-x="927" d="M0 -244q0 33 33 33t33 -33t-33 -32q-33 0 -33 32zM0 285q0 33 33 32q33 1 33 -32t-33 -33t-33 33zM0 416q0 33 33 33t33 -33t-33 -33t-33 33zM0 549q0 33 33 33t33 -33t-33 -33t-33 33zM0 680q0 33 33 33t33 -33t-33 -33t-33 33zM133 152q0 33 33 32q33 1 33 -32t-33 -33 t-33 33zM133 -377q0 33 33 33t33 -33t-33 -33t-33 33zM133 813q0 33 33 33t33 -33t-33 -33t-33 33zM260 147q0 33 33 33t33 -33q0 -35 -33 -34q-33 0 -33 34zM264 -377q0 33 33 33t33 -33t-33 -33t-33 33zM264 944q0 33 33 33t33 -33t-33 -33t-33 33zM393 147q0 33 33 33 t33 -33q0 -35 -33 -34q-33 0 -33 34zM397 -377q0 33 33 33t33 -33t-33 -33t-33 33zM397 944q0 33 33 33t33 -33t-33 -33t-33 33zM528 -377q0 33 33 33t33 -33t-33 -33t-33 33zM530 283q0 33 33 32q33 1 33 -32t-33 -33t-33 33zM532 807q0 33 33 33t33 -33t-33 -33t-33 33z M662 20q0 33 32 33q33 0 33 -33t-33 -32q-33 0 -32 32zM662 -113q0 33 32 33q33 0 33 -33t-33 -32q-33 0 -32 32zM694 184q33 1 33 -32t-33 -33q-32 0 -32 31q0 35 32 34zM662 -244q0 33 32 33q33 0 33 -33q0 -32 -31 -32h-2q-33 0 -32 32zM694 317q33 1 33 -32t-33 -33 q-32 0 -32 31q0 35 32 34zM694 449q33 0 33 -33t-33 -33q-32 0 -32 31q0 35 32 35zM694 582q33 0 33 -33t-33 -33q-32 0 -32 31q0 35 32 35zM694 713q33 0 33 -33t-33 -33q-32 0 -32 31q0 35 32 35zM694 846q33 0 33 -33t-33 -33q-32 0 -32 31q0 35 32 35zM694 977 q33 0 33 -33t-33 -33q-32 0 -32 31q0 35 32 35z" />
<glyph unicode="h" horiz-adv-x="919" d="M0 20q0 33 33 33t33 -33t-33 -32q-33 0 -33 32zM0 152q0 33 33 32q33 1 33 -32t-33 -33t-33 33zM0 285q0 33 33 32q33 1 33 -32t-33 -33t-33 33zM0 416q0 33 33 33t33 -33t-33 -33t-33 33zM0 549q0 33 33 33t33 -33t-33 -33t-33 33zM0 680q0 33 33 33t33 -33t-33 -33 t-33 33zM0 813q0 33 33 33t33 -33t-33 -33t-33 33zM0 944q0 33 33 33t33 -33t-33 -33t-33 33zM0 1077q0 33 33 33t33 -33t-33 -33t-33 33zM0 1208q0 33 33 33t33 -33t-33 -32q-33 0 -33 32zM0 1341q0 33 33 33t33 -33t-33 -32q-33 0 -33 32zM0 1473q0 34 31 34h2h2 q31 0 31 -34q0 -33 -33 -33t-33 33zM133 813q0 33 33 33t33 -33t-33 -33t-33 33zM264 944q0 33 33 33t33 -33t-33 -33t-33 33zM397 944q0 33 33 33t33 -33t-33 -33t-33 33zM528 811q0 33 33 33t33 -33t-33 -33t-33 33zM664 18q0 33 32 33q33 0 33 -33q0 -32 -31 -32h-2 q-33 0 -32 32zM696 184q33 1 33 -32q0 -35 -33 -35q-32 0 -32 33q0 35 32 34zM696 315q33 1 33 -32t-33 -33q-32 0 -32 31q0 35 32 34zM696 449q33 0 33 -33q0 -35 -33 -35q-32 0 -32 33q0 35 32 35zM696 580q33 0 33 -33t-33 -33q-32 0 -32 31q0 35 32 35zM696 713 q33 0 33 -33q0 -35 -33 -35q-32 0 -32 33q0 35 32 35z" />
<glyph unicode="i" horiz-adv-x="266" d="M0 20q0 33 33 33t33 -33q0 -32 -31 -32h-2q-33 0 -33 32zM0 152q0 33 33 32q33 1 33 -32t-33 -33t-33 33zM0 285q0 33 33 32q33 1 33 -32t-33 -33t-33 33zM0 416q0 33 33 33t33 -33t-33 -33t-33 33zM0 549q0 33 33 33t33 -33t-33 -33t-33 33zM0 680q0 33 33 33t33 -33 t-33 -33t-33 33zM0 813q0 33 33 33t33 -33t-33 -33t-33 33zM0 1077q0 33 33 33t33 -33t-33 -33t-33 33z" />
<glyph unicode="j" horiz-adv-x="794" d="M8 -250q0 33 33 33t33 -33t-33 -33t-33 33zM135 -379q0 35 33 35t33 -35q0 -33 -33 -33t-33 33zM268 -379q0 35 33 35t33 -35q0 -33 -33 -33t-33 33zM399 -379q0 35 33 35t33 -35q0 -33 -33 -33t-33 33zM532 18q0 33 33 33t33 -33t-33 -32q-33 0 -33 32zM532 -113 q0 33 33 33t33 -33q0 -35 -33 -34q-33 0 -33 34zM532 152q0 33 33 32q33 1 33 -32q0 -35 -33 -35t-33 35zM532 -246q0 33 33 33t33 -33t-33 -33t-33 33zM532 283q0 33 33 32q33 1 33 -32t-33 -33t-33 33zM532 416q0 33 33 33t33 -33q0 -35 -33 -35t-33 35zM532 547 q0 33 33 33t33 -33t-33 -33t-33 33zM532 680q0 33 33 33t33 -33t-33 -33t-33 33zM532 811q0 33 33 33t33 -33t-33 -33t-33 33zM532 1071q0 33 33 33t33 -33t-33 -33t-33 33z" />
<glyph unicode="k" horiz-adv-x="925" d="M0 20q0 33 33 33t33 -33q0 -32 -31 -32h-2q-33 0 -33 32zM0 152q0 33 33 32q33 1 33 -32t-33 -33t-33 33zM0 285q0 33 33 32q33 1 33 -32t-33 -33t-33 33zM0 416q0 33 33 33t33 -33t-33 -33t-33 33zM0 549q0 33 33 33t33 -33t-33 -33t-33 33zM0 680q0 33 33 33t33 -33 t-33 -33t-33 33zM0 813q0 33 33 33t33 -33t-33 -33t-33 33zM0 944q0 33 33 33t33 -33t-33 -33t-33 33zM0 1077q0 33 33 33t33 -33t-33 -33t-33 33zM0 1208q0 33 33 33t33 -33t-33 -32q-33 0 -33 32zM0 1341q0 33 33 33t33 -33t-33 -32q-33 0 -33 32zM0 1473q0 34 31 34h2h2 q31 0 31 -34q0 -33 -33 -33t-33 33zM133 549q0 33 33 33t33 -33t-33 -33t-33 33zM133 680q0 33 33 33t33 -33t-33 -33t-33 33zM264 416q0 33 33 33t33 -33t-33 -33t-33 33zM264 813q0 33 33 33t33 -33t-33 -33t-33 33zM397 285q0 33 33 32q33 1 33 -32t-33 -33t-33 33z M397 944q0 33 33 33t33 -33t-33 -33t-33 33zM528 152q0 33 33 32q33 1 33 -32t-33 -33t-33 33zM528 1077q0 33 33 33t33 -33t-33 -33t-33 33zM662 20q0 33 32 33q33 0 33 -33q0 -32 -31 -32h-2q-33 0 -32 32zM662 1208q0 33 32 33q33 0 33 -33q0 -32 -31 -32h-2 q-33 0 -32 32z" />
<glyph unicode="l" horiz-adv-x="266" d="M0 20q0 33 33 33t33 -33q0 -32 -31 -32h-2q-33 0 -33 32zM0 152q0 33 33 32q33 1 33 -32t-33 -33t-33 33zM0 285q0 33 33 32q33 1 33 -32t-33 -33t-33 33zM0 416q0 33 33 33t33 -33t-33 -33t-33 33zM0 549q0 33 33 33t33 -33t-33 -33t-33 33zM0 680q0 33 33 33t33 -33 t-33 -33t-33 33zM0 813q0 33 33 33t33 -33t-33 -33t-33 33zM0 944q0 33 33 33t33 -33t-33 -33t-33 33zM0 1077q0 33 33 33t33 -33t-33 -33t-33 33zM0 1208q0 33 33 33t33 -33q0 -32 -31 -32h-2q-33 0 -33 32zM0 1341q0 33 33 33t33 -33q0 -32 -31 -32h-2q-33 0 -33 32z M0 1473q0 34 31 34h2h2q31 0 31 -34q0 -33 -33 -33t-33 33z" />
<glyph unicode="m" horiz-adv-x="1587" d="M0 20q0 33 33 33t33 -33q0 -32 -31 -32h-2q-33 0 -33 32zM0 152q0 33 33 32q33 1 33 -32t-33 -33t-33 33zM0 285q0 33 33 32q33 1 33 -32t-33 -33t-33 33zM0 416q0 33 33 33t33 -33t-33 -33t-33 33zM0 549q0 33 33 33t33 -33t-33 -33t-33 33zM0 680q0 33 33 33t33 -33 t-33 -33t-33 33zM0 813q0 33 33 33t33 -33t-33 -33t-33 33zM0 944q0 33 33 33t33 -33t-33 -33t-33 33zM133 813q0 33 33 33t33 -33t-33 -33t-33 33zM264 944q0 33 33 33t33 -33t-33 -33t-33 33zM397 944q0 33 33 33t33 -33t-33 -33t-33 33zM528 813q0 33 33 33t33 -33 t-33 -33t-33 33zM662 20q0 33 32 33q33 0 33 -33q0 -32 -31 -32h-2q-33 0 -32 32zM694 184q33 1 33 -32t-33 -33q-32 0 -32 31q0 35 32 34zM694 317q33 1 33 -32t-33 -33q-32 0 -32 31q0 35 32 34zM694 449q33 0 33 -33t-33 -33q-32 0 -32 31q0 35 32 35zM694 582 q33 0 33 -33t-33 -33q-32 0 -32 31q0 35 32 35zM694 713q33 0 33 -33t-33 -33q-32 0 -32 31q0 35 32 35zM825 846q33 0 33 -33t-33 -33q-32 0 -32 31q0 35 32 35zM958 977q33 0 33 -33t-33 -33q-32 0 -32 31q0 35 32 35zM1057 944q0 33 33 33q32 0 32 -33t-32 -33 q-33 0 -33 33zM1190 813q0 33 33 33q32 0 32 -33t-32 -33q-33 0 -33 33zM1321 20q0 33 33 33q32 0 32 -33q0 -32 -30 -32h-2q-33 0 -33 32zM1321 152q0 33 33 32q32 1 32 -32t-32 -33q-33 0 -33 33zM1321 285q0 33 33 32q32 1 32 -32t-32 -33q-33 0 -33 33zM1321 416 q0 33 33 33q32 0 32 -33t-32 -33q-33 0 -33 33zM1321 549q0 33 33 33q32 0 32 -33t-32 -33q-33 0 -33 33zM1321 680q0 33 33 33q32 0 32 -33t-32 -33q-33 0 -33 33z" />
<glyph unicode="n" horiz-adv-x="931" d="M0 20q0 33 33 33t33 -33q0 -32 -31 -32h-2q-33 0 -33 32zM0 152q0 33 33 32q33 1 33 -32t-33 -33t-33 33zM0 285q0 33 33 32q33 1 33 -32t-33 -33t-33 33zM0 416q0 33 33 33t33 -33t-33 -33t-33 33zM0 549q0 33 33 33t33 -33t-33 -33t-33 33zM0 680q0 33 33 33t33 -33 t-33 -33t-33 33zM0 813q0 33 33 33t33 -33t-33 -33t-33 33zM0 944q0 33 33 33t33 -33t-33 -33t-33 33zM133 813q0 33 33 33t33 -33t-33 -33t-33 33zM264 944q0 33 33 33t33 -33t-33 -33t-33 33zM397 944q0 33 33 33t33 -33t-33 -33t-33 33zM528 813q0 33 33 33t33 -33 t-33 -33t-33 33zM662 20q0 33 32 33q33 0 33 -33q0 -32 -31 -32h-2q-33 0 -32 32zM694 184q33 1 33 -32t-33 -33q-32 0 -32 31q0 35 32 34zM694 317q33 1 33 -32t-33 -33q-32 0 -32 31q0 35 32 34zM694 449q33 0 33 -33t-33 -33q-32 0 -32 31q0 35 32 35zM694 582 q33 0 33 -33t-33 -33q-32 0 -32 31q0 35 32 35zM694 713q33 0 33 -33t-33 -33q-32 0 -32 31q0 35 32 35z" />
<glyph unicode="o" d="M14 285q0 33 33 32q33 1 33 -32t-33 -33t-33 33zM14 416q0 33 33 33t33 -33t-33 -33t-33 33zM14 549q0 33 33 33t33 -33t-33 -33t-33 33zM14 680q0 33 33 33t33 -33t-33 -33t-33 33zM147 152q0 33 33 32q33 1 33 -32t-33 -33t-33 33zM147 813q0 33 33 33t33 -33t-33 -33 t-33 33zM279 20q0 33 32 33q33 0 33 -33q0 -32 -31 -32h-2q-33 0 -32 32zM311 977q33 0 33 -33t-33 -33q-32 0 -32 31q0 35 32 35zM412 20q0 33 32 33q33 0 33 -33q0 -32 -31 -32h-2q-33 0 -32 32zM444 977q33 0 33 -33t-33 -33q-32 0 -32 31q0 35 32 35zM543 20q0 33 32 33 q33 0 33 -33q0 -32 -31 -32h-2q-33 0 -32 32zM575 977q33 0 33 -33t-33 -33q-32 0 -32 31q0 35 32 35zM676 152q0 33 33 32q32 1 32 -32t-32 -33q-33 0 -33 33zM676 813q0 33 33 33q32 0 32 -33t-32 -33q-33 0 -33 33zM807 285q0 33 33 32q32 1 32 -32t-32 -33q-33 0 -33 33 zM807 416q0 33 33 33q32 0 32 -33t-32 -33q-33 0 -33 33zM807 549q0 33 33 33q32 0 32 -33t-32 -33q-33 0 -33 33zM807 680q0 33 33 33q32 0 32 -33t-32 -33q-33 0 -33 33z" />
<glyph unicode="p" horiz-adv-x="927" d="M2 18q0 33 35 33q33 0 33 -33t-33 -32q-35 0 -35 32zM2 -115q0 35 35 35q33 0 33 -35q0 -33 -33 -32q-35 0 -35 32zM2 150q0 35 35 34q33 1 33 -34q0 -33 -33 -33q-35 0 -35 33zM2 -246q0 33 35 33q33 0 33 -33t-33 -33q-35 0 -35 33zM2 283q0 33 35 32q33 1 33 -32 t-33 -33q-35 0 -35 33zM2 416q0 33 35 33q33 0 33 -33q0 -35 -33 -35q-35 0 -35 35zM2 547q0 33 35 33q33 0 33 -33t-33 -33q-35 0 -35 33zM2 680q0 33 35 33q33 0 33 -33q0 -35 -33 -35q-35 0 -35 35zM2 811q0 33 35 33q33 0 33 -33t-33 -33q-35 0 -35 33zM2 944 q0 33 35 33q33 0 33 -33q0 -35 -33 -35q-35 0 -35 35zM4 -379q0 33 33 33t33 -33t-33 -33t-33 33zM127 811q0 33 35 33q33 0 33 -33t-33 -33q-35 0 -35 33zM133 281q0 33 33 32q33 1 33 -32t-33 -33t-33 33zM266 944q0 33 35 33q33 0 33 -33q0 -35 -33 -35q-35 0 -35 35z M270 145q0 33 33 33q35 0 35 -33q0 -32 -33 -32h-2q-33 0 -33 32zM399 944q0 33 33 33t33 -33q0 -35 -33 -35t-33 35zM403 145q0 33 33 33t33 -33q0 -32 -31 -32h-2q-33 0 -33 32zM530 150q0 35 33 34q33 1 33 -34q0 -33 -33 -33t-33 33zM530 811q0 33 35 33q33 0 33 -33 t-33 -33q-35 0 -35 33zM696 315q33 1 33 -32t-33 -33q-32 0 -32 31q0 35 32 34zM696 449q33 0 33 -33q0 -35 -33 -35q-32 0 -32 33q0 35 32 35zM696 580q33 0 33 -33t-33 -33q-32 0 -32 31q0 35 32 35zM696 713q33 0 33 -33q0 -35 -33 -35q-32 0 -32 33q0 35 32 35z" />
<glyph unicode="q" horiz-adv-x="927" d="M4 276q0 33 33 33t33 -33t-33 -32q-33 0 -33 32zM4 410q0 33 33 32q33 1 33 -32t-33 -33t-33 33zM4 541q0 33 33 32q33 1 33 -32t-33 -33t-33 33zM4 674q0 33 33 33t33 -33t-33 -33t-33 33zM137 145q0 33 33 33t33 -33t-33 -32q-33 0 -33 32zM137 805q0 33 33 33t33 -33 t-33 -33t-33 33zM264 139q0 33 33 33t33 -33t-33 -33t-33 33zM268 938q0 33 33 33t33 -33t-33 -33t-33 33zM397 139q0 33 33 33t33 -33t-33 -33t-33 33zM401 938q0 33 33 33t33 -33t-33 -33t-33 33zM535 274q0 35 32 35q33 0 33 -35q0 -33 -33 -32q-33 0 -32 32zM573 838 q33 0 33 -33t-33 -33q-32 0 -32 31q0 35 32 35zM698 -352q33 0 33 -33t-33 -33q-34 0 -34 31q0 35 34 35zM666 12q0 33 32 33q33 0 33 -33t-33 -32q-33 0 -32 32zM698 -86q33 0 33 -33t-33 -33q-32 0 -32 31q0 35 32 35zM666 145q0 33 32 33q33 0 33 -33t-33 -32 q-33 0 -32 32zM698 -219q33 0 33 -33t-33 -33q-32 0 -32 31q0 35 32 35zM666 276q0 33 32 33q33 0 33 -33q0 -32 -31 -32h-2q-33 0 -32 32zM698 442q33 1 33 -32t-33 -33q-32 0 -32 31q0 35 32 34zM698 573q33 1 33 -32t-33 -33q-32 0 -32 31q0 35 32 34zM698 707 q33 0 33 -33t-33 -33q-32 0 -32 31q0 35 32 35zM698 838q33 0 33 -33t-33 -33q-32 0 -32 31q0 35 32 35zM698 971q33 0 33 -33t-33 -33q-32 0 -32 31q0 35 32 35z" />
<glyph unicode="r" horiz-adv-x="927" d="M-23 18q0 33 33 33t33 -33q0 -32 -31 -32h-2q-33 0 -33 32zM-23 152q0 33 33 32q33 1 33 -32q0 -35 -33 -35t-33 35zM-23 283q0 33 33 32q33 1 33 -32t-33 -33t-33 33zM-23 416q0 33 33 33t33 -33q0 -35 -33 -35t-33 35zM-23 547q0 33 33 33t33 -33t-33 -33t-33 33z M-23 680q0 33 33 33t33 -33t-33 -33t-33 33zM-23 811q0 33 33 33t33 -33t-33 -33t-33 33zM-23 944q0 33 33 33t33 -33t-33 -33t-33 33zM102 811q0 33 33 33t33 -33t-33 -33t-33 33zM274 977q33 0 33 -33t-33 -33q-32 0 -32 31q0 35 32 35zM375 944q0 33 33 33q32 0 32 -33 t-32 -33q-33 0 -33 33zM506 811q0 33 33 33q32 0 32 -33t-32 -33q-33 0 -33 33zM639 680q0 33 33 33t33 -33t-33 -33t-33 33z" />
<glyph unicode="s" horiz-adv-x="792" d="M0 152q0 33 33 32q33 1 33 -32t-33 -33t-33 33zM0 285q0 33 33 32q33 1 33 -32t-33 -33t-33 33zM0 680q0 33 33 33t33 -33t-33 -33t-33 33zM0 813q0 33 33 33t33 -33t-33 -33t-33 33zM133 20q0 33 33 33t33 -33q0 -32 -31 -32h-2q-33 0 -33 32zM133 549q0 33 33 33 t33 -33t-33 -33t-33 33zM133 944q0 33 33 33t33 -33t-33 -33t-33 33zM264 20q0 33 33 33t33 -33q0 -32 -31 -32h-2q-33 0 -33 32zM264 549q0 33 33 33t33 -33t-33 -33t-33 33zM264 944q0 33 33 33t33 -33t-33 -33t-33 33zM397 20q0 33 33 33t33 -33q0 -32 -31 -32h-2 q-33 0 -33 32zM397 416q0 33 33 33t33 -33t-33 -33t-33 33zM397 944q0 33 33 33t33 -33t-33 -33t-33 33zM528 152q0 33 33 32q33 1 33 -32t-33 -33t-33 33zM528 285q0 33 33 32q33 1 33 -32t-33 -33t-33 33zM528 813q0 33 33 33t33 -33t-33 -33t-33 33z" />
<glyph unicode="t" horiz-adv-x="792" d="M0 1208q0 33 33 33t33 -33t-33 -32q-33 0 -33 32zM133 1208q0 33 33 33t33 -33t-33 -32q-33 0 -33 32zM264 20q0 33 33 33t33 -33q0 -32 -31 -32h-2q-33 0 -33 32zM264 152q0 33 33 32q33 1 33 -32t-33 -33t-33 33zM264 285q0 33 33 32q33 1 33 -32t-33 -33t-33 33z M264 416q0 33 33 33t33 -33t-33 -33t-33 33zM264 549q0 33 33 33t33 -33t-33 -33t-33 33zM264 680q0 33 33 33t33 -33t-33 -33t-33 33zM264 813q0 33 33 33t33 -33t-33 -33t-33 33zM264 944q0 33 33 33t33 -33t-33 -33t-33 33zM264 1077q0 33 33 33t33 -33t-33 -33t-33 33z M264 1208q0 33 33 33t33 -33q0 -32 -31 -32h-2q-33 0 -33 32zM264 1341q0 33 33 33t33 -33t-33 -32q-33 0 -33 32zM264 1473q0 34 31 34h2h2q31 0 31 -34q0 -33 -33 -33t-33 33zM397 1208q0 33 33 33t33 -33q0 -32 -31 -32h-2q-33 0 -33 32zM528 1208q0 33 33 33t33 -33 q0 -32 -31 -32h-2q-33 0 -33 32z" />
<glyph unicode="u" horiz-adv-x="931" d="M8 279q0 33 33 32q33 1 33 -32t-33 -33t-33 33zM8 412q0 33 33 32q33 1 33 -32t-33 -33t-33 33zM8 543q0 33 33 32q33 1 33 -32t-33 -33t-33 33zM8 676q0 33 33 33t33 -33t-33 -33t-33 33zM8 807q0 33 33 33t33 -33t-33 -33t-33 33zM8 940q0 33 33 33t33 -33t-33 -33 t-33 33zM139 147q0 33 35 33q33 0 33 -33t-33 -32q-35 0 -35 32zM272 14q0 33 33 33t33 -33q0 -32 -31 -32h-2q-33 0 -33 32zM403 14q0 33 35 33q33 0 33 -33q0 -32 -31 -32h-2q-35 0 -35 32zM537 147q0 33 32 33q33 0 33 -33t-33 -32q-33 0 -32 32zM668 14q0 33 34 33 q33 0 33 -33q0 -32 -31 -32h-2q-35 0 -34 32zM668 147q0 33 34 33q33 0 33 -33q0 -32 -31 -32h-2q-35 0 -34 32zM702 311q33 1 33 -32t-33 -33q-34 0 -34 31q0 35 34 34zM702 444q33 1 33 -32t-33 -33q-34 0 -34 31q0 35 34 34zM702 575q33 1 33 -32t-33 -33q-34 0 -34 31 q0 35 34 34zM702 709q33 0 33 -33t-33 -33q-34 0 -34 31q0 35 34 35zM702 840q33 0 33 -33t-33 -33q-34 0 -34 31q0 35 34 35zM702 973q33 0 33 -33t-33 -33q-34 0 -34 31q0 35 34 35z" />
<glyph unicode="v" horiz-adv-x="788" d="M0 416q0 33 33 33t33 -33t-33 -33t-33 33zM0 549q0 33 33 33t33 -33t-33 -33t-33 33zM0 680q0 33 33 33t33 -33t-33 -33t-33 33zM0 813q0 33 33 33t33 -33t-33 -33t-33 33zM0 944q0 33 33 33t33 -33t-33 -33t-33 33zM133 152q0 33 33 32q33 1 33 -32t-33 -33t-33 33z M133 285q0 33 33 32q33 1 33 -32t-33 -33t-33 33zM264 20q0 33 33 33t33 -33q0 -32 -31 -32h-2q-33 0 -33 32zM397 152q0 33 33 32q33 1 33 -32t-33 -33t-33 33zM397 285q0 33 33 32q33 1 33 -32t-33 -33t-33 33zM528 416q0 33 33 33t33 -33t-33 -33t-33 33zM528 549 q0 33 33 33t33 -33t-33 -33t-33 33zM528 680q0 33 33 33t33 -33t-33 -33t-33 33zM528 813q0 33 33 33t33 -33t-33 -33t-33 33zM528 944q0 33 33 33t33 -33t-33 -33t-33 33z" />
<glyph unicode="w" horiz-adv-x="1323" d="M0 416q0 33 33 33t33 -33t-33 -33t-33 33zM0 549q0 33 33 33t33 -33t-33 -33t-33 33zM0 680q0 33 33 33t33 -33t-33 -33t-33 33zM0 813q0 33 33 33t33 -33t-33 -33t-33 33zM0 944q0 33 33 33t33 -33t-33 -33t-33 33zM133 152q0 33 33 32q33 1 33 -32t-33 -33t-33 33z M133 285q0 33 33 32q33 1 33 -32t-33 -33t-33 33zM264 20q0 33 33 33t33 -33t-33 -32q-33 0 -33 32zM397 152q0 33 33 32q33 1 33 -32t-33 -33t-33 33zM397 285q0 33 33 32q33 1 33 -32t-33 -33t-33 33zM528 416q0 33 33 33h2q31 0 31 -33t-33 -33t-33 33zM528 549 q0 33 33 33h2q31 0 31 -33t-33 -33t-33 33zM528 680q0 33 33 33h2q31 0 31 -33t-33 -33t-33 33zM528 813q0 33 33 33h2q31 0 31 -33t-33 -33t-33 33zM528 944q0 33 33 33h2q31 0 31 -33t-33 -33t-33 33zM696 184q33 1 33 -32t-33 -33q-32 0 -32 31q0 35 32 34zM696 317 q33 1 33 -32q0 -35 -33 -35q-32 0 -32 33q0 35 32 34zM795 18q0 35 32 35q33 0 33 -35q0 -32 -31 -32h-2q-33 0 -32 32zM928 152q0 33 33 32q32 1 32 -32t-32 -33q-33 0 -33 33zM928 285q0 33 33 32q32 1 32 -32q0 -35 -32 -35q-33 0 -33 35zM1059 416q0 33 33 33 q34 0 34 -33t-34 -33q-33 0 -33 33zM1059 549q0 33 33 33q34 0 34 -33q0 -35 -34 -35q-33 0 -33 35zM1059 680q0 33 33 33q34 0 34 -33t-34 -33q-33 0 -33 33zM1059 813q0 33 33 33q34 0 34 -33q0 -35 -34 -35q-33 0 -33 35zM1059 944q0 33 33 33q34 0 34 -33t-34 -33 q-33 0 -33 33z" />
<glyph unicode="x" horiz-adv-x="1062" d="M27 20q0 33 32 33q33 0 33 -33q0 -32 -31 -32h-2q-33 0 -32 32zM59 977q33 0 33 -33t-33 -33q-32 0 -32 31q0 35 32 35zM160 152q0 33 33 32q32 1 32 -32t-32 -33q-33 0 -33 33zM160 813q0 33 33 33q32 0 32 -33t-32 -33q-33 0 -33 33zM291 680q0 33 33 33q32 0 32 -33 t-32 -33q-33 0 -33 33zM293 283q0 33 33 32q32 1 32 -32t-32 -33q-33 0 -33 33zM424 549q0 33 33 33q32 0 32 -33t-32 -33q-33 0 -33 33zM426 416q0 33 33 33t33 -33t-33 -33t-33 33zM555 281q0 33 33 32q33 1 33 -32q0 -35 -33 -35t-33 35zM555 680q0 33 33 33t33 -33 t-33 -33t-33 33zM688 147q0 33 33 33t33 -33t-33 -32q-33 0 -33 32zM688 813q0 33 33 33t33 -33t-33 -33t-33 33zM819 20q0 33 33 33t33 -33q0 -32 -31 -32h-2q-33 0 -33 32zM819 944q0 33 33 33t33 -33t-33 -33t-33 33z" />
<glyph unicode="y" horiz-adv-x="927" d="M0 -244q0 33 33 33t33 -33t-33 -32q-33 0 -33 32zM0 285q0 33 33 32q33 1 33 -32t-33 -33t-33 33zM0 416q0 33 33 33t33 -33t-33 -33t-33 33zM0 549q0 33 33 33t33 -33t-33 -33t-33 33zM0 680q0 33 33 33t33 -33t-33 -33t-33 33zM0 813q0 33 33 33t33 -33t-33 -33t-33 33 zM0 944q0 33 33 33t33 -33t-33 -33t-33 33zM133 152q0 33 33 32q33 1 33 -32t-33 -33t-33 33zM133 -377q0 33 33 33t33 -33t-33 -33t-33 33zM260 147q0 33 33 33t33 -33q0 -35 -33 -34q-33 0 -33 34zM264 -377q0 33 33 33t33 -33t-33 -33t-33 33zM393 147q0 33 33 33t33 -33 q0 -35 -33 -34q-33 0 -33 34zM397 -377q0 33 33 33t33 -33t-33 -33t-33 33zM528 -377q0 33 33 33t33 -33t-33 -33t-33 33zM530 283q0 33 33 32q33 1 33 -32t-33 -33t-33 33zM662 20q0 33 32 33q33 0 33 -33t-33 -32q-33 0 -32 32zM662 -113q0 33 32 33q33 0 33 -33t-33 -32 q-33 0 -32 32zM694 184q33 1 33 -32t-33 -33q-32 0 -32 31q0 35 32 34zM662 -244q0 33 32 33q33 0 33 -33q0 -32 -31 -32h-2q-33 0 -32 32zM694 317q33 1 33 -32t-33 -33q-32 0 -32 31q0 35 32 34zM694 449q33 0 33 -33t-33 -33q-32 0 -32 31q0 35 32 35zM694 582 q33 0 33 -33t-33 -33q-32 0 -32 31q0 35 32 35zM694 713q33 0 33 -33t-33 -33q-32 0 -32 31q0 35 32 35zM694 846q33 0 33 -33t-33 -33q-32 0 -32 31q0 35 32 35zM694 977q33 0 33 -33t-33 -33q-32 0 -32 31q0 35 32 35z" />
<glyph unicode="z" horiz-adv-x="1058" d="M0 20q0 33 33 33t33 -33q0 -32 -31 -32h-2q-33 0 -33 32zM0 944q0 33 33 33t33 -33t-33 -33t-33 33zM133 20q0 33 33 33t33 -33q0 -32 -31 -32h-2q-33 0 -33 32zM133 152q0 33 33 32q33 1 33 -32t-33 -33t-33 33zM133 944q0 33 33 33t33 -33t-33 -33t-33 33zM264 20 q0 33 33 33t33 -33q0 -32 -31 -32h-2q-33 0 -33 32zM264 285q0 33 33 32q33 1 33 -32t-33 -33t-33 33zM264 944q0 33 33 33t33 -33t-33 -33t-33 33zM397 20q0 33 33 33t33 -33q0 -32 -31 -32h-2q-33 0 -33 32zM397 416q0 33 33 33t33 -33t-33 -33t-33 33zM397 944 q0 33 33 33t33 -33t-33 -33t-33 33zM528 20q0 33 33 33t33 -33q0 -32 -31 -32h-2q-33 0 -33 32zM528 549q0 33 33 33t33 -33t-33 -33t-33 33zM528 944q0 33 33 33t33 -33t-33 -33t-33 33zM662 20q0 33 32 33q33 0 33 -33q0 -32 -31 -32h-2q-33 0 -32 32zM694 713 q33 0 33 -33t-33 -33q-32 0 -32 31q0 35 32 35zM694 977q33 0 33 -33t-33 -33q-32 0 -32 31q0 35 32 35zM793 20q0 33 32 33q33 0 33 -33q0 -32 -31 -32h-2q-33 0 -32 32zM825 846q33 0 33 -33t-33 -33q-32 0 -32 31q0 35 32 35zM825 977q33 0 33 -33t-33 -33q-32 0 -32 31 q0 35 32 35z" />
<glyph unicode="{" horiz-adv-x="659" d="M4 811q0 33 33 33t33 -33t-33 -33t-33 33zM133 285q0 33 33 32q33 1 33 -32t-33 -33t-33 33zM133 412q0 33 33 32q33 1 33 -32t-33 -33t-33 33zM133 545q0 33 33 33t33 -33q0 -35 -33 -35t-33 35zM133 676q0 33 33 33t33 -33t-33 -33t-33 33zM133 940q0 33 33 33t33 -33 t-33 -33t-33 33zM133 1073q0 33 33 33t33 -33q0 -35 -33 -35t-33 35zM133 1204q0 33 33 33t33 -33t-33 -33t-33 33zM133 1341q0 33 33 33t33 -33t-33 -32q-33 0 -33 32zM264 152q0 33 33 32q33 1 33 -32t-33 -33t-33 33zM264 1473q0 35 33 34q33 1 33 -34q0 -33 -33 -33 t-33 33zM397 20q0 33 33 33t33 -33t-33 -32q-33 0 -33 32zM401 1604q0 35 33 34q33 1 33 -34q0 -33 -33 -33t-33 33z" />
<glyph unicode="|" horiz-adv-x="260" d="M0 20q0 33 33 33t33 -33t-33 -32q-33 0 -33 32zM0 152q0 33 33 32q33 1 33 -32t-33 -33t-33 33zM0 285q0 33 33 32q33 1 33 -32t-33 -33t-33 33zM0 416q0 33 33 33t33 -33t-33 -33t-33 33zM0 549q0 33 33 33t33 -33t-33 -33t-33 33zM0 680q0 33 33 33t33 -33t-33 -33 t-33 33zM0 813q0 33 33 33t33 -33t-33 -33t-33 33zM0 944q0 33 33 33t33 -33t-33 -33t-33 33zM0 1077q0 33 33 33t33 -33t-33 -33t-33 33zM0 1208q0 33 33 33t33 -33t-33 -32q-33 0 -33 32zM0 1341q0 33 33 33t33 -33t-33 -32q-33 0 -33 32zM0 1473q0 35 33 34q33 1 33 -34 q0 -33 -33 -33t-33 33zM0 1606q0 33 33 32q33 1 33 -32t-33 -33t-33 33z" />
<glyph unicode="}" horiz-adv-x="659" d="M127 1604q0 35 33 34q33 1 33 -34q0 -33 -33 -33t-33 33zM131 20q0 33 33 33t33 -33t-33 -32q-33 0 -33 32zM264 152q0 33 33 32q33 1 33 -32t-33 -33t-33 33zM264 1473q0 35 33 34q33 1 33 -34q0 -33 -33 -33t-33 33zM395 285q0 33 33 32q33 1 33 -32t-33 -33t-33 33z M395 412q0 33 33 32q33 1 33 -32t-33 -33t-33 33zM395 545q0 33 33 33t33 -33q0 -35 -33 -35t-33 35zM395 676q0 33 33 33t33 -33t-33 -33t-33 33zM395 940q0 33 33 33t33 -33t-33 -33t-33 33zM395 1073q0 33 33 33t33 -33q0 -35 -33 -35t-33 35zM395 1204q0 33 33 33 t33 -33t-33 -33t-33 33zM395 1341q0 33 33 33t33 -33t-33 -32q-33 0 -33 32zM524 811q0 33 33 33t33 -33t-33 -33t-33 33z" />
<glyph unicode="~" horiz-adv-x="790" d="M133 1208q0 33 33 33t33 -33t-33 -32q-33 0 -33 32zM264 1341q0 33 33 33t33 -33t-33 -32q-33 0 -33 32zM397 1208q0 33 33 33t33 -33t-33 -32q-33 0 -33 32zM528 1341q0 33 33 33t33 -33t-33 -32q-33 0 -33 32z" />
<glyph unicode="&#xa1;" horiz-adv-x="198" d="M6 20q0 33 33 33t33 -33t-33 -32q-33 0 -33 32zM6 -113q0 35 33 35t33 -35q0 -33 -33 -32q-33 0 -33 32zM6 152q0 35 33 34q33 1 33 -34q0 -33 -33 -33t-33 33zM6 -244q0 33 33 33t33 -33t-33 -32q-33 0 -33 32zM6 285q0 33 33 32q33 1 33 -32t-33 -33t-33 33zM6 -377 q0 35 33 35t33 -35q0 -33 -33 -33t-33 33zM6 418q0 33 33 33t33 -33q0 -35 -33 -35t-33 35zM6 549q0 33 33 33t33 -33t-33 -33t-33 33zM6 682q0 33 33 33t33 -33q0 -35 -33 -35t-33 35zM6 1077q0 33 33 33t33 -33t-33 -33t-33 33z" />
<glyph unicode="&#xa2;" horiz-adv-x="800" d="M0 285q0 33 33 32q33 1 33 -32t-33 -33t-33 33zM0 416q0 33 33 33t33 -33t-33 -33t-33 33zM6 541q0 33 33 32q33 1 33 -32t-33 -33t-33 33zM133 152q0 33 33 32q33 1 33 -32t-33 -33t-33 33zM137 672q0 33 33 33q35 0 35 -33t-35 -33q-33 0 -33 33zM268 424q0 33 33 33 t33 -33t-33 -33t-33 33zM270 31q0 33 33 32q33 1 33 -32t-33 -33t-33 33zM270 -102q0 35 33 34q33 1 33 -34q0 -33 -33 -33t-33 33zM270 164q0 33 33 33t33 -33q0 -35 -33 -35t-33 35zM270 295q0 33 33 33t33 -33t-33 -33t-33 33zM274 547q0 33 33 33t33 -33t-33 -33t-33 33 zM274 680q0 33 33 33t33 -33t-33 -33t-33 33zM274 815q0 33 35 33q33 0 33 -33t-33 -33q-35 0 -35 33zM397 674q0 33 33 33t33 -33t-33 -33t-33 33zM406 147q0 33 32 33q35 0 35 -33t-35 -32q-33 0 -32 32zM528 543q0 33 33 32q33 1 33 -32t-33 -33t-33 33zM539 281 q0 33 32 32q33 1 33 -32t-33 -33t-32 33z" />
<glyph unicode="&#xa3;" horiz-adv-x="929" d="M-457 989zM-4 807q0 33 33 33q32 0 32 -33t-32 -33q-33 0 -33 33zM-2 1343q0 33 33 33q32 0 32 -33t-32 -32q-33 0 -33 32zM0 20q0 33 33 33t33 -33t-33 -32q-33 0 -33 32zM4 1212q0 33 33 33t33 -33t-33 -32q-33 0 -33 32zM129 809q0 33 35 33q33 0 33 -33t-33 -33 q-35 0 -35 33zM129 1079q0 33 33 33t33 -33t-33 -32q-33 0 -33 32zM129 1475q0 33 33 32q33 1 33 -32t-33 -33t-33 33zM131 156q0 33 33 32q33 1 33 -32t-33 -33t-33 33zM133 20q0 33 33 33t33 -33t-33 -32q-33 0 -33 32zM135 281q0 33 33 32q33 1 33 -32q0 -35 -33 -35 t-33 35zM135 412q0 33 33 32q33 1 33 -32t-33 -33t-33 33zM135 545q0 33 33 33t33 -33t-33 -33t-33 33zM135 676q0 33 33 33t33 -33t-33 -33t-33 33zM135 940q0 33 33 33t33 -33t-33 -33t-33 33zM264 20q0 33 33 33t33 -33t-33 -32q-33 0 -33 32zM264 807q0 35 33 35 q35 0 35 -35q0 -33 -35 -33q-33 0 -33 33zM264 1608q0 33 33 32q33 1 33 -32t-33 -33t-33 33zM395 809q0 33 33 33t33 -33t-33 -33t-33 33zM397 20q0 33 33 33t33 -33t-33 -32q-33 0 -33 32zM397 1604q0 33 35 32q33 1 33 -32t-33 -33q-35 0 -35 33zM528 20q0 33 33 33 t33 -33t-33 -32q-33 0 -33 32zM528 1475q0 33 33 32q33 1 33 -32t-33 -33t-33 33zM532 801q0 33 33 33t33 -33t-33 -33t-33 33zM657 1343q0 33 33 33t33 -33t-33 -32q-33 0 -33 32zM662 20q0 33 32 33q33 0 33 -33t-33 -32q-33 0 -32 32z" />
<glyph unicode="&#xa5;" d="M2 418q0 33 33 33t33 -33q0 -35 -33 -35t-33 35zM2 682q0 33 33 33t33 -33q0 -35 -33 -35t-33 35zM2 1337q0 35 33 35q35 0 35 -35q0 -33 -35 -32q-33 0 -33 32zM133 418q0 33 35 33q33 0 33 -33q0 -35 -33 -35q-35 0 -35 35zM133 682q0 33 35 33q33 0 33 -33 q0 -35 -33 -35q-35 0 -35 35zM135 1073q0 33 33 33t33 -33t-33 -33t-33 33zM135 1206q0 33 33 33t33 -33t-33 -32q-33 0 -33 32zM266 418q0 33 33 33t33 -33q0 -35 -33 -35t-33 35zM266 682q0 33 33 33t33 -33q0 -35 -33 -35t-33 35zM266 809q0 33 33 33q35 0 35 -33 t-35 -33q-33 0 -33 33zM266 942q0 33 33 33q35 0 35 -33t-35 -33q-33 0 -33 33zM397 20q0 33 33 33t33 -33t-33 -32q-33 0 -33 32zM399 150q0 33 33 32q33 1 33 -32t-33 -33t-33 33zM399 281q0 33 33 32q33 1 33 -32t-33 -33t-33 33zM399 414q0 33 33 32q33 1 33 -32 t-33 -33t-33 33zM399 545q0 33 33 33t33 -33t-33 -33t-33 33zM399 678q0 33 33 33t33 -33t-33 -33t-33 33zM530 418q0 33 33 33t33 -33q0 -35 -33 -35t-33 35zM530 682q0 33 33 33t33 -33q0 -35 -33 -35t-33 35zM530 809q0 33 33 33q35 0 35 -33t-35 -33q-33 0 -33 33z M530 942q0 33 33 33q35 0 35 -33t-35 -33q-33 0 -33 33zM664 418q0 33 32 33q33 0 33 -33q0 -35 -33 -35t-32 35zM664 682q0 33 32 33q33 0 33 -33q0 -35 -33 -35t-32 35zM664 1073q0 33 32 33q33 0 33 -33t-33 -33t-32 33zM664 1206q0 33 32 33q33 0 33 -33t-33 -32 q-33 0 -32 32zM795 418q0 33 32 33q33 0 33 -33q0 -35 -33 -35t-32 35zM795 682q0 33 32 33q33 0 33 -33q0 -35 -33 -35t-32 35zM795 1337q0 35 34 35q33 0 33 -35q0 -33 -33 -32q-35 0 -34 32z" />
<glyph unicode="&#xa6;" horiz-adv-x="268" d="M0 20q0 33 33 33t33 -33t-33 -32q-33 0 -33 32zM0 152q0 33 33 32q33 1 33 -32t-33 -33t-33 33zM0 285q0 33 33 32q33 1 33 -32t-33 -33t-33 33zM0 416q0 33 33 33t33 -33t-33 -33t-33 33zM0 549q0 33 33 33t33 -33t-33 -33t-33 33zM0 944q0 33 33 33t33 -33t-33 -33 t-33 33zM0 1077q0 33 33 33t33 -33t-33 -33t-33 33zM0 1208q0 33 33 33t33 -33t-33 -32q-33 0 -33 32zM0 1341q0 33 33 33t33 -33t-33 -32q-33 0 -33 32zM0 1473q0 35 33 34q33 1 33 -34q0 -33 -33 -33t-33 33z" />
<glyph unicode="&#xa7;" horiz-adv-x="792" d="M0 152q0 33 33 32q33 1 33 -32t-33 -33t-33 33zM0 285q0 33 33 32q33 1 33 -32t-33 -33t-33 33zM0 680q0 33 33 33t33 -33t-33 -33t-33 33zM0 813q0 33 33 33t33 -33t-33 -33t-33 33zM0 1208q0 33 33 33t33 -33t-33 -32q-33 0 -33 32zM0 1341q0 33 33 33t33 -33t-33 -32 q-33 0 -33 32zM133 20q0 33 33 33t33 -33t-33 -32q-33 0 -33 32zM133 549q0 33 33 33t33 -33t-33 -33t-33 33zM133 944q0 33 33 33t33 -33t-33 -33t-33 33zM133 1077q0 33 33 33t33 -33t-33 -33t-33 33zM133 1473q0 33 33 32q33 1 33 -32t-33 -33t-33 33zM264 20q0 33 33 33 t33 -33t-33 -32q-33 0 -33 32zM264 549q0 33 33 33t33 -33t-33 -33t-33 33zM264 944q0 33 33 33t33 -33t-33 -33t-33 33zM264 1473q0 33 33 32q33 1 33 -32t-33 -33t-33 33zM397 20q0 33 33 33t33 -33t-33 -32q-33 0 -33 32zM397 416q0 33 33 33t33 -33t-33 -33t-33 33z M397 549q0 33 33 33t33 -33t-33 -33t-33 33zM397 944q0 33 33 33t33 -33t-33 -33t-33 33zM397 1473q0 33 33 32q33 1 33 -32t-33 -33t-33 33zM528 152q0 33 33 32q33 1 33 -32t-33 -33t-33 33zM528 285q0 33 33 32q33 1 33 -32t-33 -33t-33 33zM528 680q0 33 33 33t33 -33 t-33 -33t-33 33zM528 813q0 33 33 33t33 -33t-33 -33t-33 33zM528 1341q0 33 33 33t33 -33t-33 -32q-33 0 -33 32z" />
<glyph unicode="&#xa8;" horiz-adv-x="530" d="M0 1473q0 33 33 32q33 1 33 -32t-33 -33t-33 33zM264 1473q0 33 33 32q33 1 33 -32t-33 -33t-33 33z" />
<glyph unicode="&#xa9;" horiz-adv-x="1185" d="M793 152q0 33 34 32q33 1 33 -32t-33 -33q-35 0 -34 33zM797 819q0 35 32 35q33 0 33 -35q0 -33 -33 -33t-32 33zM926 287q0 33 32 32q33 1 33 -32t-33 -33t-32 33zM926 420q0 33 32 33q33 0 33 -33t-33 -33t-32 33zM926 551q0 33 32 33q33 0 33 -33t-33 -33t-32 33z M926 684q0 33 32 33q33 0 33 -33t-33 -33t-32 33z" />
<glyph unicode="&#xab;" horiz-adv-x="792" d="M0 680q0 33 33 33t33 -33t-33 -33t-33 33zM131 809q0 33 33 33t33 -33t-33 -33t-33 33zM133 549q0 33 33 33t33 -33t-33 -33t-33 33zM264 416q0 33 33 33t33 -33t-33 -33t-33 33zM264 680q0 33 33 33t33 -33t-33 -33t-33 33zM264 944q0 33 33 33t33 -33t-33 -33t-33 33z M395 545q0 33 33 33t33 -33t-33 -33t-33 33zM395 809q0 33 33 33t33 -33t-33 -33t-33 33zM528 416q0 33 33 33t33 -33t-33 -33t-33 33zM528 944q0 33 33 33t33 -33t-33 -33t-33 33z" />
<glyph unicode="&#xad;" horiz-adv-x="532" d="M6 541q0 33 33 32q33 1 33 -32t-33 -33t-33 33zM139 541q0 33 33 32q33 1 33 -32t-33 -33t-33 33zM270 541q0 33 33 32q33 1 33 -32t-33 -33t-33 33z" />
<glyph unicode="&#xaf;" horiz-adv-x="526" />
<glyph unicode="&#xb0;" horiz-adv-x="659" d="M0 1341q0 33 33 33t33 -33t-33 -32q-33 0 -33 32zM2 1198q0 33 33 33t33 -33t-33 -33t-33 33zM133 1077q0 33 33 33t33 -33t-33 -33t-33 33zM133 1473q0 35 33 34q33 1 33 -34q0 -33 -33 -33t-33 33zM264 1077q0 33 33 33t33 -33t-33 -33t-33 33zM266 1466q0 33 33 33 t33 -33t-33 -32q-33 0 -33 32zM395 1208q0 33 33 33t33 -33t-33 -32q-33 0 -33 32zM397 1341q0 33 33 33t33 -33t-33 -32q-33 0 -33 32z" />
<glyph unicode="&#xb4;" horiz-adv-x="393" />
<glyph unicode="&#xb6;" horiz-adv-x="694" d="M2 1337q0 33 33 33q35 0 35 -33t-35 -32q-33 0 -33 32zM135 20q0 33 33 33t33 -33t-33 -32q-33 0 -33 32zM135 152q0 33 33 32q33 1 33 -32t-33 -33t-33 33zM135 285q0 33 33 32q33 1 33 -32t-33 -33t-33 33zM135 416q0 33 33 33t33 -33t-33 -33t-33 33zM135 549 q0 33 33 33t33 -33t-33 -33t-33 33zM135 1196q0 33 33 33t33 -33t-33 -33t-33 33zM137 676q0 33 33 33q35 0 35 -33t-35 -33q-33 0 -33 33zM137 809q0 33 33 33q35 0 35 -33t-35 -33q-33 0 -33 33zM137 940q0 33 33 33q35 0 35 -33t-35 -33q-33 0 -33 33zM137 1073 q0 33 33 33q35 0 35 -33t-35 -33q-33 0 -33 33zM137 1468q0 33 33 33q35 0 35 -33t-35 -32q-33 0 -33 32zM266 1196q0 33 33 33q35 0 35 -33t-35 -33q-33 0 -33 33zM266 1466q0 33 33 33q35 0 35 -33t-35 -32q-33 0 -33 32zM399 1196q0 33 33 33t33 -33t-33 -33t-33 33z M399 1466q0 33 33 33t33 -33t-33 -32q-33 0 -33 32zM526 20q0 33 33 33t33 -33t-33 -32q-33 0 -33 32zM526 152q0 33 33 32q33 1 33 -32t-33 -33t-33 33zM526 285q0 33 33 32q33 1 33 -32t-33 -33t-33 33zM526 416q0 33 33 33t33 -33t-33 -33t-33 33zM526 549q0 33 33 33 t33 -33t-33 -33t-33 33zM526 1200q0 33 33 33t33 -33t-33 -33t-33 33zM528 676q0 33 33 33t33 -33t-33 -33t-33 33zM528 809q0 33 33 33t33 -33t-33 -33t-33 33zM528 940q0 33 33 33t33 -33t-33 -33t-33 33zM528 1073q0 33 33 33t33 -33t-33 -33t-33 33zM528 1337 q0 33 33 33t33 -33t-33 -32q-33 0 -33 32zM528 1468q0 33 33 33t33 -33t-33 -32q-33 0 -33 32z" />
<glyph unicode="&#xb7;" horiz-adv-x="264" />
<glyph unicode="&#xb8;" horiz-adv-x="401" d="M0 -113q0 33 33 33t33 -33t-33 -32q-33 0 -33 32zM0 -377q0 33 33 33t33 -33t-33 -33t-33 33zM133 -244q0 33 33 33t33 -33t-33 -32q-33 0 -33 32z" />
<glyph unicode="&#xbb;" horiz-adv-x="792" d="M0 418q0 33 33 33t33 -33t-33 -33t-33 33zM0 946q0 33 33 33t33 -33t-33 -33t-33 33zM133 547q0 33 33 33t33 -33t-33 -33t-33 33zM133 811q0 33 33 33t33 -33t-33 -33t-33 33zM264 418q0 33 33 33t33 -33t-33 -33t-33 33zM264 682q0 33 33 33t33 -33t-33 -33t-33 33z M264 946q0 33 33 33t33 -33t-33 -33t-33 33zM395 549q0 35 33 35q35 0 35 -35q0 -33 -35 -33q-33 0 -33 33zM397 811q0 33 33 33t33 -33t-33 -33t-33 33zM528 682q0 33 33 33t33 -33t-33 -33t-33 33z" />
<glyph unicode="&#xbc;" horiz-adv-x="1058" d="M-2 809q0 33 35 33q33 0 33 -33t-33 -33q-35 0 -35 33zM131 809q0 33 33 33t33 -33t-33 -33t-33 33zM133 285q0 33 33 32q33 1 33 -32t-33 -33t-33 33zM264 285q0 33 33 32q33 1 33 -32t-33 -33t-33 33zM264 416q0 33 33 33t33 -33t-33 -33t-33 33zM264 813q0 33 33 33 t33 -33t-33 -33t-33 33zM264 1341q0 33 33 33t33 -33t-33 -32q-33 0 -33 32zM395 412q0 35 33 34q33 1 33 -34q0 -33 -33 -33t-33 33zM395 545q0 33 33 33t33 -33t-33 -33t-33 33zM395 809q0 33 33 33t33 -33t-33 -33t-33 33zM395 1073q0 33 33 33t33 -33t-33 -33t-33 33z M395 1208q0 33 33 33t33 -33t-33 -32q-33 0 -33 32zM397 20q0 33 33 33t33 -33t-33 -32q-33 0 -33 32zM397 152q0 33 33 32q33 1 33 -32t-33 -33t-33 33zM397 285q0 33 33 32q33 1 33 -32t-33 -33t-33 33zM397 1341q0 33 33 33t33 -33t-33 -32q-33 0 -33 32zM397 1473 q0 35 33 34q33 1 33 -34q0 -33 -33 -33t-33 33zM528 285q0 33 33 32q33 1 33 -32t-33 -33t-33 33zM528 809q0 33 33 33t33 -33t-33 -33t-33 33zM659 809q0 33 33 33t33 -33t-33 -33t-33 33zM791 817q0 33 32 33q33 0 33 -33t-33 -33t-32 33z" />
<glyph unicode="&#xbd;" horiz-adv-x="1058" d="M-2 809q0 33 35 33q33 0 33 -33t-33 -33q-35 0 -35 33zM131 809q0 33 33 33t33 -33t-33 -33t-33 33zM264 20q0 33 33 33t33 -33t-33 -32q-33 0 -33 32zM264 416q0 33 33 33t33 -33t-33 -33t-33 33zM264 813q0 33 33 33t33 -33t-33 -33t-33 33zM264 1341q0 33 33 33 t33 -33t-33 -32q-33 0 -33 32zM395 545q0 33 33 33t33 -33t-33 -33t-33 33zM395 809q0 33 33 33t33 -33t-33 -33t-33 33zM395 1073q0 33 33 33t33 -33t-33 -33t-33 33zM395 1208q0 33 33 33t33 -33t-33 -32q-33 0 -33 32zM397 20q0 33 33 33t33 -33t-33 -32q-33 0 -33 32z M397 152q0 33 33 32q33 1 33 -32t-33 -33t-33 33zM397 1341q0 33 33 33t33 -33t-33 -32q-33 0 -33 32zM397 1473q0 35 33 34q33 1 33 -34q0 -33 -33 -33t-33 33zM528 20q0 33 33 33t33 -33t-33 -32q-33 0 -33 32zM528 285q0 33 33 32q33 1 33 -32t-33 -33t-33 33zM528 809 q0 33 33 33t33 -33t-33 -33t-33 33zM535 416q0 33 32 33q33 0 33 -33t-33 -33t-32 33zM659 809q0 33 33 33t33 -33t-33 -33t-33 33zM791 817q0 33 32 33q33 0 33 -33t-33 -33t-32 33z" />
<glyph unicode="&#xbe;" horiz-adv-x="1058" d="M-2 809q0 33 35 33q33 0 33 -33t-33 -33q-35 0 -35 33zM131 809q0 33 33 33t33 -33t-33 -33t-33 33zM133 285q0 33 33 32q33 1 33 -32t-33 -33t-33 33zM262 1081q0 33 33 33t33 -33t-33 -32q-33 0 -33 32zM264 285q0 33 33 32q33 1 33 -32t-33 -33t-33 33zM264 416 q0 33 33 33t33 -33t-33 -33t-33 33zM264 813q0 33 33 33t33 -33t-33 -33t-33 33zM266 1604q0 33 33 32q33 1 33 -32t-33 -33t-33 33zM395 412q0 35 33 34q33 1 33 -34q0 -33 -33 -33t-33 33zM395 545q0 33 33 33t33 -33t-33 -33t-33 33zM395 809q0 33 33 33t33 -33t-33 -33 t-33 33zM395 1073q0 33 33 33t33 -33t-33 -33t-33 33zM397 20q0 33 33 33t33 -33t-33 -32q-33 0 -33 32zM397 152q0 33 33 32q33 1 33 -32t-33 -33t-33 33zM397 285q0 33 33 32q33 1 33 -32t-33 -33t-33 33zM397 1341q0 33 33 33t33 -33t-33 -32q-33 0 -33 32zM397 1606 q0 33 33 32q33 1 33 -32t-33 -33t-33 33zM528 285q0 33 33 32q33 1 33 -32t-33 -33t-33 33zM528 809q0 33 33 33t33 -33t-33 -33t-33 33zM528 1208q0 33 33 33t33 -33t-33 -32q-33 0 -33 32zM528 1473q0 35 33 34q33 1 33 -34q0 -33 -33 -33t-33 33zM532 1604q0 33 33 32 q33 1 33 -32t-33 -33t-33 33zM659 809q0 33 33 33t33 -33t-33 -33t-33 33zM791 817q0 33 32 33q33 0 33 -33t-33 -33t-32 33z" />
<glyph unicode="&#xbf;" d="M-2 276q0 35 35 35q33 0 33 -35q0 -33 -33 -32q-35 0 -35 32zM-2 410q0 33 35 32q33 1 33 -32t-33 -33q-35 0 -35 33zM-2 543q0 33 35 32q33 1 33 -32q0 -35 -33 -35q-35 0 -35 35zM131 145q0 33 33 33t33 -33t-33 -32q-33 0 -33 32zM131 674q0 33 33 33t33 -33t-33 -33 t-33 33zM262 12q0 35 35 35q33 0 33 -35q0 -33 -33 -32q-35 0 -35 32zM262 807q0 33 35 33q33 0 33 -33q0 -35 -33 -35q-35 0 -35 35zM395 12q0 35 33 35t33 -35q0 -33 -33 -32q-33 0 -33 32zM397 936q0 33 33 33t33 -33t-33 -33t-33 33zM397 1067q0 35 33 35t33 -35 q0 -33 -33 -33t-33 33zM397 1464q0 33 33 33t33 -33t-33 -32q-33 0 -33 32zM526 12q0 35 35 35q33 0 33 -35q0 -33 -33 -32q-35 0 -35 32zM659 145q0 33 33 33t33 -33t-33 -32q-33 0 -33 32zM793 276q0 35 32 35q33 0 33 -35q0 -33 -33 -32q-33 0 -32 32zM793 410 q0 33 32 32q33 1 33 -32t-33 -33t-32 33z" />
<glyph unicode="&#xc0;" horiz-adv-x="925" d="M-2 543q0 33 33 32q35 1 35 -32t-35 -33q-33 0 -33 33zM-2 676q0 33 33 33q35 0 35 -33t-35 -33q-33 0 -33 33zM-2 807q0 33 33 33q35 0 35 -33t-35 -33q-33 0 -33 33zM-2 940q0 33 33 33q35 0 35 -33t-35 -33q-33 0 -33 33zM-2 1071q0 33 33 33q35 0 35 -33t-35 -33 q-33 0 -33 33zM-2 1204q0 33 33 33q35 0 35 -33t-35 -33q-33 0 -33 33zM0 18q0 33 33 33t33 -33t-33 -32q-33 0 -33 32zM0 150q0 33 33 32q33 1 33 -32t-33 -33t-33 33zM0 283q0 33 33 32q33 1 33 -32t-33 -33t-33 33zM0 414q0 33 33 32q33 1 33 -32t-33 -33t-33 33z M131 676q0 33 33 33t33 -33t-33 -33t-33 33zM131 1339q0 33 33 33t33 -33t-33 -32q-33 0 -33 32zM262 676q0 33 33 33q35 0 35 -33t-35 -33q-33 0 -33 33zM262 1339q0 33 33 33t33 -33t-33 -32q-33 0 -33 32zM264 1606q0 33 33 32q33 1 33 -32t-33 -33t-33 33zM395 676 q0 33 33 33t33 -33t-33 -33t-33 33zM395 1339q0 33 33 33t33 -33t-33 -32q-33 0 -33 32zM397 1473q0 35 33 34q33 1 33 -34q0 -33 -33 -33t-33 33zM526 676q0 33 33 33q35 0 35 -33t-35 -33q-33 0 -33 33zM526 1339q0 33 33 33t33 -33t-33 -32q-33 0 -33 32zM659 543 q0 33 33 32q33 1 33 -32t-33 -33t-33 33zM659 676q0 33 33 33t33 -33t-33 -33t-33 33zM659 807q0 33 33 33t33 -33t-33 -33t-33 33zM659 940q0 33 33 33t33 -33t-33 -33t-33 33zM659 1071q0 33 33 33t33 -33t-33 -33t-33 33zM659 1204q0 33 33 33t33 -33t-33 -33t-33 33z M662 18q0 33 32 33q33 0 33 -33t-33 -32q-33 0 -32 32zM662 150q0 33 32 32q33 1 33 -32t-33 -33t-32 33zM662 283q0 33 32 32q33 1 33 -32t-33 -33t-32 33zM662 414q0 33 32 32q33 1 33 -32t-33 -33t-32 33z" />
<glyph unicode="&#xc1;" horiz-adv-x="925" d="M-2 543q0 33 33 32q35 1 35 -32t-35 -33q-33 0 -33 33zM-2 676q0 33 33 33q35 0 35 -33t-35 -33q-33 0 -33 33zM-2 807q0 33 33 33q35 0 35 -33t-35 -33q-33 0 -33 33zM-2 940q0 33 33 33q35 0 35 -33t-35 -33q-33 0 -33 33zM-2 1071q0 33 33 33q35 0 35 -33t-35 -33 q-33 0 -33 33zM-2 1204q0 33 33 33q35 0 35 -33t-35 -33q-33 0 -33 33zM0 18q0 33 33 33t33 -33t-33 -32q-33 0 -33 32zM0 150q0 33 33 32q33 1 33 -32t-33 -33t-33 33zM0 283q0 33 33 32q33 1 33 -32t-33 -33t-33 33zM0 414q0 33 33 32q33 1 33 -32t-33 -33t-33 33z M131 676q0 33 33 33t33 -33t-33 -33t-33 33zM131 1339q0 33 33 33t33 -33t-33 -32q-33 0 -33 32zM262 676q0 33 33 33q35 0 35 -33t-35 -33q-33 0 -33 33zM262 1339q0 33 33 33t33 -33t-33 -32q-33 0 -33 32zM270 1473q0 35 33 34q33 1 33 -34q0 -33 -33 -33t-33 33z M395 676q0 33 33 33t33 -33t-33 -33t-33 33zM395 1339q0 33 33 33t33 -33t-33 -32q-33 0 -33 32zM403 1606q0 33 33 32q33 1 33 -32t-33 -33t-33 33zM526 676q0 33 33 33q35 0 35 -33t-35 -33q-33 0 -33 33zM526 1339q0 33 33 33t33 -33t-33 -32q-33 0 -33 32zM659 543 q0 33 33 32q33 1 33 -32t-33 -33t-33 33zM659 676q0 33 33 33t33 -33t-33 -33t-33 33zM659 807q0 33 33 33t33 -33t-33 -33t-33 33zM659 940q0 33 33 33t33 -33t-33 -33t-33 33zM659 1071q0 33 33 33t33 -33t-33 -33t-33 33zM659 1204q0 33 33 33t33 -33t-33 -33t-33 33z M662 18q0 33 32 33q33 0 33 -33t-33 -32q-33 0 -32 32zM662 150q0 33 32 32q33 1 33 -32t-33 -33t-32 33zM662 283q0 33 32 32q33 1 33 -32t-33 -33t-32 33zM662 414q0 33 32 32q33 1 33 -32t-33 -33t-32 33z" />
<glyph unicode="&#xc2;" horiz-adv-x="925" d="M-2 412q0 33 33 32q35 1 35 -32t-35 -33q-33 0 -33 33zM-2 545q0 33 33 33q35 0 35 -33t-35 -33q-33 0 -33 33zM-2 676q0 33 33 33q35 0 35 -33t-35 -33q-33 0 -33 33zM-2 809q0 33 33 33q35 0 35 -33t-35 -33q-33 0 -33 33zM-2 940q0 33 33 33q35 0 35 -33t-35 -33 q-33 0 -33 33zM-2 1073q0 33 33 33q35 0 35 -33t-35 -33q-33 0 -33 33zM0 18q0 33 33 33t33 -33t-33 -32q-33 0 -33 32zM0 150q0 33 33 32q33 1 33 -32t-33 -33t-33 33zM0 283q0 33 33 32q33 1 33 -32t-33 -33t-33 33zM131 545q0 33 33 33t33 -33t-33 -33t-33 33zM131 1208 q0 33 33 33t33 -33t-33 -32q-33 0 -33 32zM139 1477q0 33 33 32q33 1 33 -32t-33 -33t-33 33zM262 545q0 33 33 33q35 0 35 -33t-35 -33q-33 0 -33 33zM262 1208q0 33 33 33t33 -33t-33 -32q-33 0 -33 32zM270 1610q0 33 33 32q35 1 35 -32q0 -35 -35 -35q-33 0 -33 35z M395 545q0 33 33 33t33 -33t-33 -33t-33 33zM395 1208q0 33 33 33t33 -33t-33 -32q-33 0 -33 32zM397 1473q0 35 33 34q33 1 33 -34q0 -33 -33 -33t-33 33zM526 545q0 33 33 33q35 0 35 -33t-35 -33q-33 0 -33 33zM526 1208q0 33 33 33t33 -33t-33 -32q-33 0 -33 32z M659 412q0 33 33 32q33 1 33 -32t-33 -33t-33 33zM659 545q0 33 33 33t33 -33t-33 -33t-33 33zM659 676q0 33 33 33t33 -33t-33 -33t-33 33zM659 809q0 33 33 33t33 -33t-33 -33t-33 33zM659 940q0 33 33 33t33 -33t-33 -33t-33 33zM659 1073q0 33 33 33t33 -33t-33 -33 t-33 33zM662 18q0 33 32 33q33 0 33 -33t-33 -32q-33 0 -32 32zM662 150q0 33 32 32q33 1 33 -32t-33 -33t-32 33zM662 283q0 33 32 32q33 1 33 -32t-33 -33t-32 33z" />
<glyph unicode="&#xc3;" horiz-adv-x="925" d="M-2 412q0 33 33 32q35 1 35 -32t-35 -33q-33 0 -33 33zM-2 545q0 33 33 33q35 0 35 -33t-35 -33q-33 0 -33 33zM-2 676q0 33 33 33q35 0 35 -33t-35 -33q-33 0 -33 33zM-2 809q0 33 33 33q35 0 35 -33t-35 -33q-33 0 -33 33zM-2 940q0 33 33 33q35 0 35 -33t-35 -33 q-33 0 -33 33zM-2 1073q0 33 33 33q35 0 35 -33t-35 -33q-33 0 -33 33zM0 18q0 33 33 33t33 -33t-33 -32q-33 0 -33 32zM0 150q0 33 33 32q33 1 33 -32t-33 -33t-33 33zM0 283q0 33 33 32q33 1 33 -32t-33 -33t-33 33zM131 545q0 33 33 33t33 -33t-33 -33t-33 33zM131 1208 q0 33 33 33t33 -33t-33 -32q-33 0 -33 32zM139 1477q0 33 33 32q33 1 33 -32t-33 -33t-33 33zM262 545q0 33 33 33q35 0 35 -33t-35 -33q-33 0 -33 33zM262 1208q0 33 33 33t33 -33t-33 -32q-33 0 -33 32zM270 1610q0 33 33 32q35 1 35 -32q0 -35 -35 -35q-33 0 -33 35z M395 545q0 33 33 33t33 -33t-33 -33t-33 33zM395 1208q0 33 33 33t33 -33t-33 -32q-33 0 -33 32zM397 1473q0 35 33 34q33 1 33 -34q0 -33 -33 -33t-33 33zM526 545q0 33 33 33q35 0 35 -33t-35 -33q-33 0 -33 33zM526 1208q0 33 33 33t33 -33t-33 -32q-33 0 -33 32z M528 1606q0 33 33 32q33 1 33 -32t-33 -33t-33 33zM659 412q0 33 33 32q33 1 33 -32t-33 -33t-33 33zM659 545q0 33 33 33t33 -33t-33 -33t-33 33zM659 676q0 33 33 33t33 -33t-33 -33t-33 33zM659 809q0 33 33 33t33 -33t-33 -33t-33 33zM659 940q0 33 33 33t33 -33 t-33 -33t-33 33zM659 1073q0 33 33 33t33 -33t-33 -33t-33 33zM662 18q0 33 32 33q33 0 33 -33t-33 -32q-33 0 -32 32zM662 150q0 33 32 32q33 1 33 -32t-33 -33t-32 33zM662 283q0 33 32 32q33 1 33 -32t-33 -33t-32 33z" />
<glyph unicode="&#xc4;" horiz-adv-x="925" d="M-2 543q0 33 33 32q35 1 35 -32t-35 -33q-33 0 -33 33zM-2 676q0 33 33 33q35 0 35 -33t-35 -33q-33 0 -33 33zM-2 807q0 33 33 33q35 0 35 -33t-35 -33q-33 0 -33 33zM-2 940q0 33 33 33q35 0 35 -33t-35 -33q-33 0 -33 33zM-2 1071q0 33 33 33q35 0 35 -33t-35 -33 q-33 0 -33 33zM-2 1204q0 33 33 33q35 0 35 -33t-35 -33q-33 0 -33 33zM0 18q0 33 33 33t33 -33t-33 -32q-33 0 -33 32zM0 150q0 33 33 32q33 1 33 -32t-33 -33t-33 33zM0 283q0 33 33 32q33 1 33 -32t-33 -33t-33 33zM0 414q0 33 33 32q33 1 33 -32t-33 -33t-33 33z M131 676q0 33 33 33t33 -33t-33 -33t-33 33zM131 1339q0 33 33 33t33 -33t-33 -32q-33 0 -33 32zM133 1606q0 33 33 32q33 1 33 -32t-33 -33t-33 33zM262 676q0 33 33 33q35 0 35 -33t-35 -33q-33 0 -33 33zM262 1339q0 33 33 33t33 -33t-33 -32q-33 0 -33 32zM395 676 q0 33 33 33t33 -33t-33 -33t-33 33zM395 1339q0 33 33 33t33 -33t-33 -32q-33 0 -33 32zM526 676q0 33 33 33q35 0 35 -33t-35 -33q-33 0 -33 33zM526 1339q0 33 33 33t33 -33t-33 -32q-33 0 -33 32zM535 1606q0 33 32 32q33 1 33 -32t-33 -33t-32 33zM659 543q0 33 33 32 q33 1 33 -32t-33 -33t-33 33zM659 676q0 33 33 33t33 -33t-33 -33t-33 33zM659 807q0 33 33 33t33 -33t-33 -33t-33 33zM659 940q0 33 33 33t33 -33t-33 -33t-33 33zM659 1071q0 33 33 33t33 -33t-33 -33t-33 33zM659 1204q0 33 33 33t33 -33t-33 -33t-33 33zM662 18 q0 33 32 33q33 0 33 -33t-33 -32q-33 0 -32 32zM662 150q0 33 32 32q33 1 33 -32t-33 -33t-32 33zM662 283q0 33 32 32q33 1 33 -32t-33 -33t-32 33zM662 414q0 33 32 32q33 1 33 -32t-33 -33t-32 33z" />
<glyph unicode="&#xc5;" horiz-adv-x="925" d="M-2 412q0 33 33 32q35 1 35 -32t-35 -33q-33 0 -33 33zM-2 545q0 33 33 33q35 0 35 -33t-35 -33q-33 0 -33 33zM-2 676q0 33 33 33q35 0 35 -33t-35 -33q-33 0 -33 33zM-2 809q0 33 33 33q35 0 35 -33t-35 -33q-33 0 -33 33zM-2 940q0 33 33 33q35 0 35 -33t-35 -33 q-33 0 -33 33zM-2 1073q0 33 33 33q35 0 35 -33t-35 -33q-33 0 -33 33zM0 18q0 33 33 33t33 -33t-33 -32q-33 0 -33 32zM0 150q0 33 33 32q33 1 33 -32t-33 -33t-33 33zM0 283q0 33 33 32q33 1 33 -32t-33 -33t-33 33zM131 545q0 33 33 33t33 -33t-33 -33t-33 33zM131 1208 q0 33 33 33t33 -33t-33 -32q-33 0 -33 32zM139 1477q0 33 33 32q33 1 33 -32t-33 -33t-33 33zM262 545q0 33 33 33q35 0 35 -33t-35 -33q-33 0 -33 33zM262 1208q0 33 33 33t33 -33t-33 -32q-33 0 -33 32zM264 1341q0 33 33 33t33 -33t-33 -32q-33 0 -33 32zM270 1610 q0 33 33 32q35 1 35 -32q0 -35 -35 -35q-33 0 -33 35zM395 545q0 33 33 33t33 -33t-33 -33t-33 33zM395 1208q0 33 33 33t33 -33t-33 -32q-33 0 -33 32zM397 1473q0 35 33 34q33 1 33 -34q0 -33 -33 -33t-33 33zM526 545q0 33 33 33q35 0 35 -33t-35 -33q-33 0 -33 33z M526 1208q0 33 33 33t33 -33t-33 -32q-33 0 -33 32zM659 412q0 33 33 32q33 1 33 -32t-33 -33t-33 33zM659 545q0 33 33 33t33 -33t-33 -33t-33 33zM659 676q0 33 33 33t33 -33t-33 -33t-33 33zM659 809q0 33 33 33t33 -33t-33 -33t-33 33zM659 940q0 33 33 33t33 -33 t-33 -33t-33 33zM659 1073q0 33 33 33t33 -33t-33 -33t-33 33zM662 18q0 33 32 33q33 0 33 -33t-33 -32q-33 0 -32 32zM662 150q0 33 32 32q33 1 33 -32t-33 -33t-32 33zM662 283q0 33 32 32q33 1 33 -32t-33 -33t-32 33z" />
<glyph unicode="&#xc6;" horiz-adv-x="1585" d="M0 18q0 33 33 33t33 -33t-33 -32q-33 0 -33 32zM0 150q0 33 33 32q33 1 33 -32t-33 -33t-33 33zM0 283q0 33 33 32q33 1 33 -32t-33 -33t-33 33zM0 414q0 33 33 32q33 1 33 -32t-33 -33t-33 33zM0 547q0 33 33 33t33 -33t-33 -33t-33 33zM0 678q0 35 33 35t33 -35 q0 -33 -33 -33t-33 33zM0 811q0 33 33 33t33 -33t-33 -33t-33 33zM0 942q0 35 33 35t33 -35q0 -33 -33 -33t-33 33zM0 1075q0 33 33 33t33 -33t-33 -33t-33 33zM0 1206q0 35 33 35t33 -35q0 -33 -33 -32q-33 0 -33 32zM0 1339q0 33 33 33t33 -33t-33 -32q-33 0 -33 32z M131 1475q0 33 33 32q35 1 35 -32t-35 -33q-33 0 -33 33zM133 811q0 33 33 33t33 -33t-33 -33t-33 33zM264 811q0 33 33 33t33 -33t-33 -33t-33 33zM264 1475q0 33 33 32q33 1 33 -32t-33 -33t-33 33zM395 1475q0 33 33 32q35 1 35 -32t-35 -33q-33 0 -33 33zM397 811 q0 33 33 33t33 -33t-33 -33t-33 33zM528 811q0 33 33 33t33 -33t-33 -33t-33 33zM528 1475q0 33 33 32q33 1 33 -32t-33 -33t-33 33zM659 23q0 33 33 32q23 0 31 -16q4 -9 4 -21q0 -33 -33 -32q-20 0 -27.5 10t-7.5 27zM659 154q0 33 33 32q23 0 31 -16q4 -8 4 -20 q0 -33 -33 -33q-23 0 -30 16q-4 8 -5 21zM659 287q0 33 33 32q23 0 31 -16q4 -8 4 -20q0 -33 -33 -33q-20 0 -27.5 10t-7.5 27zM659 418q0 33 33 33q23 0 31 -17q4 -8 4 -20q0 -33 -33 -33q-23 0 -30 16q-4 8 -5 21zM659 551q0 33 33 33q23 0 31 -17q4 -8 4 -20 q0 -33 -33 -33q-23 0 -30 16q-4 8 -5 21zM662 18q0 -12 7 -21t23 -9q33 0 33 35q0 10 -2 16q-8 12 -29 12q-33 0 -32 -33zM662 283q0 -12 7 -21.5t23 -9.5q33 0 33 35q0 10 -2 16q-8 12 -29 12q-33 0 -32 -32zM662 942v2q0 33 32 33q33 0 33 -33v-2q0 -33 -33 -33t-32 33z M662 1206v2q0 33 32 33q33 0 33 -33v-2q0 -33 -33 -32q-33 0 -32 32zM662 1473q0 33 32 32q33 1 33 -32q0 -35 -33 -35t-32 35zM791 23q0 33 34 32q33 1 33 -32q0 -35 -33 -35q-35 0 -34 35zM795 811q0 33 32 33q33 0 33 -33t-33 -33t-32 33zM795 1473q0 33 32 32 q33 1 33 -32q0 -35 -33 -35t-32 35zM924 23q0 33 32 32q33 1 33 -32q0 -35 -33 -35t-32 35zM926 811q0 33 32 33q35 0 35 -33t-35 -33q-33 0 -32 33zM926 1473q0 33 32 32q35 1 35 -32q0 -35 -35 -35q-33 0 -32 35zM1057 23q0 33 33 32q32 1 32 -32q0 -35 -32 -35 q-33 0 -33 35zM1059 811q0 33 33 33q32 0 32 -33t-32 -33q-33 0 -33 33zM1059 1473q0 33 33 32q32 1 32 -32q0 -35 -32 -35q-33 0 -33 35zM1188 23q0 33 33 32q32 1 32 -32q0 -35 -32 -35q-33 0 -33 35zM1190 811q0 33 33 33q34 0 34 -33t-34 -33q-33 0 -33 33zM1190 1473 q0 33 33 32q34 1 34 -32q0 -35 -34 -35q-33 0 -33 35zM1321 23q0 33 33 32q32 1 32 -32q0 -35 -32 -35q-33 0 -33 35zM1323 811q0 33 33 33t33 -33t-33 -33t-33 33zM1323 1473q0 33 33 32q33 1 33 -32q0 -35 -33 -35t-33 35z" />
<glyph unicode="&#xc7;" horiz-adv-x="1056" d="M0 285q0 33 33 32q33 1 33 -32t-33 -33t-33 33zM0 416q0 33 33 33t33 -33t-33 -33t-33 33zM0 549q0 33 33 33t33 -33t-33 -33t-33 33zM0 680q0 33 33 33t33 -33t-33 -33t-33 33zM2 815q0 33 33 33t33 -33q0 -35 -33 -35t-33 35zM2 946q0 33 33 33t33 -33t-33 -33t-33 33z M2 1079q0 33 33 33t33 -33q0 -35 -33 -35t-33 35zM2 1210q0 33 33 33t33 -33t-33 -32q-33 0 -33 32zM133 152q0 33 33 32q33 1 33 -32t-33 -33t-33 33zM133 1343q0 33 33 33q35 0 35 -33t-35 -32q-33 0 -33 32zM264 20q0 33 33 33t33 -33t-33 -32q-33 0 -33 32zM266 1475 q0 33 33 32q33 1 33 -32t-33 -33t-33 33zM397 20q0 33 33 33t33 -33t-33 -32q-33 0 -33 32zM397 -113q0 33 33 33t33 -33t-33 -32q-33 0 -33 32zM397 -377q0 33 33 33t33 -33t-33 -33t-33 33zM397 1475q0 33 33 32q35 1 35 -32t-35 -33q-33 0 -33 33zM528 20q0 33 33 33 t33 -33t-33 -32q-33 0 -33 32zM528 -244q0 33 33 33t33 -33t-33 -32q-33 0 -33 32zM530 1475q0 33 33 32q33 1 33 -32t-33 -33t-33 33zM662 152q0 33 32 32q33 1 33 -32t-33 -33t-32 33zM662 1343q0 33 32 33q35 0 35 -33t-35 -32q-33 0 -32 32zM793 285q0 33 32 32 q33 1 33 -32t-33 -33t-32 33zM793 416q0 33 32 33q33 0 33 -33t-33 -33t-32 33zM795 1210q0 33 32 33q33 0 33 -33t-33 -32q-33 0 -32 32z" />
<glyph unicode="&#xc8;" horiz-adv-x="927" d="M-2 944q0 33 33 33q35 0 35 -33t-35 -33q-33 0 -33 33zM-2 1077q0 33 33 33q35 0 35 -33q0 -35 -35 -35q-33 0 -33 35zM-2 1208q0 33 33 33q35 0 35 -33t-35 -32q-33 0 -33 32zM0 20q0 33 33 33t33 -33t-33 -32q-33 0 -33 32zM0 152q0 33 33 32q33 1 33 -32t-33 -33 t-33 33zM0 285q0 33 33 32q33 1 33 -32t-33 -33t-33 33zM6 414q0 33 33 32q33 1 33 -32t-33 -33t-33 33zM8 543q0 33 33 32q33 1 33 -32q0 -35 -33 -35t-33 35zM8 674q0 33 33 33t33 -33t-33 -33t-33 33zM8 807q0 33 33 33t33 -33t-33 -33t-33 33zM131 1208q0 33 33 33 t33 -33t-33 -32q-33 0 -33 32zM133 20q0 33 33 33t33 -33t-33 -32q-33 0 -33 32zM139 674q0 33 33 33q35 0 35 -33t-35 -33q-33 0 -33 33zM262 1208q0 33 33 33q35 0 35 -33t-35 -32q-33 0 -33 32zM264 20q0 33 33 33t33 -33t-33 -32q-33 0 -33 32zM264 1606q0 33 33 32 q33 1 33 -32t-33 -33t-33 33zM272 674q0 33 33 33t33 -33t-33 -33t-33 33zM395 1208q0 33 33 33t33 -33t-33 -32q-33 0 -33 32zM397 20q0 33 33 33t33 -33t-33 -32q-33 0 -33 32zM397 1473q0 35 33 34q33 1 33 -34q0 -33 -33 -33t-33 33zM403 674q0 33 33 33q35 0 35 -33 t-35 -33q-33 0 -33 33zM526 1208q0 33 33 33q35 0 35 -33t-35 -32q-33 0 -33 32zM528 20q0 33 33 33t33 -33t-33 -32q-33 0 -33 32zM537 674q0 33 32 33q33 0 33 -33t-33 -33t-32 33zM659 1208q0 33 33 33t33 -33t-33 -32q-33 0 -33 32zM662 20q0 33 32 33q33 0 33 -33 t-33 -32q-33 0 -32 32zM668 674q0 33 34 33q33 0 33 -33t-33 -33q-35 0 -34 33z" />
<glyph unicode="&#xc9;" horiz-adv-x="927" d="M-2 944q0 33 33 33q35 0 35 -33t-35 -33q-33 0 -33 33zM-2 1077q0 33 33 33q35 0 35 -33q0 -35 -35 -35q-33 0 -33 35zM-2 1208q0 33 33 33q35 0 35 -33t-35 -32q-33 0 -33 32zM0 20q0 33 33 33t33 -33t-33 -32q-33 0 -33 32zM0 152q0 33 33 32q33 1 33 -32t-33 -33 t-33 33zM0 285q0 33 33 32q33 1 33 -32t-33 -33t-33 33zM6 414q0 33 33 32q33 1 33 -32t-33 -33t-33 33zM8 543q0 33 33 32q33 1 33 -32q0 -35 -33 -35t-33 35zM8 674q0 33 33 33t33 -33t-33 -33t-33 33zM8 807q0 33 33 33t33 -33t-33 -33t-33 33zM131 1208q0 33 33 33 t33 -33t-33 -32q-33 0 -33 32zM133 20q0 33 33 33t33 -33t-33 -32q-33 0 -33 32zM139 674q0 33 33 33q35 0 35 -33t-35 -33q-33 0 -33 33zM262 1208q0 33 33 33q35 0 35 -33t-35 -32q-33 0 -33 32zM264 20q0 33 33 33t33 -33t-33 -32q-33 0 -33 32zM264 1473q0 35 33 34 q33 1 33 -34q0 -33 -33 -33t-33 33zM272 674q0 33 33 33t33 -33t-33 -33t-33 33zM395 1208q0 33 33 33t33 -33t-33 -32q-33 0 -33 32zM397 20q0 33 33 33t33 -33t-33 -32q-33 0 -33 32zM397 1606q0 33 33 32q33 1 33 -32t-33 -33t-33 33zM403 674q0 33 33 33q35 0 35 -33 t-35 -33q-33 0 -33 33zM526 1208q0 33 33 33q35 0 35 -33t-35 -32q-33 0 -33 32zM528 20q0 33 33 33t33 -33t-33 -32q-33 0 -33 32zM537 674q0 33 32 33q33 0 33 -33t-33 -33t-32 33zM659 1208q0 33 33 33t33 -33t-33 -32q-33 0 -33 32zM662 20q0 33 32 33q33 0 33 -33 t-33 -32q-33 0 -32 32zM668 674q0 33 34 33q33 0 33 -33t-33 -33q-35 0 -34 33z" />
<glyph unicode="&#xca;" horiz-adv-x="927" d="M-2 944q0 33 33 33q35 0 35 -33t-35 -33q-33 0 -33 33zM-2 1077q0 33 33 33q35 0 35 -33q0 -35 -35 -35q-33 0 -33 35zM-2 1208q0 33 33 33q35 0 35 -33t-35 -32q-33 0 -33 32zM0 20q0 33 33 33t33 -33t-33 -32q-33 0 -33 32zM0 152q0 33 33 32q33 1 33 -32t-33 -33 t-33 33zM0 285q0 33 33 32q33 1 33 -32t-33 -33t-33 33zM6 414q0 33 33 32q33 1 33 -32t-33 -33t-33 33zM8 543q0 33 33 32q33 1 33 -32q0 -35 -33 -35t-33 35zM8 674q0 33 33 33t33 -33t-33 -33t-33 33zM8 807q0 33 33 33t33 -33t-33 -33t-33 33zM131 1208q0 33 33 33 t33 -33t-33 -32q-33 0 -33 32zM133 20q0 33 33 33t33 -33t-33 -32q-33 0 -33 32zM139 674q0 33 33 33q35 0 35 -33t-35 -33q-33 0 -33 33zM262 1208q0 33 33 33q35 0 35 -33t-35 -32q-33 0 -33 32zM264 20q0 33 33 33t33 -33t-33 -32q-33 0 -33 32zM264 1473q0 35 33 34 q33 1 33 -34q0 -33 -33 -33t-33 33zM272 674q0 33 33 33t33 -33t-33 -33t-33 33zM395 1208q0 33 33 33t33 -33t-33 -32q-33 0 -33 32zM397 20q0 33 33 33t33 -33t-33 -32q-33 0 -33 32zM397 1606q0 33 33 32q33 1 33 -32t-33 -33t-33 33zM403 674q0 33 33 33q35 0 35 -33 t-35 -33q-33 0 -33 33zM526 1208q0 33 33 33q35 0 35 -33t-35 -32q-33 0 -33 32zM528 20q0 33 33 33t33 -33t-33 -32q-33 0 -33 32zM528 1473q0 35 33 34q33 1 33 -34q0 -33 -33 -33t-33 33zM537 674q0 33 32 33q33 0 33 -33t-33 -33t-32 33zM659 1208q0 33 33 33t33 -33 t-33 -32q-33 0 -33 32zM662 20q0 33 32 33q33 0 33 -33t-33 -32q-33 0 -32 32zM668 674q0 33 34 33q33 0 33 -33t-33 -33q-35 0 -34 33z" />
<glyph unicode="&#xcb;" horiz-adv-x="927" d="M-2 944q0 33 33 33q35 0 35 -33t-35 -33q-33 0 -33 33zM-2 1077q0 33 33 33q35 0 35 -33q0 -35 -35 -35q-33 0 -33 35zM-2 1208q0 33 33 33q35 0 35 -33t-35 -32q-33 0 -33 32zM0 20q0 33 33 33t33 -33t-33 -32q-33 0 -33 32zM0 152q0 33 33 32q33 1 33 -32t-33 -33 t-33 33zM0 285q0 33 33 32q33 1 33 -32t-33 -33t-33 33zM6 414q0 33 33 32q33 1 33 -32t-33 -33t-33 33zM8 543q0 33 33 32q33 1 33 -32q0 -35 -33 -35t-33 35zM8 674q0 33 33 33t33 -33t-33 -33t-33 33zM8 807q0 33 33 33t33 -33t-33 -33t-33 33zM131 1208q0 33 33 33 t33 -33t-33 -32q-33 0 -33 32zM133 20q0 33 33 33t33 -33t-33 -32q-33 0 -33 32zM133 1473q0 33 33 32q33 1 33 -32t-33 -33t-33 33zM139 674q0 33 33 33q35 0 35 -33t-35 -33q-33 0 -33 33zM262 1208q0 33 33 33q35 0 35 -33t-35 -32q-33 0 -33 32zM264 20q0 33 33 33 t33 -33t-33 -32q-33 0 -33 32zM272 674q0 33 33 33t33 -33t-33 -33t-33 33zM395 1208q0 33 33 33t33 -33t-33 -32q-33 0 -33 32zM397 20q0 33 33 33t33 -33t-33 -32q-33 0 -33 32zM403 674q0 33 33 33q35 0 35 -33t-35 -33q-33 0 -33 33zM526 1208q0 33 33 33q35 0 35 -33 t-35 -32q-33 0 -33 32zM528 20q0 33 33 33t33 -33t-33 -32q-33 0 -33 32zM528 1473q0 35 33 34q33 1 33 -34q0 -33 -33 -33t-33 33zM537 674q0 33 32 33q33 0 33 -33t-33 -33t-32 33zM659 1208q0 33 33 33t33 -33t-33 -32q-33 0 -33 32zM662 20q0 33 32 33q33 0 33 -33 t-33 -32q-33 0 -32 32zM668 674q0 33 34 33q33 0 33 -33t-33 -33q-35 0 -34 33z" />
<glyph unicode="&#xcc;" horiz-adv-x="403" d="M0 1606q0 33 33 32q33 1 33 -32t-33 -33t-33 33zM133 1473q0 35 33 34q33 1 33 -34q0 -33 -33 -33t-33 33zM137 23q0 33 33 32q33 1 33 -32t-33 -33t-33 33zM137 154q0 33 33 32q33 1 33 -32t-33 -33t-33 33zM137 287q0 33 33 32q33 1 33 -32t-33 -33t-33 33zM137 418 q0 33 33 33t33 -33t-33 -33t-33 33zM137 551q0 33 33 33t33 -33t-33 -33t-33 33zM137 682q0 35 33 35t33 -35q0 -33 -33 -33t-33 33zM137 815q0 33 33 33t33 -33t-33 -33t-33 33zM137 946q0 35 33 35t33 -35q0 -33 -33 -33t-33 33zM137 1079q0 33 33 33t33 -33t-33 -32 q-33 0 -33 32zM137 1210q0 35 33 35t33 -35q0 -33 -33 -32q-33 0 -33 32z" />
<glyph unicode="&#xcd;" horiz-adv-x="395" d="M0 1473q0 33 33 32q33 1 33 -32t-33 -33t-33 33zM4 23q0 33 33 32q33 1 33 -32t-33 -33t-33 33zM4 154q0 33 33 32q33 1 33 -32t-33 -33t-33 33zM4 287q0 33 33 32q33 1 33 -32t-33 -33t-33 33zM4 418q0 33 33 33t33 -33t-33 -33t-33 33zM4 551q0 33 33 33t33 -33 t-33 -33t-33 33zM4 682q0 33 33 33t33 -33t-33 -33t-33 33zM4 815q0 33 33 33t33 -33t-33 -33t-33 33zM4 946q0 33 33 33t33 -33t-33 -33t-33 33zM4 1079q0 33 33 33t33 -33t-33 -32q-33 0 -33 32zM4 1210q0 33 33 33t33 -33t-33 -32q-33 0 -33 32zM129 1599q0 33 33 33 t33 -33t-33 -32q-33 0 -33 32z" />
<glyph unicode="&#xce;" horiz-adv-x="528" d="M0 1473q0 35 33 34q33 1 33 -34q0 -33 -33 -33t-33 33zM133 1606q0 33 33 32q33 1 33 -32t-33 -33t-33 33zM137 23q0 33 33 32q33 1 33 -32t-33 -33t-33 33zM137 154q0 33 33 32q33 1 33 -32t-33 -33t-33 33zM137 287q0 33 33 32q33 1 33 -32t-33 -33t-33 33zM137 418 q0 33 33 33t33 -33t-33 -33t-33 33zM137 551q0 33 33 33t33 -33t-33 -33t-33 33zM137 682q0 35 33 35t33 -35q0 -33 -33 -33t-33 33zM137 815q0 33 33 33t33 -33t-33 -33t-33 33zM137 946q0 35 33 35t33 -35q0 -33 -33 -33t-33 33zM137 1079q0 33 33 33t33 -33t-33 -32 q-33 0 -33 32zM137 1210q0 35 33 35t33 -35q0 -33 -33 -32q-33 0 -33 32zM264 1473q0 35 33 34q33 1 33 -34q0 -33 -33 -33t-33 33z" />
<glyph unicode="&#xcf;" horiz-adv-x="530" d="M0 1473q0 35 33 34q33 1 33 -34q0 -33 -33 -33t-33 33zM131 809q0 33 33 33t33 -33t-33 -33t-33 33zM133 20q0 33 33 33t33 -33t-33 -32q-33 0 -33 32zM133 152q0 33 33 32q33 1 33 -32t-33 -33t-33 33zM133 285q0 33 33 32q33 1 33 -32t-33 -33t-33 33zM133 416 q0 33 33 33t33 -33t-33 -33t-33 33zM133 549q0 33 33 33t33 -33t-33 -33t-33 33zM133 680q0 33 33 33t33 -33t-33 -33t-33 33zM133 944q0 33 33 33t33 -33t-33 -33t-33 33zM133 1077q0 33 33 33t33 -33t-33 -33t-33 33zM133 1208q0 33 33 33t33 -33t-33 -32q-33 0 -33 32z M264 1473q0 35 33 34q33 1 33 -34q0 -33 -33 -33t-33 33z" />
<glyph unicode="&#xd0;" horiz-adv-x="1183" d="M127 12q0 33 33 33t33 -33t-33 -32q-33 0 -33 32zM127 143q0 35 33 35t33 -35q0 -33 -33 -32q-33 0 -33 32zM127 276q0 33 33 33t33 -33t-33 -32q-33 0 -33 32zM127 408q0 35 33 34q33 1 33 -34q0 -33 -33 -33t-33 33zM127 541q0 33 33 32q33 1 33 -32t-33 -33t-33 33z M127 674q0 33 33 33t33 -33q0 -35 -33 -35t-33 35zM127 805q0 33 33 33t33 -33t-33 -33t-33 33zM127 938q0 33 33 33t33 -33q0 -35 -33 -35t-33 35zM127 1069q0 33 33 33t33 -33t-33 -33t-33 33zM127 1202q0 33 33 33t33 -33q0 -35 -33 -35t-33 35zM127 1333q0 33 33 33 t33 -33t-33 -33t-33 33zM127 1466q0 33 33 33t33 -33t-33 -32q-33 0 -33 32zM258 12q0 33 33 33t33 -33t-33 -32q-33 0 -33 32zM258 1466q0 33 33 33t33 -33t-33 -32q-33 0 -33 32zM391 12q0 33 33 33t33 -33t-33 -32q-33 0 -33 32zM391 1466q0 33 33 33t33 -33t-33 -32 q-33 0 -33 32zM522 12q0 33 33 33t33 -33t-33 -32q-33 0 -33 32zM522 1466q0 33 33 33t33 -33t-33 -32q-33 0 -33 32zM655 12q0 33 33 33t33 -33t-33 -32q-33 0 -33 32zM655 1466q0 33 33 33t33 -33t-33 -32q-33 0 -33 32zM786 143q0 35 33 35t33 -35q0 -33 -33 -32 q-33 0 -33 32zM786 1333q0 33 33 33t33 -33t-33 -33t-33 33zM920 276q0 33 32 33q33 0 33 -33t-33 -32q-33 0 -32 32zM920 408q0 35 32 34q33 1 33 -34q0 -33 -33 -33t-32 33zM920 541q0 33 32 32q33 1 33 -32t-33 -33t-32 33zM920 674q0 33 32 33q33 0 33 -33 q0 -35 -33 -35t-32 35zM920 805q0 33 32 33q33 0 33 -33t-33 -33t-32 33zM920 938q0 33 32 33q33 0 33 -33q0 -35 -33 -35t-32 35zM920 1069q0 33 32 33q33 0 33 -33t-33 -33t-32 33zM920 1202q0 33 32 33q33 0 33 -33q0 -35 -33 -35t-32 35z" />
<glyph unicode="&#xd1;" horiz-adv-x="1058" d="M0 20q0 33 33 33t33 -33t-33 -32q-33 0 -33 32zM0 152q0 33 33 32q33 1 33 -32t-33 -33t-33 33zM0 285q0 33 33 32q33 1 33 -32t-33 -33t-33 33zM0 416q0 33 33 33t33 -33t-33 -33t-33 33zM0 549q0 33 33 33t33 -33t-33 -33t-33 33zM0 684q0 33 33 33t33 -33t-33 -33 t-33 33zM8 817q0 35 33 35t33 -35q0 -33 -33 -33t-33 33zM8 950q0 33 33 33t33 -33t-33 -32q-33 0 -33 32zM8 1081q0 35 33 35t33 -35q0 -33 -33 -32q-33 0 -33 32zM8 1214q0 33 33 33t33 -33t-33 -32q-33 0 -33 32zM137 1077q0 35 33 35t33 -35q0 -33 -33 -33t-33 33z M139 950q0 33 33 33t33 -33t-33 -32q-33 0 -33 32zM272 817q0 35 33 35t33 -35q0 -33 -33 -33t-33 33zM395 543q0 33 33 32q33 1 33 -32t-33 -33t-33 33zM395 684q0 33 33 33q35 0 35 -33t-35 -33q-33 0 -33 33zM528 416q0 33 33 33t33 -33t-33 -33t-33 33zM662 152 q0 33 32 32q33 1 33 -32t-33 -33t-32 33zM662 285q0 33 32 32q33 1 33 -32t-33 -33t-32 33zM793 20q0 33 32 33q33 0 33 -33t-33 -32q-33 0 -32 32zM793 152q0 33 32 32q33 1 33 -32t-33 -33t-32 33zM793 285q0 33 32 32q33 1 33 -32t-33 -33t-32 33zM793 416q0 33 32 33 q33 0 33 -33t-33 -33t-32 33zM793 549q0 33 32 33q33 0 33 -33t-33 -33t-32 33zM793 684q0 33 32 33q33 0 33 -33t-33 -33t-32 33zM801 817q0 35 33 35q32 0 32 -35q0 -33 -32 -33q-33 0 -33 33zM801 950q0 33 33 33q32 0 32 -33t-32 -32q-33 0 -33 32zM801 1081q0 35 33 35 q32 0 32 -35q0 -33 -32 -32q-33 0 -33 32zM801 1214q0 33 33 33q32 0 32 -33t-32 -32q-33 0 -33 32z" />
<glyph unicode="&#xd2;" horiz-adv-x="1056" d="M0 285q0 33 33 32q33 1 33 -32t-33 -33t-33 33zM0 416q0 33 33 33t33 -33t-33 -33t-33 33zM0 549q0 33 33 33t33 -33t-33 -33t-33 33zM0 680q0 33 33 33t33 -33t-33 -33t-33 33zM0 813q0 33 33 33t33 -33t-33 -33t-33 33zM2 946q0 33 33 33t33 -33t-33 -33t-33 33z M133 152q0 33 33 32q33 1 33 -32t-33 -33t-33 33zM133 1079q0 33 33 33q35 0 35 -33t-35 -32q-33 0 -33 32zM264 20q0 33 33 33t33 -33t-33 -32q-33 0 -33 32zM266 1210q0 33 33 33t33 -33t-33 -32q-33 0 -33 32zM397 20q0 33 33 33t33 -33t-33 -32q-33 0 -33 32zM397 1210 q0 33 33 33q35 0 35 -33t-35 -32q-33 0 -33 32zM528 20q0 33 33 33t33 -33t-33 -32q-33 0 -33 32zM530 1210q0 33 33 33t33 -33t-33 -32q-33 0 -33 32zM662 152q0 33 32 32q33 1 33 -32t-33 -33t-32 33zM662 1079q0 33 32 33q35 0 35 -33t-35 -32q-33 0 -32 32zM793 285 q0 33 32 32q33 1 33 -32t-33 -33t-32 33zM793 416q0 33 32 33q33 0 33 -33t-33 -33t-32 33zM793 549q0 33 32 33q33 0 33 -33t-33 -33t-32 33zM793 680q0 33 32 33q33 0 33 -33t-33 -33t-32 33zM793 813q0 33 32 33q33 0 33 -33t-33 -33t-32 33zM795 946q0 33 32 33 q33 0 33 -33t-33 -33t-32 33z" />
<glyph unicode="&#xd3;" horiz-adv-x="1056" d="M0 285q0 33 33 32q33 1 33 -32t-33 -33t-33 33zM0 416q0 33 33 33t33 -33t-33 -33t-33 33zM0 549q0 33 33 33t33 -33t-33 -33t-33 33zM0 680q0 33 33 33t33 -33t-33 -33t-33 33zM0 813q0 33 33 33t33 -33t-33 -33t-33 33zM2 946q0 33 33 33t33 -33t-33 -33t-33 33z M133 152q0 33 33 32q33 1 33 -32t-33 -33t-33 33zM133 1079q0 33 33 33q35 0 35 -33t-35 -32q-33 0 -33 32zM264 20q0 33 33 33t33 -33t-33 -32q-33 0 -33 32zM266 1210q0 33 33 33t33 -33t-33 -32q-33 0 -33 32zM397 20q0 33 33 33t33 -33t-33 -32q-33 0 -33 32zM397 1210 q0 33 33 33q35 0 35 -33t-35 -32q-33 0 -33 32zM528 20q0 33 33 33t33 -33t-33 -32q-33 0 -33 32zM530 1210q0 33 33 33t33 -33t-33 -32q-33 0 -33 32zM662 152q0 33 32 32q33 1 33 -32t-33 -33t-32 33zM662 1079q0 33 32 33q35 0 35 -33t-35 -32q-33 0 -32 32zM793 285 q0 33 32 32q33 1 33 -32t-33 -33t-32 33zM793 416q0 33 32 33q33 0 33 -33t-33 -33t-32 33zM793 549q0 33 32 33q33 0 33 -33t-33 -33t-32 33zM793 680q0 33 32 33q33 0 33 -33t-33 -33t-32 33zM793 813q0 33 32 33q33 0 33 -33t-33 -33t-32 33zM795 946q0 33 32 33 q33 0 33 -33t-33 -33t-32 33z" />
<glyph unicode="&#xd4;" horiz-adv-x="1056" d="M0 285q0 33 33 32q33 1 33 -32t-33 -33t-33 33zM0 416q0 33 33 33t33 -33t-33 -33t-33 33zM0 549q0 33 33 33t33 -33t-33 -33t-33 33zM0 680q0 33 33 33t33 -33t-33 -33t-33 33zM0 813q0 33 33 33t33 -33t-33 -33t-33 33zM2 946q0 33 33 33t33 -33t-33 -33t-33 33z M133 152q0 33 33 32q33 1 33 -32t-33 -33t-33 33zM133 1079q0 33 33 33q35 0 35 -33t-35 -32q-33 0 -33 32zM264 20q0 33 33 33t33 -33t-33 -32q-33 0 -33 32zM266 1210q0 33 33 33t33 -33t-33 -32q-33 0 -33 32zM397 20q0 33 33 33t33 -33t-33 -32q-33 0 -33 32zM397 1210 q0 33 33 33q35 0 35 -33t-35 -32q-33 0 -33 32zM528 20q0 33 33 33t33 -33t-33 -32q-33 0 -33 32zM530 1210q0 33 33 33t33 -33t-33 -32q-33 0 -33 32zM662 152q0 33 32 32q33 1 33 -32t-33 -33t-32 33zM662 1079q0 33 32 33q35 0 35 -33t-35 -32q-33 0 -32 32zM793 285 q0 33 32 32q33 1 33 -32t-33 -33t-32 33zM793 416q0 33 32 33q33 0 33 -33t-33 -33t-32 33zM793 549q0 33 32 33q33 0 33 -33t-33 -33t-32 33zM793 680q0 33 32 33q33 0 33 -33t-33 -33t-32 33zM793 813q0 33 32 33q33 0 33 -33t-33 -33t-32 33zM795 946q0 33 32 33 q33 0 33 -33t-33 -33t-32 33z" />
<glyph unicode="&#xd5;" horiz-adv-x="1056" d="M0 285q0 33 33 32q33 1 33 -32t-33 -33t-33 33zM0 416q0 33 33 33t33 -33t-33 -33t-33 33zM0 549q0 33 33 33t33 -33t-33 -33t-33 33zM0 680q0 33 33 33t33 -33t-33 -33t-33 33zM0 813q0 33 33 33t33 -33t-33 -33t-33 33zM2 946q0 33 33 33t33 -33t-33 -33t-33 33z M133 152q0 33 33 32q33 1 33 -32t-33 -33t-33 33zM133 1079q0 33 33 33q35 0 35 -33t-35 -32q-33 0 -33 32zM264 20q0 33 33 33t33 -33t-33 -32q-33 0 -33 32zM266 1210q0 33 33 33t33 -33t-33 -32q-33 0 -33 32zM397 20q0 33 33 33t33 -33t-33 -32q-33 0 -33 32zM397 1210 q0 33 33 33q35 0 35 -33t-35 -32q-33 0 -33 32zM528 20q0 33 33 33t33 -33t-33 -32q-33 0 -33 32zM530 1210q0 33 33 33t33 -33t-33 -32q-33 0 -33 32zM662 152q0 33 32 32q33 1 33 -32t-33 -33t-32 33zM662 1079q0 33 32 33q35 0 35 -33t-35 -32q-33 0 -32 32zM793 285 q0 33 32 32q33 1 33 -32t-33 -33t-32 33zM793 416q0 33 32 33q33 0 33 -33t-33 -33t-32 33zM793 549q0 33 32 33q33 0 33 -33t-33 -33t-32 33zM793 680q0 33 32 33q33 0 33 -33t-33 -33t-32 33zM793 813q0 33 32 33q33 0 33 -33t-33 -33t-32 33zM795 946q0 33 32 33 q33 0 33 -33t-33 -33t-32 33z" />
<glyph unicode="&#xd6;" horiz-adv-x="1056" d="M0 285q0 33 33 32q33 1 33 -32t-33 -33t-33 33zM0 416q0 33 33 33t33 -33t-33 -33t-33 33zM0 549q0 33 33 33t33 -33t-33 -33t-33 33zM0 680q0 33 33 33t33 -33t-33 -33t-33 33zM0 813q0 33 33 33t33 -33t-33 -33t-33 33zM2 946q0 33 33 33t33 -33t-33 -33t-33 33z M133 152q0 33 33 32q33 1 33 -32t-33 -33t-33 33zM133 1079q0 33 33 33q35 0 35 -33t-35 -32q-33 0 -33 32zM264 20q0 33 33 33t33 -33t-33 -32q-33 0 -33 32zM266 1210q0 33 33 33t33 -33t-33 -32q-33 0 -33 32zM397 20q0 33 33 33t33 -33t-33 -32q-33 0 -33 32zM397 1210 q0 33 33 33q35 0 35 -33t-35 -32q-33 0 -33 32zM528 20q0 33 33 33t33 -33t-33 -32q-33 0 -33 32zM530 1210q0 33 33 33t33 -33t-33 -32q-33 0 -33 32zM662 152q0 33 32 32q33 1 33 -32t-33 -33t-32 33zM662 1079q0 33 32 33q35 0 35 -33t-35 -32q-33 0 -32 32zM793 285 q0 33 32 32q33 1 33 -32t-33 -33t-32 33zM793 416q0 33 32 33q33 0 33 -33t-33 -33t-32 33zM793 549q0 33 32 33q33 0 33 -33t-33 -33t-32 33zM793 680q0 33 32 33q33 0 33 -33t-33 -33t-32 33zM793 813q0 33 32 33q33 0 33 -33t-33 -33t-32 33zM795 946q0 33 32 33 q33 0 33 -33t-33 -33t-32 33z" />
<glyph unicode="&#xd8;" horiz-adv-x="1327" d="M131 289q0 35 33 35t33 -35q0 -33 -33 -33t-33 33zM131 422q0 33 33 33t33 -33t-33 -33t-33 33zM131 555q0 33 33 33t33 -33q0 -35 -33 -35t-33 35zM131 686q0 33 33 33t33 -33t-33 -33t-33 33zM131 819q0 33 33 33t33 -33q0 -35 -33 -35t-33 35zM137 948q0 33 35 33 q33 0 33 -33t-33 -33q-35 0 -35 33zM137 1079q0 35 35 35q33 0 33 -35q0 -33 -33 -32q-35 0 -35 32zM137 1212q0 33 35 33q33 0 33 -33t-33 -32q-35 0 -35 32zM141 23q0 35 33 34q33 1 33 -34q0 -33 -33 -33t-33 33zM262 158q0 33 33 32q8 0 14 -2q31 -1 31 -32 q0 -33 -33 -33q-8 0 -14 2q-31 2 -31 33zM270 1343q0 35 33 35t33 -35q0 -33 -33 -32q-33 0 -33 32zM274 287q0 35 33 35t33 -35q0 -33 -33 -33t-33 33zM395 25q0 35 33 34q33 1 33 -34q0 -33 -33 -33t-33 33zM401 1477q0 33 35 32q33 1 33 -32t-33 -33q-35 0 -35 33z M406 420q0 33 32 33q33 0 33 -33t-33 -33t-32 33zM406 551q0 35 32 35q33 0 33 -35q0 -33 -33 -33t-32 33zM526 25q0 35 33 34q33 1 33 -34q0 -33 -33 -33t-33 33zM535 1477q0 33 32 32q33 1 33 -32t-33 -33t-32 33zM539 684q0 33 32 33q33 0 33 -33t-33 -33t-32 33z M539 817q0 33 32 33q33 0 33 -33q0 -35 -33 -35t-32 35zM659 25q0 35 33 34q33 1 33 -34q0 -33 -33 -33t-33 33zM666 1477q0 33 34 32q33 1 33 -32t-33 -33q-35 0 -34 33zM670 948q0 33 32 33q33 0 33 -33t-33 -33t-32 33zM670 1081q0 33 32 33q33 0 33 -33q0 -35 -33 -34 q-33 0 -32 34zM791 158q0 33 32 32q33 1 33 -32t-33 -33t-32 33zM799 1343q0 35 32 35h3h2q32 1 32 -32q0 -35 -32 -35h-2h-3q-33 0 -32 32zM803 1212q0 33 33 33q32 0 32 -33t-32 -32q-33 0 -33 32zM924 289q0 35 32 35q33 0 33 -35q0 -33 -33 -33t-32 33zM924 422 q0 33 32 33q33 0 33 -33t-33 -33t-32 33zM924 555q0 33 32 33q33 0 33 -33q0 -35 -33 -35t-32 35zM924 686q0 33 32 33q33 0 33 -33t-33 -33t-32 33zM924 819q0 33 32 33q33 0 33 -33q0 -35 -33 -35t-32 35zM930 948q0 33 35 33q32 0 32 -33t-32 -33q-35 0 -35 33zM930 1079 q0 35 35 35q32 0 32 -35q0 -33 -32 -32q-35 0 -35 32zM930 1212q0 33 35 33q32 0 32 -33t-32 -32q-35 0 -35 32zM934 1477q0 33 33 32q32 1 32 -32t-32 -33q-33 0 -33 33z" />
<glyph unicode="&#xd9;" d="M0 285q0 33 33 32q33 1 33 -32t-33 -33t-33 33zM0 416q0 33 33 33t33 -33t-33 -33t-33 33zM0 549q0 33 33 33t33 -33t-33 -33t-33 33zM0 680q0 33 33 33t33 -33t-33 -33t-33 33zM0 813q0 33 33 33t33 -33t-33 -33t-33 33zM0 944q0 33 33 33t33 -33t-33 -33t-33 33z M0 1077q0 33 33 33t33 -33t-33 -33t-33 33zM0 1208q0 33 33 33t33 -33t-33 -32q-33 0 -33 32zM133 152q0 33 33 32q33 1 33 -32t-33 -33t-33 33zM264 20q0 33 33 33t33 -33t-33 -32q-33 0 -33 32zM397 20q0 33 33 33t33 -33t-33 -32q-33 0 -33 32zM528 20q0 33 33 33t33 -33 t-33 -32q-33 0 -33 32zM662 152q0 33 32 32q33 1 33 -32t-33 -33t-32 33zM793 285q0 33 32 32q33 1 33 -32t-33 -33t-32 33zM793 416q0 33 32 33q33 0 33 -33t-33 -33t-32 33zM793 549q0 33 32 33q33 0 33 -33t-33 -33t-32 33zM793 680q0 33 32 33q33 0 33 -33t-33 -33 t-32 33zM793 813q0 33 32 33q33 0 33 -33t-33 -33t-32 33zM793 944q0 33 32 33q33 0 33 -33t-33 -33t-32 33zM793 1077q0 33 32 33q33 0 33 -33t-33 -33t-32 33zM793 1208q0 33 32 33q33 0 33 -33t-33 -32q-33 0 -32 32z" />
<glyph unicode="&#xda;" d="M0 285q0 33 33 32q33 1 33 -32t-33 -33t-33 33zM0 416q0 33 33 33t33 -33t-33 -33t-33 33zM0 549q0 33 33 33t33 -33t-33 -33t-33 33zM0 680q0 33 33 33t33 -33t-33 -33t-33 33zM0 813q0 33 33 33t33 -33t-33 -33t-33 33zM0 944q0 33 33 33t33 -33t-33 -33t-33 33z M0 1077q0 33 33 33t33 -33t-33 -33t-33 33zM0 1208q0 33 33 33t33 -33t-33 -32q-33 0 -33 32zM133 152q0 33 33 32q33 1 33 -32t-33 -33t-33 33zM264 20q0 33 33 33t33 -33t-33 -32q-33 0 -33 32zM397 20q0 33 33 33t33 -33t-33 -32q-33 0 -33 32zM528 20q0 33 33 33t33 -33 t-33 -32q-33 0 -33 32zM662 152q0 33 32 32q33 1 33 -32t-33 -33t-32 33zM793 285q0 33 32 32q33 1 33 -32t-33 -33t-32 33zM793 416q0 33 32 33q33 0 33 -33t-33 -33t-32 33zM793 549q0 33 32 33q33 0 33 -33t-33 -33t-32 33zM793 680q0 33 32 33q33 0 33 -33t-33 -33 t-32 33zM793 813q0 33 32 33q33 0 33 -33t-33 -33t-32 33zM793 944q0 33 32 33q33 0 33 -33t-33 -33t-32 33zM793 1077q0 33 32 33q33 0 33 -33t-33 -33t-32 33zM793 1208q0 33 32 33q33 0 33 -33t-33 -32q-33 0 -32 32z" />
<glyph unicode="&#xdb;" d="M0 285q0 33 33 32q33 1 33 -32t-33 -33t-33 33zM0 416q0 33 33 33t33 -33t-33 -33t-33 33zM0 549q0 33 33 33t33 -33t-33 -33t-33 33zM0 680q0 33 33 33t33 -33t-33 -33t-33 33zM0 813q0 33 33 33t33 -33t-33 -33t-33 33zM0 944q0 33 33 33t33 -33t-33 -33t-33 33z M0 1077q0 33 33 33t33 -33t-33 -33t-33 33zM0 1208q0 33 33 33t33 -33t-33 -32q-33 0 -33 32zM133 152q0 33 33 32q33 1 33 -32t-33 -33t-33 33zM264 20q0 33 33 33t33 -33t-33 -32q-33 0 -33 32zM397 20q0 33 33 33t33 -33t-33 -32q-33 0 -33 32zM528 20q0 33 33 33t33 -33 t-33 -32q-33 0 -33 32zM662 152q0 33 32 32q33 1 33 -32t-33 -33t-32 33zM793 285q0 33 32 32q33 1 33 -32t-33 -33t-32 33zM793 416q0 33 32 33q33 0 33 -33t-33 -33t-32 33zM793 549q0 33 32 33q33 0 33 -33t-33 -33t-32 33zM793 680q0 33 32 33q33 0 33 -33t-33 -33 t-32 33zM793 813q0 33 32 33q33 0 33 -33t-33 -33t-32 33zM793 944q0 33 32 33q33 0 33 -33t-33 -33t-32 33zM793 1077q0 33 32 33q33 0 33 -33t-33 -33t-32 33zM793 1208q0 33 32 33q33 0 33 -33t-33 -32q-33 0 -32 32z" />
<glyph unicode="&#xdc;" d="M0 285q0 33 33 32q33 1 33 -32t-33 -33t-33 33zM0 416q0 33 33 33t33 -33t-33 -33t-33 33zM0 549q0 33 33 33t33 -33t-33 -33t-33 33zM0 680q0 33 33 33t33 -33t-33 -33t-33 33zM0 813q0 33 33 33t33 -33t-33 -33t-33 33zM0 944q0 33 33 33t33 -33t-33 -33t-33 33z M0 1077q0 33 33 33t33 -33t-33 -33t-33 33zM0 1208q0 33 33 33t33 -33t-33 -32q-33 0 -33 32zM133 152q0 33 33 32q33 1 33 -32t-33 -33t-33 33zM264 20q0 33 33 33t33 -33t-33 -32q-33 0 -33 32zM397 20q0 33 33 33t33 -33t-33 -32q-33 0 -33 32zM528 20q0 33 33 33t33 -33 t-33 -32q-33 0 -33 32zM662 152q0 33 32 32q33 1 33 -32t-33 -33t-32 33zM793 285q0 33 32 32q33 1 33 -32t-33 -33t-32 33zM793 416q0 33 32 33q33 0 33 -33t-33 -33t-32 33zM793 549q0 33 32 33q33 0 33 -33t-33 -33t-32 33zM793 680q0 33 32 33q33 0 33 -33t-33 -33 t-32 33zM793 813q0 33 32 33q33 0 33 -33t-33 -33t-32 33zM793 944q0 33 32 33q33 0 33 -33t-33 -33t-32 33zM793 1077q0 33 32 33q33 0 33 -33t-33 -33t-32 33zM793 1208q0 33 32 33q33 0 33 -33t-33 -32q-33 0 -32 32z" />
<glyph unicode="&#xdd;" d="M4 1341q0 33 33 33t33 -33t-33 -32q-33 0 -33 32zM137 1077q0 33 33 33t33 -33t-33 -33t-33 33zM137 1208q0 33 33 33t33 -33t-33 -32q-33 0 -33 32zM268 813q0 33 33 33t33 -33q0 -35 -33 -35t-33 35zM268 944q0 33 33 33t33 -33t-33 -33t-33 33zM401 18q0 35 33 35 t33 -35q0 -33 -33 -32q-33 0 -33 32zM401 152q0 33 33 32q33 1 33 -32t-33 -33t-33 33zM401 285q0 33 33 32q33 1 33 -32q0 -35 -33 -35t-33 35zM401 416q0 33 33 33t33 -33t-33 -33t-33 33zM401 549q0 33 33 33t33 -33q0 -35 -33 -35t-33 35zM401 680q0 33 33 33t33 -33 t-33 -33t-33 33zM532 813q0 33 33 33q35 0 35 -33q0 -35 -35 -35q-33 0 -33 35zM532 944q0 33 33 33q35 0 35 -33t-35 -33q-33 0 -33 33zM666 1077q0 33 32 33q33 0 33 -33t-33 -33t-32 33zM666 1208q0 33 32 33q33 0 33 -33t-33 -32q-33 0 -32 32zM797 1341q0 33 32 33 q35 0 35 -33t-35 -32q-33 0 -32 32z" />
<glyph unicode="&#xde;" horiz-adv-x="921" d="M-2 16q0 33 33 33q35 0 35 -33t-35 -32q-33 0 -33 32zM-2 150q0 33 33 32q35 1 35 -32t-35 -33q-33 0 -33 33zM-2 281q0 33 33 32q35 1 35 -32t-35 -33q-33 0 -33 33zM-2 414q0 33 33 32q35 1 35 -32t-35 -33q-33 0 -33 33zM-2 545q0 33 33 33q35 0 35 -33t-35 -33 q-33 0 -33 33zM-2 678q0 33 33 33q35 0 35 -33t-35 -33q-33 0 -33 33zM-2 809q0 33 33 33q35 0 35 -33t-35 -33q-33 0 -33 33zM-2 942q0 33 33 33q35 0 35 -33t-35 -33q-33 0 -33 33zM-2 1073q0 33 33 33q35 0 35 -33t-35 -33q-33 0 -33 33zM-2 1206q0 33 33 33q35 0 35 -33 t-35 -32q-33 0 -33 32zM0 1341q0 33 33 33t33 -33t-33 -32q-33 0 -33 32zM0 1473q0 35 33 34q33 1 33 -34q0 -33 -33 -33t-33 33zM131 545q0 33 33 33t33 -33t-33 -33t-33 33zM131 1206q0 33 33 33t33 -33t-33 -32q-33 0 -33 32zM262 545q0 33 33 33q35 0 35 -33t-35 -33 q-33 0 -33 33zM262 1206q0 33 33 33q35 0 35 -33t-35 -32q-33 0 -33 32zM395 545q0 33 33 33t33 -33t-33 -33t-33 33zM395 1206q0 33 33 33t33 -33t-33 -32q-33 0 -33 32zM526 545q0 33 35 33q33 0 33 -33t-33 -33q-35 0 -35 33zM526 1206q0 33 35 33q33 0 33 -33t-33 -32 q-35 0 -35 32zM659 678q0 33 33 33t33 -33t-33 -33t-33 33zM659 805q0 35 33 35t33 -35q0 -33 -33 -33t-33 33zM659 938q0 33 33 33t33 -33t-33 -33t-33 33zM659 1073q0 33 33 33t33 -33t-33 -33t-33 33z" />
<glyph unicode="&#xdf;" horiz-adv-x="929" d="M-2 809q0 33 35 33q33 0 33 -33t-33 -33q-35 0 -35 33zM0 20q0 33 33 33t33 -33t-33 -32q-33 0 -33 32zM0 -113q0 33 33 33t33 -33t-33 -32q-33 0 -33 32zM0 152q0 33 33 32q33 1 33 -32t-33 -33t-33 33zM0 285q0 33 33 32q33 1 33 -32t-33 -33t-33 33zM0 416q0 33 33 33 t33 -33t-33 -33t-33 33zM0 549q0 33 33 33t33 -33t-33 -33t-33 33zM0 680q0 33 33 33t33 -33t-33 -33t-33 33zM0 944q0 33 33 33t33 -33t-33 -33t-33 33zM0 1077q0 33 33 33t33 -33t-33 -33t-33 33zM0 1208q0 33 33 33t33 -33t-33 -32q-33 0 -33 32zM133 152q0 33 33 32 q33 1 33 -32t-33 -33t-33 33zM133 1341q0 33 33 33t33 -33t-33 -32q-33 0 -33 32zM264 20q0 33 33 33t33 -33t-33 -32q-33 0 -33 32zM264 813q0 33 33 33t33 -33t-33 -33t-33 33zM264 1473q0 35 33 34q33 1 33 -34q0 -33 -33 -33t-33 33zM395 809q0 33 33 33t33 -33t-33 -33 t-33 33zM397 20q0 33 33 33t33 -33t-33 -32q-33 0 -33 32zM397 948q0 33 33 33t33 -33t-33 -33t-33 33zM397 1473q0 35 33 34q33 1 33 -34q0 -33 -33 -33t-33 33zM528 20q0 33 33 33t33 -33t-33 -32q-33 0 -33 32zM528 809q0 33 33 33t33 -33t-33 -33t-33 33zM528 1077 q0 33 33 33t33 -33t-33 -33t-33 33zM528 1208q0 33 33 33t33 -33t-33 -32q-33 0 -33 32zM528 1341q0 33 33 33t33 -33t-33 -32q-33 0 -33 32zM662 152q0 33 32 32q33 1 33 -32t-33 -33t-32 33zM662 285q0 33 32 32q33 1 33 -32t-33 -33t-32 33zM662 416q0 33 32 33 q33 0 33 -33t-33 -33t-32 33zM662 549q0 33 32 33q33 0 33 -33t-33 -33t-32 33zM662 680q0 33 32 33q33 0 33 -33t-33 -33t-32 33z" />
<glyph unicode="&#xe0;" horiz-adv-x="1058" d="M14 154q0 33 33 32q33 1 33 -32q0 -35 -33 -35t-33 35zM14 285q0 33 33 32q33 1 33 -32t-33 -33t-33 33zM14 418q0 33 33 33t33 -33q0 -35 -33 -35t-33 35zM14 549q0 33 33 33t33 -33t-33 -33t-33 33zM14 682q0 33 33 33t33 -33q0 -35 -33 -35t-33 35zM145 20q0 33 33 33 q35 0 35 -33t-35 -32q-33 0 -33 32zM145 813q0 33 33 33q35 0 35 -33t-35 -33q-33 0 -33 33zM268 1339q0 33 33 33q35 0 35 -33t-35 -32q-33 0 -33 32zM287 23q0 33 32 32q33 1 33 -32t-33 -33t-32 33zM287 948q0 33 32 33q33 0 33 -33t-33 -33t-32 33zM401 1206q0 33 33 33 t33 -33t-33 -32q-33 0 -33 32zM418 23q0 33 33 32q34 1 34 -32t-34 -33q-33 0 -33 33zM418 948q0 33 33 33q34 0 34 -33t-34 -33q-33 0 -33 33zM551 156q0 33 33 32q32 1 32 -32q0 -35 -32 -35q-33 0 -33 35zM551 815q0 33 33 33q32 0 32 -33t-32 -33q-33 0 -33 33zM682 23 q0 33 33 32q35 1 35 -32t-35 -33q-33 0 -33 33zM682 156q0 33 33 32q35 1 35 -32q0 -35 -35 -35q-33 0 -33 35zM682 287q0 33 33 32q35 1 35 -32t-35 -33q-33 0 -33 33zM682 420q0 33 33 33q35 0 35 -33q0 -35 -35 -35q-33 0 -33 35zM682 551q0 33 33 33q35 0 35 -33 t-35 -33q-33 0 -33 33zM682 684q0 33 33 33q35 0 35 -33q0 -35 -35 -35q-33 0 -33 35zM682 815q0 33 33 33q35 0 35 -33t-35 -33q-33 0 -33 33zM682 948q0 33 33 33q35 0 35 -33t-35 -33q-33 0 -33 33z" />
<glyph unicode="&#xe1;" horiz-adv-x="1058" d="M12 154q0 33 33 32q33 1 33 -32q0 -35 -33 -35t-33 35zM12 285q0 33 33 32q33 1 33 -32t-33 -33t-33 33zM12 418q0 33 33 33t33 -33q0 -35 -33 -35t-33 35zM12 549q0 33 33 33t33 -33t-33 -33t-33 33zM12 682q0 33 33 33t33 -33q0 -35 -33 -35t-33 35zM143 20q0 33 33 33 q35 0 35 -33t-35 -32q-33 0 -33 32zM143 813q0 33 33 33q35 0 35 -33t-35 -33q-33 0 -33 33zM285 23q0 33 32 32q33 1 33 -32t-33 -33t-32 33zM285 948q0 33 32 33q33 0 33 -33t-33 -33t-32 33zM395 1208q0 33 33 33q35 0 35 -33t-35 -32q-33 0 -33 32zM416 23q0 33 33 32 q34 1 34 -32t-34 -33q-33 0 -33 33zM416 948q0 33 33 33q34 0 34 -33t-34 -33q-33 0 -33 33zM528 1341q0 33 33 33t33 -33t-33 -32q-33 0 -33 32zM549 156q0 33 33 32q32 1 32 -32q0 -35 -32 -35q-33 0 -33 35zM549 815q0 33 33 33q32 0 32 -33t-32 -33q-33 0 -33 33z M680 23q0 33 33 32q35 1 35 -32t-35 -33q-33 0 -33 33zM680 156q0 33 33 32q35 1 35 -32q0 -35 -35 -35q-33 0 -33 35zM680 287q0 33 33 32q35 1 35 -32t-35 -33q-33 0 -33 33zM680 420q0 33 33 33q35 0 35 -33q0 -35 -35 -35q-33 0 -33 35zM680 551q0 33 33 33q35 0 35 -33 t-35 -33q-33 0 -33 33zM680 684q0 33 33 33q35 0 35 -33q0 -35 -35 -35q-33 0 -33 35zM680 815q0 33 33 33q35 0 35 -33t-35 -33q-33 0 -33 33zM680 948q0 33 33 33q35 0 35 -33t-35 -33q-33 0 -33 33z" />
<glyph unicode="&#xe2;" horiz-adv-x="1058" d="M12 154q0 33 33 32q33 1 33 -32q0 -35 -33 -35t-33 35zM12 285q0 33 33 32q33 1 33 -32t-33 -33t-33 33zM12 418q0 33 33 33t33 -33q0 -35 -33 -35t-33 35zM12 549q0 33 33 33t33 -33t-33 -33t-33 33zM12 682q0 33 33 33t33 -33q0 -35 -33 -35t-33 35zM145 20q0 33 33 33 t33 -33t-33 -32q-33 0 -33 32zM145 813q0 33 33 33t33 -33t-33 -33t-33 33zM264 1208q0 33 33 33t33 -33t-33 -32q-33 0 -33 32zM285 23q0 33 32 32q33 1 33 -32t-33 -33t-32 33zM285 948q0 33 32 33q33 0 33 -33t-33 -33t-32 33zM397 1341q0 33 33 33t33 -33t-33 -32 q-33 0 -33 32zM416 23q0 33 35 32q32 1 32 -32t-32 -33q-35 0 -35 33zM416 948q0 33 35 33q32 0 32 -33t-32 -33q-35 0 -35 33zM528 1208q0 33 33 33t33 -33t-33 -32q-33 0 -33 32zM549 156q0 33 33 32q32 1 32 -32q0 -35 -32 -35q-33 0 -33 35zM549 815q0 33 33 33 q32 0 32 -33t-32 -33q-33 0 -33 33zM682 23q0 33 33 32q33 1 33 -32t-33 -33t-33 33zM682 156q0 33 33 32q33 1 33 -32q0 -35 -33 -35t-33 35zM682 287q0 33 33 32q33 1 33 -32t-33 -33t-33 33zM682 420q0 33 33 33t33 -33q0 -35 -33 -35t-33 35zM682 551q0 33 33 33t33 -33 t-33 -33t-33 33zM682 684q0 33 33 33t33 -33q0 -35 -33 -35t-33 35zM682 815q0 33 33 33t33 -33t-33 -33t-33 33zM682 948q0 33 33 33t33 -33t-33 -33t-33 33z" />
<glyph unicode="&#xe3;" horiz-adv-x="925" d="M12 154q0 33 33 32q33 1 33 -32q0 -35 -33 -35t-33 35zM12 285q0 33 33 32q33 1 33 -32t-33 -33t-33 33zM12 418q0 33 33 33t33 -33q0 -35 -33 -35t-33 35zM12 549q0 33 33 33t33 -33t-33 -33t-33 33zM12 682q0 33 33 33t33 -33q0 -35 -33 -35t-33 35zM133 1208 q0 33 33 33t33 -33t-33 -32q-33 0 -33 32zM145 20q0 33 33 33t33 -33t-33 -32q-33 0 -33 32zM145 813q0 33 33 33t33 -33t-33 -33t-33 33zM264 1341q0 33 33 33t33 -33t-33 -32q-33 0 -33 32zM285 23q0 33 32 32q33 1 33 -32t-33 -33t-32 33zM285 948q0 33 32 33 q33 0 33 -33t-33 -33t-32 33zM397 1208q0 33 33 33t33 -33t-33 -32q-33 0 -33 32zM416 23q0 33 35 32q32 1 32 -32t-32 -33q-35 0 -35 33zM416 948q0 33 35 33q32 0 32 -33t-32 -33q-35 0 -35 33zM528 1341q0 33 33 33t33 -33t-33 -32q-33 0 -33 32zM549 156q0 33 33 32 q32 1 32 -32q0 -35 -32 -35q-33 0 -33 35zM549 815q0 33 33 33q32 0 32 -33t-32 -33q-33 0 -33 33zM682 23q0 33 33 32q33 1 33 -32t-33 -33t-33 33zM682 156q0 33 33 32q33 1 33 -32q0 -35 -33 -35t-33 35zM682 287q0 33 33 32q33 1 33 -32t-33 -33t-33 33zM682 420 q0 33 33 33t33 -33q0 -35 -33 -35t-33 35zM682 551q0 33 33 33t33 -33t-33 -33t-33 33zM682 684q0 33 33 33t33 -33q0 -35 -33 -35t-33 35zM682 815q0 33 33 33t33 -33t-33 -33t-33 33zM682 948q0 33 33 33t33 -33t-33 -33t-33 33z" />
<glyph unicode="&#xe4;" horiz-adv-x="925" d="M12 154q0 33 33 32q33 1 33 -32q0 -35 -33 -35t-33 35zM12 285q0 33 33 32q33 1 33 -32t-33 -33t-33 33zM12 418q0 33 33 33t33 -33q0 -35 -33 -35t-33 35zM12 549q0 33 33 33t33 -33t-33 -33t-33 33zM12 682q0 33 33 33t33 -33q0 -35 -33 -35t-33 35zM143 20q0 33 33 33 q35 0 35 -33t-35 -32q-33 0 -33 32zM143 813q0 33 33 33q35 0 35 -33t-35 -33q-33 0 -33 33zM264 1204q0 33 33 33t33 -33t-33 -33t-33 33zM285 23q0 33 32 32q33 1 33 -32t-33 -33t-32 33zM285 948q0 33 32 33q33 0 33 -33t-33 -33t-32 33zM416 23q0 33 33 32q34 1 34 -32 t-34 -33q-33 0 -33 33zM416 948q0 33 33 33q34 0 34 -33t-34 -33q-33 0 -33 33zM528 1208q0 33 33 33t33 -33t-33 -32q-33 0 -33 32zM549 156q0 33 33 32q32 1 32 -32q0 -35 -32 -35q-33 0 -33 35zM549 815q0 33 33 33q32 0 32 -33t-32 -33q-33 0 -33 33zM680 23q0 33 33 32 q35 1 35 -32t-35 -33q-33 0 -33 33zM680 156q0 33 33 32q35 1 35 -32q0 -35 -35 -35q-33 0 -33 35zM680 287q0 33 33 32q35 1 35 -32t-35 -33q-33 0 -33 33zM680 420q0 33 33 33q35 0 35 -33q0 -35 -35 -35q-33 0 -33 35zM680 551q0 33 33 33q35 0 35 -33t-35 -33 q-33 0 -33 33zM680 684q0 33 33 33q35 0 35 -33q0 -35 -35 -35q-33 0 -33 35zM680 815q0 33 33 33q35 0 35 -33t-35 -33q-33 0 -33 33zM680 948q0 33 33 33q35 0 35 -33t-35 -33q-33 0 -33 33z" />
<glyph unicode="&#xe5;" horiz-adv-x="925" d="M12 154q0 33 33 32q33 1 33 -32q0 -35 -33 -35t-33 35zM12 285q0 33 33 32q33 1 33 -32t-33 -33t-33 33zM12 418q0 33 33 33t33 -33q0 -35 -33 -35t-33 35zM12 549q0 33 33 33t33 -33t-33 -33t-33 33zM12 682q0 33 33 33t33 -33q0 -35 -33 -35t-33 35zM143 20q0 33 33 33 q35 0 35 -33t-35 -32q-33 0 -33 32zM143 813q0 33 33 33q35 0 35 -33t-35 -33q-33 0 -33 33zM264 1341q0 33 33 33t33 -33t-33 -32q-33 0 -33 32zM285 23q0 33 32 32q33 1 33 -32t-33 -33t-32 33zM285 948q0 33 32 33q33 0 33 -33t-33 -33t-32 33zM395 1208q0 33 33 33 q35 0 35 -33t-35 -32q-33 0 -33 32zM395 1473q0 35 33 34q35 1 35 -34q0 -33 -35 -33q-33 0 -33 33zM416 23q0 33 33 32q34 1 34 -32t-34 -33q-33 0 -33 33zM416 948q0 33 33 33q34 0 34 -33t-34 -33q-33 0 -33 33zM528 1341q0 33 33 33t33 -33t-33 -32q-33 0 -33 32z M549 156q0 33 33 32q32 1 32 -32q0 -35 -32 -35q-33 0 -33 35zM549 815q0 33 33 33q32 0 32 -33t-32 -33q-33 0 -33 33zM680 23q0 33 33 32q35 1 35 -32t-35 -33q-33 0 -33 33zM680 156q0 33 33 32q35 1 35 -32q0 -35 -35 -35q-33 0 -33 35zM680 287q0 33 33 32q35 1 35 -32 t-35 -33q-33 0 -33 33zM680 420q0 33 33 33q35 0 35 -33q0 -35 -35 -35q-33 0 -33 35zM680 551q0 33 33 33q35 0 35 -33t-35 -33q-33 0 -33 33zM680 684q0 33 33 33q35 0 35 -33q0 -35 -35 -35q-33 0 -33 35zM680 815q0 33 33 33q35 0 35 -33t-35 -33q-33 0 -33 33zM680 948 q0 33 33 33q35 0 35 -33t-35 -33q-33 0 -33 33z" />
<glyph unicode="&#xe6;" horiz-adv-x="925" d="M-2 154q0 33 33 32q32 1 32 -32q0 -35 -32 -35q-33 0 -33 35zM-2 285q0 33 33 32q32 1 32 -32t-32 -33q-33 0 -33 33zM-2 418q0 33 33 33q32 0 32 -33q0 -35 -32 -35q-33 0 -33 35zM-2 549q0 33 33 33q32 0 32 -33t-32 -33q-33 0 -33 33zM-2 682q0 33 33 33q32 0 32 -33 q0 -35 -32 -35q-33 0 -33 35zM131 20q0 33 33 33t33 -33t-33 -32q-33 0 -33 32zM131 813q0 33 33 33t33 -33t-33 -33t-33 33zM270 23q0 33 33 32q33 1 33 -32t-33 -33t-33 33zM270 948q0 33 33 33t33 -33t-33 -33t-33 33zM403 23q0 33 33 32q33 1 33 -32t-33 -33t-33 33z M403 948q0 33 33 33t33 -33t-33 -33t-33 33zM535 156q0 33 32 32q33 1 33 -32q0 -35 -33 -35t-32 35zM535 815q0 33 32 33q33 0 33 -33t-33 -33t-32 33zM666 287q0 33 32 32h2q33 0 33 -32q0 -33 -33 -33h-2q-33 0 -32 33zM666 418q0 35 32 35h2q33 0 33 -33q0 -35 -33 -35 h-2q-33 0 -32 33zM666 551q0 33 32 33h2q33 0 33 -33t-33 -33h-2q-33 0 -32 33zM666 682q0 35 32 35h2q33 0 33 -33q0 -35 -33 -35h-2q-33 0 -32 33zM668 23q0 33 32 32q33 1 33 -32t-33 -33t-32 33zM668 156q0 33 32 32q33 1 33 -32q0 -35 -33 -35t-32 35zM668 815 q0 33 32 33q33 0 33 -33t-33 -33t-32 33zM668 948q0 33 32 33q33 0 33 -33t-33 -33t-32 33zM799 154q0 35 32 34q33 1 33 -34q0 -33 -33 -33t-32 33zM799 551q0 33 32 33q33 0 33 -33t-33 -33t-32 33zM799 815q0 33 32 33q33 0 33 -33t-33 -33t-32 33zM930 23q0 33 33 32 q32 1 32 -32t-32 -33q-33 0 -33 33zM930 551q0 33 33 33q32 0 32 -33t-32 -33q-33 0 -33 33zM930 948q0 33 33 33q32 0 32 -33q0 -35 -32 -35q-33 0 -33 35zM1063 23q0 33 33 32q32 1 32 -32t-32 -33q-33 0 -33 33zM1063 551q0 33 33 33q32 0 32 -33t-32 -33q-33 0 -33 33z M1063 948q0 33 33 33q32 0 32 -33q0 -35 -32 -35q-33 0 -33 35zM1194 23q0 33 33 32q33 1 33 -32t-33 -33t-33 33zM1194 551q0 33 33 33t33 -33t-33 -33t-33 33zM1194 948q0 33 33 33t33 -33q0 -35 -33 -35t-33 35zM1327 154q0 35 33 34q33 1 33 -34q0 -33 -33 -33t-33 33z M1327 551q0 33 33 33t33 -33t-33 -33t-33 33zM1327 682q0 35 33 35t33 -35q0 -33 -33 -33t-33 33zM1327 815q0 33 33 33t33 -33t-33 -33t-33 33z" />
<glyph unicode="&#xe7;" horiz-adv-x="927" d="M0 285q0 33 33 32q33 1 33 -32t-33 -33t-33 33zM0 416q0 33 33 33t33 -33t-33 -33t-33 33zM0 549q0 33 33 33t33 -33t-33 -33t-33 33zM0 680q0 33 33 33t33 -33t-33 -33t-33 33zM133 152q0 33 33 32q33 1 33 -32t-33 -33t-33 33zM133 813q0 33 33 33t33 -33t-33 -33 t-33 33zM264 20q0 33 33 33t33 -33t-33 -32q-33 0 -33 32zM264 944q0 33 33 33t33 -33t-33 -33t-33 33zM397 20q0 33 33 33t33 -33t-33 -32q-33 0 -33 32zM397 -113q0 33 33 33t33 -33t-33 -32q-33 0 -33 32zM397 -377q0 33 33 33t33 -33t-33 -33t-33 33zM397 944 q0 33 33 33t33 -33t-33 -33t-33 33zM528 20q0 33 33 33t33 -33t-33 -32q-33 0 -33 32zM528 -244q0 33 33 33t33 -33t-33 -32q-33 0 -33 32zM528 944q0 33 33 33t33 -33t-33 -33t-33 33zM662 152q0 33 32 32q33 1 33 -32t-33 -33t-32 33zM662 813q0 33 32 33q33 0 33 -33 t-33 -33t-32 33z" />
<glyph unicode="&#xe8;" horiz-adv-x="927" d="M0 285q0 33 33 32q33 1 33 -32t-33 -33t-33 33zM0 416q0 33 33 33t33 -33t-33 -33t-33 33zM0 549q0 33 33 33t33 -33t-33 -33t-33 33zM0 680q0 33 33 33t33 -33t-33 -33t-33 33zM133 152q0 33 33 32q33 1 33 -32t-33 -33t-33 33zM133 549q0 33 33 33t33 -33t-33 -33 t-33 33zM133 813q0 33 33 33t33 -33t-33 -33t-33 33zM264 20q0 33 33 33t33 -33t-33 -32q-33 0 -33 32zM264 549q0 33 33 33t33 -33t-33 -33t-33 33zM264 944q0 33 33 33t33 -33t-33 -33t-33 33zM268 1343q0 33 33 33t33 -33q0 -35 -33 -34q-33 0 -33 34zM397 20q0 33 33 33 t33 -33t-33 -32q-33 0 -33 32zM397 549q0 33 33 33t33 -33t-33 -33t-33 33zM397 944q0 33 33 33t33 -33t-33 -33t-33 33zM401 1210q0 33 33 33t33 -33t-33 -32q-33 0 -33 32zM528 20q0 33 33 33t33 -33t-33 -32q-33 0 -33 32zM528 549q0 33 33 33t33 -33t-33 -33t-33 33z M528 944q0 33 33 33t33 -33t-33 -33t-33 33zM662 152q0 33 32 32q33 1 33 -32t-33 -33t-32 33zM662 549q0 33 32 33q33 0 33 -33t-33 -33t-32 33zM662 680q0 33 32 33q33 0 33 -33t-33 -33t-32 33zM662 813q0 33 32 33q33 0 33 -33t-33 -33t-32 33z" />
<glyph unicode="&#xe9;" horiz-adv-x="927" d="M14 285q0 33 33 32q33 1 33 -32t-33 -33t-33 33zM14 416q0 33 33 33t33 -33t-33 -33t-33 33zM14 549q0 33 33 33t33 -33t-33 -33t-33 33zM14 680q0 33 33 33t33 -33t-33 -33t-33 33zM147 152q0 33 33 32q33 1 33 -32t-33 -33t-33 33zM147 549q0 33 33 33t33 -33t-33 -33 t-33 33zM147 813q0 33 33 33t33 -33t-33 -33t-33 33zM279 20q0 33 32 33q33 0 33 -33t-33 -32q-33 0 -32 32zM279 549q0 33 32 33q33 0 33 -33t-33 -33t-32 33zM279 944q0 33 32 33q33 0 33 -33t-33 -33t-32 33zM412 20q0 33 32 33q33 0 33 -33t-33 -32q-33 0 -32 32z M412 549q0 33 32 33q33 0 33 -33t-33 -33t-32 33zM412 944q0 33 32 33q33 0 33 -33t-33 -33t-32 33zM412 1208q0 33 32 33q33 0 33 -33t-33 -32q-33 0 -32 32zM543 20q0 33 32 33q33 0 33 -33t-33 -32q-33 0 -32 32zM543 549q0 33 32 33q33 0 33 -33t-33 -33t-32 33z M543 944q0 33 32 33q33 0 33 -33t-33 -33t-32 33zM543 1341q0 33 32 33q33 0 33 -33t-33 -32q-33 0 -32 32zM676 152q0 33 33 32q32 1 32 -32t-32 -33q-33 0 -33 33zM676 549q0 33 33 33q32 0 32 -33t-32 -33q-33 0 -33 33zM676 680q0 33 33 33q32 0 32 -33t-32 -33 q-33 0 -33 33zM676 813q0 33 33 33q32 0 32 -33t-32 -33q-33 0 -33 33z" />
<glyph unicode="&#xea;" horiz-adv-x="927" d="M0 285q0 33 33 32q33 1 33 -32t-33 -33t-33 33zM0 416q0 33 33 33t33 -33t-33 -33t-33 33zM0 549q0 33 33 33t33 -33t-33 -33t-33 33zM0 680q0 33 33 33t33 -33t-33 -33t-33 33zM133 152q0 33 33 32q33 1 33 -32t-33 -33t-33 33zM133 549q0 33 33 33t33 -33t-33 -33 t-33 33zM133 813q0 33 33 33t33 -33t-33 -33t-33 33zM264 20q0 33 33 33t33 -33t-33 -32q-33 0 -33 32zM264 549q0 33 33 33t33 -33t-33 -33t-33 33zM264 944q0 33 33 33t33 -33t-33 -33t-33 33zM264 1208q0 33 33 33t33 -33t-33 -32q-33 0 -33 32zM397 20q0 33 33 33 t33 -33t-33 -32q-33 0 -33 32zM397 549q0 33 33 33t33 -33t-33 -33t-33 33zM397 944q0 33 33 33t33 -33t-33 -33t-33 33zM397 1341q0 33 33 33t33 -33t-33 -32q-33 0 -33 32zM528 20q0 33 33 33t33 -33t-33 -32q-33 0 -33 32zM528 549q0 33 33 33t33 -33t-33 -33t-33 33z M528 944q0 33 33 33t33 -33t-33 -33t-33 33zM528 1208q0 33 33 33t33 -33t-33 -32q-33 0 -33 32zM662 152q0 33 32 32q33 1 33 -32t-33 -33t-32 33zM662 549q0 33 32 33q33 0 33 -33t-33 -33t-32 33zM662 680q0 33 32 33q33 0 33 -33t-33 -33t-32 33zM662 813q0 33 32 33 q33 0 33 -33t-33 -33t-32 33z" />
<glyph unicode="&#xeb;" horiz-adv-x="927" d="M0 285q0 33 33 32q33 1 33 -32t-33 -33t-33 33zM0 416q0 33 33 33t33 -33t-33 -33t-33 33zM0 549q0 33 33 33t33 -33t-33 -33t-33 33zM0 680q0 33 33 33t33 -33t-33 -33t-33 33zM133 152q0 33 33 32q33 1 33 -32t-33 -33t-33 33zM133 549q0 33 33 33t33 -33t-33 -33 t-33 33zM133 813q0 33 33 33t33 -33t-33 -33t-33 33zM264 20q0 33 33 33t33 -33t-33 -32q-33 0 -33 32zM264 549q0 33 33 33t33 -33t-33 -33t-33 33zM264 944q0 33 33 33t33 -33t-33 -33t-33 33zM264 1208q0 33 33 33t33 -33t-33 -32q-33 0 -33 32zM397 20q0 33 33 33 t33 -33t-33 -32q-33 0 -33 32zM397 549q0 33 33 33t33 -33t-33 -33t-33 33zM397 944q0 33 33 33t33 -33t-33 -33t-33 33zM528 20q0 33 33 33t33 -33t-33 -32q-33 0 -33 32zM528 549q0 33 33 33t33 -33t-33 -33t-33 33zM528 944q0 33 33 33t33 -33t-33 -33t-33 33zM528 1208 q0 33 33 33t33 -33t-33 -32q-33 0 -33 32zM662 152q0 33 32 32q33 1 33 -32t-33 -33t-32 33zM662 549q0 33 32 33q33 0 33 -33t-33 -33t-32 33zM662 680q0 33 32 33q33 0 33 -33t-33 -33t-32 33zM662 813q0 33 32 33q33 0 33 -33t-33 -33t-32 33z" />
<glyph unicode="&#xec;" horiz-adv-x="399" d="M0 1208q0 33 33 33t33 -33t-33 -32q-33 0 -33 32zM133 27q0 33 33 32q33 1 33 -32q0 -35 -33 -35t-33 35zM133 158q0 33 33 32q33 1 33 -32t-33 -33t-33 33zM133 291q0 33 33 33t33 -33t-33 -33t-33 33zM133 422q0 33 33 33t33 -33t-33 -33t-33 33zM133 555q0 33 33 33 t33 -33t-33 -33t-33 33zM133 686q0 33 33 33t33 -33t-33 -33t-33 33zM133 819q0 33 33 33t33 -33t-33 -33t-33 33zM133 1083q0 33 33 33t33 -33t-33 -32q-33 0 -33 32z" />
<glyph unicode="&#xed;" horiz-adv-x="395" d="M0 20q0 33 33 33t33 -33t-33 -32q-33 0 -33 32zM0 152q0 33 33 32q33 1 33 -32t-33 -33t-33 33zM0 285q0 33 33 32q33 1 33 -32t-33 -33t-33 33zM0 416q0 33 33 33t33 -33t-33 -33t-33 33zM0 549q0 33 33 33t33 -33t-33 -33t-33 33zM0 680q0 33 33 33t33 -33t-33 -33 t-33 33zM0 813q0 33 33 33t33 -33t-33 -33t-33 33zM0 1077q0 33 33 33t33 -33t-33 -33t-33 33zM133 1208q0 33 33 33t33 -33t-33 -32q-33 0 -33 32z" />
<glyph unicode="&#xee;" horiz-adv-x="528" d="M0 1077q0 33 33 33t33 -33t-33 -33t-33 33zM133 20q0 33 33 33t33 -33t-33 -32q-33 0 -33 32zM133 152q0 33 33 32q33 1 33 -32t-33 -33t-33 33zM133 285q0 33 33 32q33 1 33 -32t-33 -33t-33 33zM133 416q0 33 33 33t33 -33t-33 -33t-33 33zM133 549q0 33 33 33t33 -33 t-33 -33t-33 33zM133 680q0 33 33 33t33 -33t-33 -33t-33 33zM133 813q0 33 33 33t33 -33t-33 -33t-33 33zM133 1208q0 33 33 33t33 -33t-33 -32q-33 0 -33 32zM264 1077q0 33 33 33t33 -33t-33 -33t-33 33z" />
<glyph unicode="&#xef;" horiz-adv-x="526" d="M0 1077q0 33 33 33t33 -33t-33 -33t-33 33zM133 20q0 33 33 33t33 -33t-33 -32q-33 0 -33 32zM133 152q0 33 33 32q33 1 33 -32t-33 -33t-33 33zM133 285q0 33 33 32q33 1 33 -32t-33 -33t-33 33zM133 416q0 33 33 33t33 -33t-33 -33t-33 33zM133 549q0 33 33 33t33 -33 t-33 -33t-33 33zM133 680q0 33 33 33t33 -33t-33 -33t-33 33zM133 813q0 33 33 33t33 -33t-33 -33t-33 33zM264 1077q0 33 33 33t33 -33t-33 -33t-33 33z" />
<glyph unicode="&#xf0;" d="M0 285q0 33 33 32q33 1 33 -32t-33 -33t-33 33zM0 416q0 33 33 33t33 -33t-33 -33t-33 33zM0 549q0 33 33 33t33 -33t-33 -33t-33 33zM0 680q0 33 33 33t33 -33t-33 -33t-33 33zM133 152q0 33 33 32q33 1 33 -32t-33 -33t-33 33zM133 813q0 33 33 33t33 -33t-33 -33 t-33 33zM264 20q0 33 33 33t33 -33t-33 -32q-33 0 -33 32zM264 944q0 33 33 33t33 -33t-33 -33t-33 33zM266 1604q0 33 33 32q33 1 33 -32t-33 -33t-33 33zM397 20q0 33 33 33t33 -33t-33 -32q-33 0 -33 32zM397 944q0 33 33 33t33 -33t-33 -33t-33 33zM528 20q0 33 33 33 t33 -33t-33 -32q-33 0 -33 32zM528 944q0 33 33 33t33 -33t-33 -33t-33 33zM662 152q0 33 32 32q33 1 33 -32t-33 -33t-32 33zM662 813q0 33 32 33q33 0 33 -33t-33 -33t-32 33zM793 285q0 33 32 32q33 1 33 -32t-33 -33t-32 33zM793 416q0 33 32 33q33 0 33 -33t-33 -33 t-32 33zM793 549q0 33 32 33q33 0 33 -33t-33 -33t-32 33zM793 680q0 33 32 33q33 0 33 -33t-33 -33t-32 33z" />
<glyph unicode="&#xf1;" horiz-adv-x="931" d="M0 20q0 33 33 33t33 -33t-33 -32q-33 0 -33 32zM0 152q0 33 33 32q33 1 33 -32t-33 -33t-33 33zM0 285q0 33 33 32q33 1 33 -32t-33 -33t-33 33zM0 416q0 33 33 33t33 -33t-33 -33t-33 33zM0 549q0 33 33 33t33 -33t-33 -33t-33 33zM0 680q0 33 33 33t33 -33t-33 -33 t-33 33zM0 813q0 33 33 33t33 -33t-33 -33t-33 33zM0 944q0 33 33 33t33 -33t-33 -33t-33 33zM133 813q0 33 33 33t33 -33t-33 -33t-33 33zM133 1208q0 33 33 33t33 -33t-33 -32q-33 0 -33 32zM264 944q0 33 33 33t33 -33t-33 -33t-33 33zM264 1341q0 33 33 33t33 -33 t-33 -32q-33 0 -33 32zM397 944q0 33 33 33t33 -33t-33 -33t-33 33zM397 1208q0 33 33 33t33 -33t-33 -32q-33 0 -33 32zM528 813q0 33 33 33t33 -33t-33 -33t-33 33zM528 1341q0 33 33 33t33 -33t-33 -32q-33 0 -33 32zM662 20q0 33 32 33q33 0 33 -33t-33 -32 q-33 0 -32 32zM662 152q0 33 32 32q33 1 33 -32t-33 -33t-32 33zM662 285q0 33 32 32q33 1 33 -32t-33 -33t-32 33zM662 416q0 33 32 33q33 0 33 -33t-33 -33t-32 33zM662 549q0 33 32 33q33 0 33 -33t-33 -33t-32 33zM662 680q0 33 32 33q33 0 33 -33t-33 -33t-32 33z" />
<glyph unicode="&#xf2;" d="M0 285q0 33 33 32q33 1 33 -32t-33 -33t-33 33zM0 416q0 33 33 33t33 -33t-33 -33t-33 33zM0 549q0 33 33 33t33 -33t-33 -33t-33 33zM0 680q0 33 33 33t33 -33t-33 -33t-33 33zM133 152q0 33 33 32q33 1 33 -32t-33 -33t-33 33zM133 813q0 33 33 33t33 -33t-33 -33 t-33 33zM264 20q0 33 33 33t33 -33t-33 -32q-33 0 -33 32zM264 944q0 33 33 33t33 -33t-33 -33t-33 33zM264 1343q0 33 33 33t33 -33q0 -35 -33 -34q-33 0 -33 34zM397 20q0 33 33 33t33 -33t-33 -32q-33 0 -33 32zM397 944q0 33 33 33t33 -33t-33 -33t-33 33zM397 1210 q0 33 33 33t33 -33t-33 -32q-33 0 -33 32zM528 20q0 33 33 33t33 -33t-33 -32q-33 0 -33 32zM528 944q0 33 33 33t33 -33t-33 -33t-33 33zM662 152q0 33 32 32q33 1 33 -32t-33 -33t-32 33zM662 813q0 33 32 33q33 0 33 -33t-33 -33t-32 33zM793 285q0 33 32 32q33 1 33 -32 t-33 -33t-32 33zM793 416q0 33 32 33q33 0 33 -33t-33 -33t-32 33zM793 549q0 33 32 33q33 0 33 -33t-33 -33t-32 33zM793 680q0 33 32 33q33 0 33 -33t-33 -33t-32 33z" />
<glyph unicode="&#xf3;" d="M0 285q0 33 33 32q33 1 33 -32t-33 -33t-33 33zM0 416q0 33 33 33t33 -33t-33 -33t-33 33zM0 549q0 33 33 33t33 -33t-33 -33t-33 33zM0 680q0 33 33 33t33 -33t-33 -33t-33 33zM133 152q0 33 33 32q33 1 33 -32t-33 -33t-33 33zM133 813q0 33 33 33t33 -33t-33 -33 t-33 33zM264 20q0 33 33 33t33 -33t-33 -32q-33 0 -33 32zM264 944q0 33 33 33t33 -33t-33 -33t-33 33zM397 20q0 33 33 33t33 -33t-33 -32q-33 0 -33 32zM397 944q0 33 33 33t33 -33t-33 -33t-33 33zM397 1208q0 35 33 35t33 -35q0 -33 -33 -32q-33 0 -33 32zM528 20 q0 33 33 33t33 -33t-33 -32q-33 0 -33 32zM528 944q0 33 33 33t33 -33t-33 -33t-33 33zM530 1341q0 33 33 33t33 -33t-33 -32q-33 0 -33 32zM662 152q0 33 32 32q33 1 33 -32t-33 -33t-32 33zM662 813q0 33 32 33q33 0 33 -33t-33 -33t-32 33zM793 285q0 33 32 32 q33 1 33 -32t-33 -33t-32 33zM793 416q0 33 32 33q33 0 33 -33t-33 -33t-32 33zM793 549q0 33 32 33q33 0 33 -33t-33 -33t-32 33zM793 680q0 33 32 33q33 0 33 -33t-33 -33t-32 33z" />
<glyph unicode="&#xf4;" d="M0 285q0 33 33 32q33 1 33 -32t-33 -33t-33 33zM0 416q0 33 33 33t33 -33t-33 -33t-33 33zM0 549q0 33 33 33t33 -33t-33 -33t-33 33zM0 680q0 33 33 33t33 -33t-33 -33t-33 33zM133 152q0 33 33 32q33 1 33 -32t-33 -33t-33 33zM133 813q0 33 33 33t33 -33t-33 -33 t-33 33zM264 20q0 33 33 33t33 -33t-33 -32q-33 0 -33 32zM264 944q0 33 33 33t33 -33t-33 -33t-33 33zM264 1208q0 33 33 33t33 -33t-33 -32q-33 0 -33 32zM397 20q0 33 33 33t33 -33t-33 -32q-33 0 -33 32zM397 944q0 33 33 33t33 -33t-33 -33t-33 33zM397 1341 q0 33 33 33t33 -33t-33 -32q-33 0 -33 32zM528 20q0 33 33 33t33 -33t-33 -32q-33 0 -33 32zM528 944q0 33 33 33t33 -33t-33 -33t-33 33zM528 1208q0 33 33 33t33 -33t-33 -32q-33 0 -33 32zM662 152q0 33 32 32q33 1 33 -32t-33 -33t-32 33zM662 813q0 33 32 33 q33 0 33 -33t-33 -33t-32 33zM793 285q0 33 32 32q33 1 33 -32t-33 -33t-32 33zM793 416q0 33 32 33q33 0 33 -33t-33 -33t-32 33zM793 549q0 33 32 33q33 0 33 -33t-33 -33t-32 33zM793 680q0 33 32 33q33 0 33 -33t-33 -33t-32 33z" />
<glyph unicode="&#xf5;" d="M0 285q0 33 33 32q33 1 33 -32t-33 -33t-33 33zM0 416q0 33 33 33t33 -33t-33 -33t-33 33zM0 549q0 33 33 33t33 -33t-33 -33t-33 33zM0 680q0 33 33 33t33 -33t-33 -33t-33 33zM133 152q0 33 33 32q33 1 33 -32t-33 -33t-33 33zM133 813q0 33 33 33t33 -33t-33 -33 t-33 33zM264 20q0 33 33 33t33 -33t-33 -32q-33 0 -33 32zM264 944q0 33 33 33t33 -33t-33 -33t-33 33zM264 1208q0 33 33 33t33 -33t-33 -32q-33 0 -33 32zM397 20q0 33 33 33t33 -33t-33 -32q-33 0 -33 32zM397 944q0 33 33 33t33 -33t-33 -33t-33 33zM397 1341 q0 33 33 33t33 -33t-33 -32q-33 0 -33 32zM528 20q0 33 33 33t33 -33t-33 -32q-33 0 -33 32zM528 944q0 33 33 33t33 -33t-33 -33t-33 33zM528 1208q0 33 33 33t33 -33t-33 -32q-33 0 -33 32zM662 152q0 33 32 32q33 1 33 -32t-33 -33t-32 33zM662 813q0 33 32 33 q33 0 33 -33t-33 -33t-32 33zM662 1341q0 33 32 33q33 0 33 -33t-33 -32q-33 0 -32 32zM793 285q0 33 32 32q33 1 33 -32t-33 -33t-32 33zM793 416q0 33 32 33q33 0 33 -33t-33 -33t-32 33zM793 549q0 33 32 33q33 0 33 -33t-33 -33t-32 33zM793 680q0 33 32 33q33 0 33 -33 t-33 -33t-32 33z" />
<glyph unicode="&#xf6;" d="M-14 285q0 33 32 32q33 1 33 -32t-33 -33t-32 33zM-14 416q0 33 32 33q33 0 33 -33t-33 -33t-32 33zM-14 549q0 33 32 33q33 0 33 -33t-33 -33t-32 33zM-14 680q0 33 32 33q33 0 33 -33t-33 -33t-32 33zM119 152q0 33 33 32q32 1 32 -32t-32 -33q-33 0 -33 33zM119 813 q0 33 33 33q32 0 32 -33t-32 -33q-33 0 -33 33zM250 20q0 33 33 33q32 0 32 -33t-32 -32q-33 0 -33 32zM250 944q0 33 33 33q32 0 32 -33t-32 -33q-33 0 -33 33zM250 1208q0 33 33 33q32 0 32 -33t-32 -32q-33 0 -33 32zM383 20q0 33 33 33t33 -33t-33 -32q-33 0 -33 32z M383 944q0 33 33 33t33 -33t-33 -33t-33 33zM514 20q0 33 33 33t33 -33t-33 -32q-33 0 -33 32zM514 944q0 33 33 33t33 -33t-33 -33t-33 33zM514 1208q0 33 33 33t33 -33t-33 -32q-33 0 -33 32zM647 152q0 33 33 32q33 1 33 -32t-33 -33t-33 33zM647 813q0 33 33 33t33 -33 t-33 -33t-33 33zM778 285q0 33 33 32q33 1 33 -32t-33 -33t-33 33zM778 416q0 33 33 33t33 -33t-33 -33t-33 33zM778 549q0 33 33 33t33 -33t-33 -33t-33 33zM778 680q0 33 33 33t33 -33t-33 -33t-33 33z" />
<glyph unicode="&#xf7;" horiz-adv-x="802" d="M-2 809q0 33 35 33q33 0 33 -33t-33 -33q-35 0 -35 33zM131 809q0 33 33 33t33 -33t-33 -33t-33 33zM262 809q0 33 35 33q33 0 33 -33t-33 -33q-35 0 -35 33zM266 545q0 33 33 33t33 -33t-33 -33t-33 33zM270 1075q0 33 33 33t33 -33t-33 -33t-33 33zM395 809q0 33 33 33 t33 -33t-33 -33t-33 33zM528 809q0 33 33 33t33 -33t-33 -33t-33 33z" />
<glyph unicode="&#xf8;" horiz-adv-x="1185" d="M0 20q0 33 33 33t33 -33t-33 -32q-33 0 -33 32zM133 152q0 33 33 32q33 1 33 -32t-33 -33t-33 33zM145 287q0 35 35 35q33 0 33 -35q0 -33 -33 -33q-35 0 -35 33zM145 420q0 33 35 33q33 0 33 -33t-33 -33q-35 0 -35 33zM145 551q0 35 35 35q33 0 33 -35q0 -33 -33 -33 q-35 0 -35 33zM145 684q0 33 35 33q33 0 33 -33t-33 -33q-35 0 -35 33zM264 285q0 33 33 32q33 1 33 -32t-33 -33t-33 33zM279 156q0 33 32 32q35 1 35 -32t-35 -33q-33 0 -32 33zM279 815q0 35 32 35q33 0 33 -35q0 -33 -33 -33t-32 33zM395 412q0 35 33 34q33 1 33 -34 q0 -33 -33 -33t-33 33zM412 23q0 35 32 34q33 1 33 -34q0 -33 -33 -33t-32 33zM412 948q0 33 32 33q33 0 33 -33t-33 -33t-32 33zM528 549q0 33 33 33t33 -33t-33 -33t-33 33zM543 23q0 35 32 34q33 1 33 -34q0 -33 -33 -33t-32 33zM543 948q0 33 32 33q33 0 33 -33t-33 -33 t-32 33zM662 680q0 33 32 33q33 0 33 -33t-33 -33t-32 33zM676 23q0 35 33 34q32 1 32 -34q0 -33 -32 -33q-33 0 -33 33zM676 948q0 33 33 33q32 0 32 -33t-32 -33q-33 0 -33 33zM807 156q0 33 33 32q32 1 32 -32t-32 -33q-33 0 -33 33zM807 815q0 35 33 35q32 0 32 -35 q0 -33 -32 -33q-33 0 -33 33zM926 944q0 33 32 33q33 0 33 -33t-33 -33t-32 33zM940 287q0 35 33 35t33 -35q0 -33 -33 -33t-33 33zM940 420q0 33 33 33t33 -33t-33 -33t-33 33zM940 551q0 35 33 35t33 -35q0 -33 -33 -33t-33 33zM940 684q0 33 33 33t33 -33t-33 -33t-33 33 z" />
<glyph unicode="&#xf9;" horiz-adv-x="931" d="M12 283q0 33 33 32q33 1 33 -32t-33 -33t-33 33zM12 416q0 33 33 33t33 -33t-33 -33t-33 33zM12 547q0 33 33 33t33 -33t-33 -33t-33 33zM12 680q0 33 33 33t33 -33t-33 -33t-33 33zM12 811q0 33 33 33t33 -33t-33 -33t-33 33zM12 944q0 33 33 33t33 -33t-33 -33t-33 33z M143 152q0 33 35 32q33 1 33 -32t-33 -33q-35 0 -35 33zM264 1341q0 33 33 33t33 -33t-33 -32q-33 0 -33 32zM276 18q0 33 33 33t33 -33t-33 -32q-33 0 -33 32zM395 1208q0 33 33 33t33 -33t-33 -32q-33 0 -33 32zM408 18q0 33 34 33q33 0 33 -33t-33 -32q-35 0 -34 32z M541 152q0 33 32 32q33 1 33 -32t-33 -33t-32 33zM672 18q0 33 35 33q32 0 32 -33t-32 -32q-35 0 -35 32zM672 152q0 33 35 32q32 1 32 -32t-32 -33q-35 0 -35 33zM672 283q0 33 35 32q32 1 32 -32t-32 -33q-35 0 -35 33zM672 416q0 33 35 33q32 0 32 -33t-32 -33 q-35 0 -35 33zM672 547q0 33 35 33q32 0 32 -33t-32 -33q-35 0 -35 33zM672 680q0 33 35 33q32 0 32 -33t-32 -33q-35 0 -35 33zM672 811q0 33 35 33q32 0 32 -33t-32 -33q-35 0 -35 33zM672 944q0 33 35 33q32 0 32 -33t-32 -33q-35 0 -35 33z" />
<glyph unicode="&#xfa;" horiz-adv-x="931" d="M6 285q0 33 33 32q33 1 33 -32t-33 -33t-33 33zM6 418q0 33 33 33t33 -33t-33 -33t-33 33zM6 549q0 33 33 33t33 -33t-33 -33t-33 33zM6 682q0 33 33 33t33 -33t-33 -33t-33 33zM6 813q0 33 33 33t33 -33t-33 -33t-33 33zM6 946q0 33 33 33t33 -33t-33 -33t-33 33z M137 154q0 33 35 32q33 1 33 -32t-33 -33q-35 0 -35 33zM264 1208q0 33 33 33t33 -33t-33 -32q-33 0 -33 32zM270 20q0 33 33 33t33 -33t-33 -32q-33 0 -33 32zM397 1341q0 33 33 33t33 -33t-33 -32q-33 0 -33 32zM401 20q0 33 35 33q33 0 33 -33t-33 -32q-35 0 -35 32z M535 154q0 33 32 32q33 1 33 -32t-33 -33t-32 33zM666 20q0 33 34 33q33 0 33 -33t-33 -32q-35 0 -34 32zM666 154q0 33 34 32q33 1 33 -32t-33 -33q-35 0 -34 33zM666 285q0 33 34 32q33 1 33 -32t-33 -33q-35 0 -34 33zM666 418q0 33 34 33q33 0 33 -33t-33 -33 q-35 0 -34 33zM666 549q0 33 34 33q33 0 33 -33t-33 -33q-35 0 -34 33zM666 682q0 33 34 33q33 0 33 -33t-33 -33q-35 0 -34 33zM666 813q0 33 34 33q33 0 33 -33t-33 -33q-35 0 -34 33zM666 946q0 33 34 33q33 0 33 -33t-33 -33q-35 0 -34 33z" />
<glyph unicode="&#xfb;" horiz-adv-x="931" d="M8 279q0 33 33 32q33 1 33 -32t-33 -33t-33 33zM8 412q0 33 33 32q33 1 33 -32t-33 -33t-33 33zM8 543q0 33 33 32q33 1 33 -32t-33 -33t-33 33zM8 676q0 33 33 33t33 -33t-33 -33t-33 33zM8 807q0 33 33 33t33 -33t-33 -33t-33 33zM8 940q0 33 33 33t33 -33t-33 -33 t-33 33zM139 147q0 33 35 33q33 0 33 -33t-33 -32q-35 0 -35 32zM272 14q0 33 33 33t33 -33t-33 -32q-33 0 -33 32zM272 1208q0 33 33 33t33 -33t-33 -32q-33 0 -33 32zM403 14q0 33 35 33q33 0 33 -33t-33 -32q-35 0 -35 32zM403 1341q0 33 33 33q35 0 35 -33t-35 -32 q-33 0 -33 32zM537 147q0 33 32 33q33 0 33 -33t-33 -32q-33 0 -32 32zM537 1208q0 33 32 33q33 0 33 -33t-33 -32q-33 0 -32 32zM668 14q0 33 34 33q33 0 33 -33t-33 -32q-35 0 -34 32zM668 147q0 33 34 33q33 0 33 -33t-33 -32q-35 0 -34 32zM668 279q0 33 34 32 q33 1 33 -32t-33 -33q-35 0 -34 33zM668 412q0 33 34 32q33 1 33 -32t-33 -33q-35 0 -34 33zM668 543q0 33 34 32q33 1 33 -32t-33 -33q-35 0 -34 33zM668 676q0 33 34 33q33 0 33 -33t-33 -33q-35 0 -34 33zM668 807q0 33 34 33q33 0 33 -33t-33 -33q-35 0 -34 33zM668 940 q0 33 34 33q33 0 33 -33t-33 -33q-35 0 -34 33z" />
<glyph unicode="&#xfc;" horiz-adv-x="931" d="M8 279q0 33 33 32q33 1 33 -32t-33 -33t-33 33zM8 412q0 33 33 32q33 1 33 -32t-33 -33t-33 33zM8 543q0 33 33 32q33 1 33 -32t-33 -33t-33 33zM8 676q0 33 33 33t33 -33t-33 -33t-33 33zM8 807q0 33 33 33t33 -33t-33 -33t-33 33zM8 940q0 33 33 33t33 -33t-33 -33 t-33 33zM133 1208q0 33 33 33t33 -33t-33 -32q-33 0 -33 32zM139 147q0 33 35 33q33 0 33 -33t-33 -32q-35 0 -35 32zM272 14q0 33 33 33t33 -33t-33 -32q-33 0 -33 32zM403 14q0 33 35 33q33 0 33 -33t-33 -32q-35 0 -35 32zM528 1208q0 33 33 33t33 -33t-33 -32 q-33 0 -33 32zM537 147q0 33 32 33q33 0 33 -33t-33 -32q-33 0 -32 32zM668 14q0 33 34 33q33 0 33 -33t-33 -32q-35 0 -34 32zM668 147q0 33 34 33q33 0 33 -33t-33 -32q-35 0 -34 32zM668 279q0 33 34 32q33 1 33 -32t-33 -33q-35 0 -34 33zM668 412q0 33 34 32 q33 1 33 -32t-33 -33q-35 0 -34 33zM668 543q0 33 34 32q33 1 33 -32t-33 -33q-35 0 -34 33zM668 676q0 33 34 33q33 0 33 -33t-33 -33q-35 0 -34 33zM668 807q0 33 34 33q33 0 33 -33t-33 -33q-35 0 -34 33zM668 940q0 33 34 33q33 0 33 -33t-33 -33q-35 0 -34 33z" />
<glyph unicode="&#xfe;" horiz-adv-x="927" d="M0 1077q0 33 33 33t33 -33t-33 -33t-33 33zM0 1208q0 33 33 33t33 -33t-33 -32q-33 0 -33 32zM0 1341q0 33 33 33t33 -33t-33 -32q-33 0 -33 32zM0 1473q0 35 33 34q33 1 33 -34q0 -33 -33 -33t-33 33zM4 12q0 33 33 33t33 -33t-33 -32q-33 0 -33 32zM4 -119q0 33 33 33 t33 -33t-33 -33t-33 33zM4 145q0 33 33 33t33 -33t-33 -32q-33 0 -33 32zM4 -252q0 33 33 33t33 -33t-33 -33t-33 33zM4 276q0 33 33 33t33 -33t-33 -32q-33 0 -33 32zM4 -385q0 33 33 33t33 -33t-33 -33t-33 33zM4 410q0 33 33 32q33 1 33 -32t-33 -33t-33 33zM4 541 q0 33 33 32q33 1 33 -32t-33 -33t-33 33zM4 674q0 33 33 33t33 -33t-33 -33t-33 33zM4 805q0 33 33 33t33 -33t-33 -33t-33 33zM4 938q0 33 33 33t33 -33t-33 -33t-33 33zM129 805q0 33 33 33t33 -33t-33 -33t-33 33zM135 274q0 35 33 35t33 -35q0 -33 -33 -32q-33 0 -33 32 zM268 938q0 33 33 33t33 -33t-33 -33t-33 33zM272 139q0 33 33 33t33 -33t-33 -33t-33 33zM399 938q0 33 35 33q33 0 33 -33t-33 -33q-35 0 -35 33zM403 139q0 33 33 33q35 0 35 -33t-35 -33q-33 0 -33 33zM532 145q0 33 33 33t33 -33t-33 -32q-33 0 -33 32zM532 805 q0 33 33 33t33 -33t-33 -33t-33 33zM664 276q0 33 34 33q33 0 33 -33t-33 -32q-35 0 -34 32zM664 410q0 33 34 32q33 1 33 -32t-33 -33q-35 0 -34 33zM664 541q0 33 34 32q33 1 33 -32t-33 -33q-35 0 -34 33zM664 674q0 33 34 33q33 0 33 -33t-33 -33q-35 0 -34 33z" />
<glyph unicode="&#xff;" horiz-adv-x="927" d="M0 -244q0 33 33 33t33 -33t-33 -32q-33 0 -33 32zM0 285q0 33 33 32q33 1 33 -32t-33 -33t-33 33zM0 416q0 33 33 33t33 -33t-33 -33t-33 33zM0 549q0 33 33 33t33 -33t-33 -33t-33 33zM0 680q0 33 33 33t33 -33t-33 -33t-33 33zM0 813q0 33 33 33t33 -33t-33 -33t-33 33 zM0 944q0 33 33 33t33 -33t-33 -33t-33 33zM133 152q0 33 33 32q33 1 33 -32t-33 -33t-33 33zM133 -377q0 33 33 33t33 -33t-33 -33t-33 33zM133 1208q0 33 33 33t33 -33t-33 -32q-33 0 -33 32zM260 147q0 33 33 33t33 -33q0 -35 -33 -34q-33 0 -33 34zM264 -377q0 33 33 33 t33 -33t-33 -33t-33 33zM393 147q0 33 33 33t33 -33q0 -35 -33 -34q-33 0 -33 34zM395 1208q0 33 33 33t33 -33t-33 -32q-33 0 -33 32zM397 -377q0 33 33 33t33 -33t-33 -33t-33 33zM528 -377q0 33 33 33t33 -33t-33 -33t-33 33zM530 283q0 33 33 32q33 1 33 -32t-33 -33 t-33 33zM662 20q0 33 32 33q33 0 33 -33t-33 -32q-33 0 -32 32zM662 -113q0 33 32 33q33 0 33 -33t-33 -32q-33 0 -32 32zM662 152q0 33 32 32q33 1 33 -32t-33 -33t-32 33zM662 -244q0 33 32 33q33 0 33 -33t-33 -32q-33 0 -32 32zM662 285q0 33 32 32q33 1 33 -32t-33 -33 t-32 33zM662 416q0 33 32 33q33 0 33 -33t-33 -33t-32 33zM662 549q0 33 32 33q33 0 33 -33t-33 -33t-32 33zM662 680q0 33 32 33q33 0 33 -33t-33 -33t-32 33zM662 813q0 33 32 33q33 0 33 -33t-33 -33t-32 33zM662 944q0 33 32 33q33 0 33 -33t-33 -33t-32 33z" />
<glyph unicode="&#x152;" horiz-adv-x="1515" d="M27 285q0 33 32 32q33 1 33 -32t-33 -33t-32 33zM27 416q0 33 32 33q33 0 33 -33t-33 -33t-32 33zM27 549q0 33 32 33q33 0 33 -33t-33 -33t-32 33zM27 680q0 33 32 33q33 0 33 -33t-33 -33t-32 33zM27 813q0 33 32 33q33 0 33 -33t-33 -33t-32 33zM35 942q0 33 33 33 q32 0 32 -33t-32 -33q-33 0 -33 33zM35 1075q0 33 33 33q32 0 32 -33t-32 -33q-33 0 -33 33zM35 1206q0 33 33 33q32 0 32 -33t-32 -32q-33 0 -33 32zM160 152q0 33 33 32q32 1 32 -32t-32 -33q-33 0 -33 33zM166 1339q0 33 33 33q34 0 34 -33t-34 -32q-33 0 -33 32zM291 20 q0 33 33 33q32 0 32 -33t-32 -32q-33 0 -33 32zM299 1470q0 33 33 33t33 -33t-33 -32q-33 0 -33 32zM424 20q0 33 33 33q32 0 32 -33t-32 -32q-33 0 -33 32zM430 1470q0 33 33 33q35 0 35 -33t-35 -32q-33 0 -33 32zM555 20q0 33 33 33t33 -33t-33 -32q-33 0 -33 32z M563 1470q0 33 33 33t33 -33t-33 -32q-33 0 -33 32zM707 20q0 33 32 33q33 0 33 -33t-33 -32q-33 0 -32 32zM707 152q0 33 32 32q33 1 33 -32t-33 -33t-32 33zM707 285q0 33 32 32q33 1 33 -32t-33 -33t-32 33zM707 416q0 33 32 33q33 0 33 -33t-33 -33t-32 33zM707 549 q0 33 32 33q33 0 33 -33t-33 -33t-32 33zM709 678q0 33 32 33q35 0 35 -33q0 -35 -35 -35q-33 0 -32 35zM709 809q0 33 32 33q35 0 35 -33t-35 -33q-33 0 -32 33zM709 942q0 33 32 33q35 0 35 -33t-35 -33q-33 0 -32 33zM709 1073q0 33 32 33q35 0 35 -33t-35 -33 q-33 0 -32 33zM709 1206q0 33 32 33q35 0 35 -33t-35 -32q-33 0 -32 32zM709 1337q0 33 32 33q35 0 35 -33t-35 -32q-33 0 -32 32zM709 1470q0 33 32 33q35 0 35 -33t-35 -32q-33 0 -32 32zM840 20q0 33 32 33q33 0 33 -33t-33 -32q-33 0 -32 32zM842 809q0 33 32 33 q33 0 33 -33t-33 -33t-32 33zM842 1470q0 33 32 33q33 0 33 -33t-33 -32q-33 0 -32 32zM971 20q0 33 33 33q32 0 32 -33t-32 -32q-33 0 -33 32zM973 809q0 33 33 33q34 0 34 -33t-34 -33q-33 0 -33 33zM973 1470q0 33 33 33q34 0 34 -33t-34 -32q-33 0 -33 32zM1104 20 q0 33 33 33q32 0 32 -33t-32 -32q-33 0 -33 32zM1106 809q0 33 33 33q32 0 32 -33t-32 -33q-33 0 -33 33zM1106 1470q0 33 33 33q32 0 32 -33t-32 -32q-33 0 -33 32zM1235 20q0 33 33 33q32 0 32 -33t-32 -32q-33 0 -33 32zM1237 809q0 33 33 33q35 0 35 -33t-35 -33 q-33 0 -33 33zM1237 1470q0 33 33 33q35 0 35 -33t-35 -32q-33 0 -33 32zM1368 20q0 33 33 33t33 -33t-33 -32q-33 0 -33 32zM1370 809q0 33 33 33t33 -33t-33 -33t-33 33zM1370 1470q0 33 33 33t33 -33t-33 -32q-33 0 -33 32z" />
<glyph unicode="&#x153;" horiz-adv-x="1583" d="M0 285q0 33 33 32q33 1 33 -32t-33 -33t-33 33zM0 416q0 33 33 33t33 -33t-33 -33t-33 33zM0 549q0 33 33 33t33 -33t-33 -33t-33 33zM0 680q0 33 33 33t33 -33t-33 -33t-33 33zM133 152q0 33 33 32q33 1 33 -32t-33 -33t-33 33zM133 813q0 33 33 33t33 -33t-33 -33 t-33 33zM264 20q0 33 33 33t33 -33t-33 -32q-33 0 -33 32zM264 944q0 33 33 33t33 -33t-33 -33t-33 33zM397 20q0 33 33 33t33 -33t-33 -32q-33 0 -33 32zM397 944q0 33 33 33t33 -33t-33 -33t-33 33zM528 20q0 33 33 33t33 -33t-33 -32q-33 0 -33 32zM528 944q0 33 33 33 t33 -33t-33 -33t-33 33zM662 152q0 33 32 32q33 1 33 -32t-33 -33t-32 33zM662 813q0 33 32 33q33 0 33 -33t-33 -33t-32 33zM778 285q0 33 33 32q33 1 33 -32t-33 -33t-33 33zM778 416q0 33 33 33t33 -33t-33 -33t-33 33zM778 549q0 33 33 33t33 -33t-33 -33t-33 33z M778 680q0 33 33 33t33 -33t-33 -33t-33 33zM911 152q0 33 33 32q33 1 33 -32t-33 -33t-33 33zM911 549q0 33 33 33t33 -33t-33 -33t-33 33zM911 813q0 33 33 33t33 -33t-33 -33t-33 33zM1042 20q0 33 33 33t33 -33t-33 -32q-33 0 -33 32zM1042 549q0 33 33 33t33 -33 t-33 -33t-33 33zM1042 944q0 33 33 33t33 -33t-33 -33t-33 33zM1176 20q0 33 32 33q33 0 33 -33t-33 -32q-33 0 -32 32zM1176 549q0 33 32 33q33 0 33 -33t-33 -33t-32 33zM1176 944q0 33 32 33q33 0 33 -33t-33 -33t-32 33zM1307 20q0 33 32 33q33 0 33 -33t-33 -32 q-33 0 -32 32zM1307 549q0 33 32 33q33 0 33 -33t-33 -33t-32 33zM1307 944q0 33 32 33q33 0 33 -33t-33 -33t-32 33zM1440 152q0 33 33 32q32 1 32 -32t-32 -33q-33 0 -33 33zM1440 549q0 33 33 33q32 0 32 -33t-32 -33q-33 0 -33 33zM1440 680q0 33 33 33q32 0 32 -33 t-32 -33q-33 0 -33 33zM1440 813q0 33 33 33q32 0 32 -33t-32 -33q-33 0 -33 33z" />
<glyph unicode="&#x2c6;" horiz-adv-x="534" />
<glyph unicode="&#x2dc;" horiz-adv-x="663" />
<glyph unicode="&#x2000;" horiz-adv-x="821" />
<glyph unicode="&#x2001;" horiz-adv-x="1642" />
<glyph unicode="&#x2002;" horiz-adv-x="821" />
<glyph unicode="&#x2003;" horiz-adv-x="1642" />
<glyph unicode="&#x2004;" horiz-adv-x="547" />
<glyph unicode="&#x2005;" horiz-adv-x="410" />
<glyph unicode="&#x2006;" horiz-adv-x="273" />
<glyph unicode="&#x2007;" horiz-adv-x="273" />
<glyph unicode="&#x2008;" horiz-adv-x="205" />
<glyph unicode="&#x2009;" horiz-adv-x="328" />
<glyph unicode="&#x200a;" horiz-adv-x="91" />
<glyph unicode="&#x2013;" horiz-adv-x="532" d="M6 541q0 33 33 32q33 1 33 -32t-33 -33t-33 33zM139 541q0 33 33 32q33 1 33 -32t-33 -33t-33 33zM270 541q0 33 33 32q33 1 33 -32t-33 -33t-33 33z" />
<glyph unicode="&#x2014;" horiz-adv-x="847" d="M6 541q0 33 33 32q33 1 33 -32t-33 -33t-33 33zM139 541q0 33 33 32q33 1 33 -32t-33 -33t-33 33zM270 541q0 33 33 32q33 1 33 -32t-33 -33t-33 33zM438 541q0 33 33 32q33 1 33 -32t-33 -33t-33 33zM569 541q0 33 33 32q33 1 33 -32t-33 -33t-33 33z" />
<glyph unicode="&#x2018;" horiz-adv-x="397" d="M0 1208q0 33 33 33t33 -33t-33 -32q-33 0 -33 32zM0 1341q0 33 33 33t33 -33t-33 -32q-33 0 -33 32zM133 1473q0 35 33 34q33 1 33 -34q0 -33 -33 -33t-33 33z" />
<glyph unicode="&#x2019;" horiz-adv-x="397" d="M0 1208q0 33 33 33t33 -33t-33 -32q-33 0 -33 32zM143 1339q0 33 33 33t33 -33t-33 -32q-33 0 -33 32zM143 1470q0 35 33 35t33 -35q0 -33 -33 -32q-33 0 -33 32z" />
<glyph unicode="&#x202f;" horiz-adv-x="328" />
<glyph unicode="&#x2039;" horiz-adv-x="552" d="M205 532q0 35 33 35q32 0 32 -35q0 -33 -32 -32q-33 0 -33 32zM338 401q0 33 33 33q32 0 32 -33t-32 -32q-33 0 -33 32zM338 666q0 33 33 32q32 1 32 -32t-32 -33q-33 0 -33 33z" />
<glyph unicode="&#x203a;" horiz-adv-x="552" d="M205 401q0 33 33 33q32 0 32 -33t-32 -32q-33 0 -33 32zM205 666q0 33 33 32q32 1 32 -32t-32 -33q-33 0 -33 33zM338 535q0 33 33 32q32 1 32 -32q0 -35 -32 -35q-33 0 -33 35z" />
<glyph unicode="&#x205f;" horiz-adv-x="410" />
<glyph unicode="&#x20ac;" horiz-adv-x="1056" d="M-129 680q0 33 33 33t33 -33t-33 -33t-33 33zM-129 944q0 33 33 33t33 -33t-33 -33t-33 33zM0 285q0 33 33 32q33 1 33 -32t-33 -33t-33 33zM0 416q0 33 33 33t33 -33t-33 -33t-33 33zM0 549q0 33 33 33t33 -33t-33 -33t-33 33zM0 944q0 18 8 26.5t27 8.5q33 0 33 -33 q0 -18 -8.5 -26.5t-26.5 -8.5q-33 0 -33 33zM2 815q0 33 33 33t33 -33q0 -35 -33 -35t-33 35zM2 1079q0 33 33 33t33 -33q0 -35 -33 -35t-33 35zM2 1210q0 33 33 33t33 -33t-33 -32q-33 0 -33 32zM133 152q0 33 33 32q33 1 33 -32t-33 -33t-33 33zM133 680q0 33 33 33 t33 -33t-33 -33t-33 33zM133 944q0 33 33 33t33 -33t-33 -33t-33 33zM133 1343q0 33 33 33q35 0 35 -33t-35 -32q-33 0 -33 32zM264 20q0 33 33 33t33 -33t-33 -32q-33 0 -33 32zM264 680q0 33 33 33t33 -33t-33 -33t-33 33zM264 944q0 33 33 33t33 -33t-33 -33t-33 33z M266 1475q0 33 33 32q33 1 33 -32t-33 -33t-33 33zM397 20q0 33 33 33t33 -33t-33 -32q-33 0 -33 32zM397 680q0 33 33 33t33 -33t-33 -33t-33 33zM397 944q0 33 33 33t33 -33t-33 -33t-33 33zM397 1475q0 33 33 32q35 1 35 -32t-35 -33q-33 0 -33 33zM528 20q0 33 33 33 t33 -33t-33 -32q-33 0 -33 32zM530 1475q0 33 33 32q33 1 33 -32t-33 -33t-33 33zM662 152q0 33 32 32q33 1 33 -32t-33 -33t-32 33zM662 1343q0 33 32 33q35 0 35 -33t-35 -32q-33 0 -32 32zM793 285q0 33 32 32q33 1 33 -32t-33 -33t-32 33zM793 416q0 33 32 33 q33 0 33 -33t-33 -33t-32 33zM795 1210q0 33 32 33q33 0 33 -33t-33 -32q-33 0 -32 32z" />
<glyph unicode="&#x25fc;" horiz-adv-x="972" d="M0 0v973h973v-973h-973z" />
</font>
</defs>
</svg>
