<svg xmlns="http://www.w3.org/2000/svg" xmlns:xlink="http://www.w3.org/1999/xlink" width="111.025" height="45.618" viewBox="0 0 111.025 45.618"><defs><path id="a" d="M0 0h111.025v45.618H0z"/></defs><clipPath id="b"><use xlink:href="#a" overflow="visible"/></clipPath><path d="M44.782 28.737c.04 1.302.098 2.476.95 3.425-.158-1.146-.415-2.265-.95-3.425M45.85 38.92c-.39.773-.973 1.354-1.264 2.118-.103.27-.318.46-.502.674-.416.484-.806.156-1.12-.07-.322-.233-.14-.56.05-.848.246-.378.464-.775.69-1.167.064-.11.155-.223.106-.366-.063-.182-.353-.328-.183-.542.28-.35.445-.795.845-1.047.11-.07.23-.13.336-.207.452-.334.715-.68.68-1.348-.063-1.132-.36-2.188-.673-3.252-.11-.375-.265-.725-.55-1.03-.386-.417-.275-1.04-.515-1.53-.113-.234-.114-.515-.314-.716-.095-.096-.158-.24-.102-.365.407-.895.042-1.75-.17-2.59-.443-1.77-.923-3.535-1.565-5.248-.132-.35-.233-.718-.633-.89-.212-.09-.263-.296-.275-.52-.078-1.44-.67-2.73-1.262-4.01-.183-.395-.355-.785-.482-1.2-.46-1.49-.892-2.988-1.71-4.34-.15-.246-.15-.58-.242-.867-.13-.403-.24-.787-.555-1.14-.323-.36-.232-.93-.143-1.404.167-.894.234-1.79.215-2.696-.018-.795.144-.978.934-1.1.342-.054.49-.402.832-.492.218.457-.746.583-.257 1.08-.696-.056-.766.01-.777.698-.002.075.01.15.002.226-.122 1.214.138 2.36.55 3.5.427 1.183.657 2.438 1.415 3.485.05.07.095.19.068.26-.233.58.2.99.34 1.53.222-.166.172-.363.166-.53-.027-.798.147-1.603-.017-2.393-.1-.487-.245-1.002-.514-1.41-.417-.63-.463-1.42-.98-2.002-.203-.23.287-.75.665-.726 1.02.067 2.452 1.363 2.564 2.394.075.684-.07 1.38.035 2.07.073.48.048.978.274 1.43.038.075.05.223.007.263-.418.387-.062.634.164.877.325.35.627.698.713 1.188.015.086.07.212.134.234.716.244.64.87.713 1.43.01.088.052.228.11.246.678.216.693.988 1.174 1.386.246.203.62.636.41.896-.22.268-.593-.117-.855-.3-.787-.54-1.34-1.308-1.862-2.083-.227-.337-.54-.618-.677-1.103-.1.36.02.607.083.85.642 2.43 1.686 4.714 2.63 7.033.285.702.64 1.303.72 2.14.164 1.774.837 3.467 1.443 5.152.065.18.165.337.31.466.103.09.168.193.144.345-.14.877.01 1.6.533 2.457.472-.712.956-1.372 1.362-2.077.373-.646.695-1.324 1.023-1.995.946-1.932 1.617-3.967 2.398-5.956.66-1.678 1.23-3.395 1.903-5.07.194-.485.195-.94.06-1.423-.154-.562-.294-1.128-.447-1.69-.162-.594-.753-.795-1.11-1.207-.512-.59-1.222-.59-1.92-.655.002-.052.005-.102.01-.152l1.094-.204c.01-.043.035-.09.02-.108-.173-.25-.325-.59-.157-.804.18-.228.532-.277.885-.21.907.175.874.156.825-.823-.082-1.67-.336-3.332-.194-5.013.07-.83.098-1.722-.29-2.44-.45-.836-.257-1.852-.893-2.605-.217-.257-.03-.503.216-.655.28-.176.41.06.536.24.205.295.397.598.595.895.062.093.112.203.26.127.4-.203.795-.085.857.346.087.6.623 1.182.123 1.82.05 1.618-.183 3.234-.033 4.855.084.92.215 1.83.46 2.72.07.25.058.583.535.36.37-.175.434.21.414.467-.025.34-.016.67.06 1.067.536-.775.72-1.638.9-2.47.208-.97.517-1.915.762-2.87.183-.713.517-1.46.917-2.117.567-.933.787-1.984 1.165-2.98.04-.105.078-.212.12-.316.066-.156.19-.233.355-.23.19.002.256.134.27.3.04.43.152.703.7.75.534.043.55.35.362.897-.24.71-.6 1.412-.4 2.22.105.416.02.75-.548.57-.096-.03-.22-.054-.234.064-.044.327-.377.482-.45.768-.312 1.224-.925 2.337-1.298 3.537-.093.3-.218.604-.145.938.018.082 0 .23-.053.262-.862.536-.867 1.54-1.254 2.326-.332.672-.51 1.417-.78 2.12-.203.536.075 1.004.194 1.48.31 1.242.766 2.438 1.314 3.598.146.31.293.59.632.756.263.127.44.363.32.7-.05.134-.007.253.043.38.803 2.06 1.916 3.958 3.064 5.84.342.56.694 1.12.982 1.71.293.6.725 1.025 1.3 1.342.37.203.437-.107.53-.296.52-1.03.846-2.133 1.173-3.234.687-2.328 1.38-4.654 2.055-6.986.172-.595.283-1.207.42-1.81.037-.173.024-.335-.084-.486-.35-.484-.145-.91.204-1.256.215-.21.363-.435.432-.707.494-1.95 1.107-3.87 1.438-5.86.13-.776.063-1.564.054-2.352-.01-.856.166-1.716.144-2.582-.028-1.052.112-2.106-.106-3.155-.076-.366-.01-.74.102-1.11.125-.418.355-.39.637-.215.28.174.357.478.402.778.13.875.27 1.75.373 2.627.19 1.615-.064 3.232 0 4.85.022.568.23 1.124.252 1.65.035.762.72 1.27.6 2.036-.022.138.12.225.24.288.244.128.39.358.543.566.212.292.062.708-.242.776-.275.062-1.038-.442-1.134-.728-.107-.32-.234-.635-.372-.94-.065-.147-.108-.37-.32-.34-.173.025-.17.238-.208.373-.396 1.375-.718 2.765-.98 4.173-.26 1.402-.583 2.796-.908 4.187-.084.36.037.708-.044 1.062-.077.34.083.79-.507.825-.113.007-.158.19-.193.322-.527 1.98-1.268 3.902-1.71 5.908-.063.286-.093.515.117.784.254.326.106.638-.253.82-.652.327-.613 1.098-1.02 1.585-.076.09.07.197.16.266.215.166.247.372.124.6-.165.308-.02.456.228.642.473.354.71.973 1.334 1.175.193.063.354.195.584.154.36-.064.668.082.774.42.21.664.88 1.175.595 2.014-.163.473-.38.657-.88.62-1.244-.087-2.02-.92-2.808-1.725-.353-.36-.698-.72-1.125-1.042-.14.4-.297.738-.08 1.118.187.325-.09.457-.302.548-.63.267-.855.805-1.09 1.392-.256.643-.56 1.276-1.31 1.553-.387.146-.417.744-.905.85-.14.03-.308.18-.418.08-.41-.37-.736-.04-1.066.11-.323.15-.614.367-.92.553-.406.247-.77.59-1.32.48-.174-.036-.363.06-.504.208-.3.318-.468.124-.546-.18-.08-.308-.142-.627-.15-.944-.01-.41.106-.707.64-.713.57-.006 1.06-.172 1.498-.67.215-.246.697-.508 1.148-.572.64-.09 1.02-.457 1.312-1.046.205-.415.717-.634.974-1.066.185-.31.34-.6.347-.977.008-.46.285-.798.646-1.066.71-.528.656-1.723-.092-2.148-.092-.053-.22-.146-.225-.23-.104-1.315-1.06-2.203-1.656-3.264-1.096-1.953-2.318-3.83-3.533-5.712-.666-1.032-.812-2.286-1.31-3.396-.282-.627-.496-1.284-.764-1.993-.425.72-.462 1.48-.76 2.145-.364.81-.527 1.625-.33 2.51.07.33.032.683-.313.905-.054.036-.112.13-.105.188.094.805-.4 1.49-.446 2.26-.026.433-.294.768-.397 1.166-.035.127-.13.243-.27.27-.594.112-.71.57-.77 1.06-.066.506-.522.655-.84.915-.573.468-1.283.755-1.657 1.472-.26.496-.608.955-.97 1.388-.34.41-.302.757-.09 1.226.27.608.645 1.222 1.14 1.52.606.365 1.034.96 1.686 1.215.55.216.794-.353 1.095-.616.537-.47 1.053-.468 1.37.137.114.217.117.38-.054.56-.15.16-.28.34-.42.513.145.166.297.015.435.048.09.023.19.01.28.03.108.03.496 1.275.417 1.403-.237.388-.736.414-.972.258-.537-.353-1.162-.288-1.725-.48-1.002-.34-1.76-.973-2.58-1.55-.267-.187-.458-.358-.58.133-.074.305-.368.447-.66.443-.35-.004-.304-.362-.423-.58-.294-.543.157-1.11-.083-1.647-.065-.146.02-.377-.215-.413-.222-.035-.323.158-.444.298-.168.196-.22.427-.218.682.008.867-.01 1.734.02 2.6.02.538-.386.683-.718.913-.355.244-.483-.17-.72-.263-.197-.076-.247-.26.007-.352.643-.23.773-.697.67-1.31-.043-.275.088-.558-.04-.906M25.682 13.287c-.733 1.65-.926 3.282-1.2 4.894-.083.483-.118.976-.46 1.37-.046.054-.073.134-.087.206-.367 1.878-1.11 3.65-1.722 5.443-.836 2.456-1.518 4.92-1.814 7.492-.013.11-.025.23-.07.33-.81 1.774-.83 3.73-1.284 5.586-.33 1.35-.352 2.756-.766 4.09-.136.438-.12.897.172 1.302.207.288.268.622.247.968-.015.212.094.492-.18.602-.26.104-.548.04-.73-.166-.528-.588-1.092-1.16-1.506-1.823-.182-.292-.352-.722-.34-1.104.05-1.516-.77-2.765-1.217-4.126-.27-.818-.755-1.538-1.164-2.29-.336-.618-.994-.935-1.213-1.623-.066-.208-.478-.322-.748-.443-.34-.153-.447-.448-.356-.736.102-.327.413-.216.705-.228.572-.022.713.378.968.712.167.218.396.582.62.492.302-.12.09-.497.046-.76-.458-2.78-.922-5.563-1.39-8.345-.058-.353-.143-.7-.22-1.048-.16-.713.116-1.41.013-2.144-.257-1.823-.397-3.663-.58-5.496-.026-.248-.13-.477-.37-.515-.314-.05-.287.27-.376.462-.393.853-.534 1.85-.996 2.61-.694 1.144-1.102 2.384-1.634 3.578-.535 1.202-.885 2.484-1.402 3.696-.372.87-.1 1.52.454 2.154.216.247.506.45.572.866-.362.01-.508-.28-.73-.41-.65-.39-.91-.382-1.298.27-.375.627-.737 1.28-.913 1.996-.863 3.505-1.553 7.046-2.2 10.596-.034.183-.108.36-.173.536-.087.236-.247.37-.516.347-.285-.024-.378-.21-.4-.46l-.007-.055c-.142-.982-.147-.983-1.083-.597-.097.042-.193.14-.334.02.035-.276.3-.364.482-.483.812-.535 1.296-1.205 1.415-2.23.237-2.058.747-4.07 1.154-6.103.124-.61.193-1.212.034-1.84-.088-.35-.102-.795.534-.707.317.043.378-.284.46-.494.68-1.733 1.354-3.472 2.013-5.216.343-.9.327-.906-.32-1.464.007-.017.014-.048.022-.048.93-.023 1.18-.698 1.465-1.424.87-2.208 1.873-4.36 2.847-6.525.083-.183.44-.453-.064-.648-.127-.05.064-.22.167-.28.715-.438.814-1.036.696-1.842-.096-.66-.185-1.383.228-2.042.28-.447.148-.96-.128-1.377-.174-.263-.16-.45.027-.648.575-.607.656-1.315.647-2.133-.005-.558-.115-1.32.65-1.66.132-.058.124-.256.15-.407.076-.43 0-1.01.753-.853.05.01.143-.055.175-.108.395-.655.904-1.247 1.12-2 .006-.02-.004-.05.005-.056.455-.24.914-.477 1.193-.943.007-.01.07.007.105.02.2.068.955 1.367.92 1.58-.038.224-.21.295-.395.357-.292.102-.596.24-.684.546-.25.873-.9 1.43-1.492 2.047-.253.264-.432.624-.305 1.006.09.278-.156.357-.206.534-.067.24-.322.593-.08.717.34.176.234-.303.352-.41.696-.63.8-1.57 1.29-2.303.02-.03.027-.07.047-.102.096-.15.137-.4.388-.33.242.07.432.215.44.517.01.276-.09.516-.203.755-.214.46-.43.923-.646 1.383-.124.267-.278.49-.04.82.2.28-.08.52-.317.686-.86.604-1.52 2.35-1.274 3.378.076.32.368.465.553.696.133.17.366.273.356.57-.248.043-.36-.174-.527-.265-.645-.355-1.02-.17-1.06.564-.032.6.016 1.2.003 1.802-.055 2.47.24 4.922.507 7.373.146 1.347.238 2.698.38 4.046.07.666.095 1.345.58 1.902.227.26.27.604.1.955-.257.532-.068 1.1.027 1.61.508 2.712.647 5.51 1.784 8.083.04.085.074.17.164.264.068-.622.254-1.22.325-1.833.076-.67.092-1.35.138-2.024.023-.345.036-.663-.296-.91-.2-.15-.168-.395-.048-.62.868-1.64 1.33-3.422 1.824-5.197.376-1.355.8-2.697 1.223-4.04.345-1.095.672-2.194.93-3.314.02-.09.056-.194.03-.275-.252-.81.042-1.46.47-2.147.485-.778.79-1.66.98-2.572.088-.418.298-.81.413-1.226.32-1.155.616-2.32.93-3.477.138-.503.442-.937.495-1.488.067-.683-.224-1.173-.596-1.67-.205-.272-.493-.593.17-.666.173-.02.105-.167.07-.27-.315-.965-.6-1.947-1.188-2.794-.192-.277-.214-.484.105-.637.288-.137.618-.31.782.16.36 1.03 1.224 1.605 2.023 2.355.273-.88.522-1.685.772-2.486.182-.583.46-.67.85-.202.426.505.748 1.086.953 1.723.055.17.017.335-.048.494-.492 1.223-.737 2.527-1.247 3.744-.118.28-.08.555.03.864.535 1.508.976 3.05 1.542 4.546.374.988.58 2.043 1.034 2.983.73 1.514.62 3.253 1.404 4.736.15.284.07.632.11.947.073.578.22 1.118.53 1.644.397.67.48 1.476.49 2.237.017 1.262.498 2.432.6 3.67.02.224.12.2.304.11.658-.32.892-.143.91.596.03 1.103-.188 2.175-.294 3.26-.15 1.532.074 3.062.464 4.572.18.704.07 1.484.093 2.23.006.15-.08.292-.192.318-.405.103-.757.31-1.124.493-.134.067-.192-.066-.23-.176-.102-.284-.247-.56-.295-.853-.153-.928-.677-1.634-1.29-2.295-.328-.354-.257-.685.236-.76.458-.068.503-.27.45-.66-.11-.84-.104-1.7-.284-2.522-.34-1.554-.657-3.114-1.016-4.664-.452-1.952-.89-3.917-1.225-5.9-.18-1.074-.333-2.208-1.06-3.118-.08-.1-.057-.207-.04-.32.192-1.223-.25-2.3-.697-3.402-.253-.625-.313-1.33-.552-1.974-.11-.298-.02-.686-.408-.855-.033-.014-.065-.102-.052-.14.197-.58-.182-1.045-.308-1.71M107.213 37.72c.818-.184 1.05-.866.654-1.532-.158-.265-.406-.482-.476-.916.54.398.69.206.822-.307.253-.975.133-1.972.277-2.95.042-.29-.03-.6-.04-.9-.04-1.2-.332-1.568-1.494-1.94-.3-.094-.676-.037-.9-.34.1-.185.248-.146.368-.142 1.138.04 1.49-.58 1.438-1.738-.022-.505-.078-1.026-.234-1.503-.207-.635-.23-1.29-.355-1.93-.503-2.548-1.117-5.073-1.873-7.56-.104-.344-.2-.688-.215-1.05-.006-.13.004-.286-.152-.33-.146-.042-.246.07-.332.17-.335.392-.565.845-.78 1.307-.334.715-.827 1.345-1.107 2.09-.1.267-.232.517-.167.813.03.138-.017.25-.1.366-1.02 1.393-1.716 2.952-2.294 4.568-.05.14-.06.27-.025.432.09.432.044.84-.367 1.133-.164.118-.322.278-.416.455-.775 1.463-1.753 2.813-2.42 4.34-.294.673-.29 1.287.043 1.944.154.304.233.39.56.194.882-.533 1.83-.92 2.845-1.12.186-.036.455-.19.554.06.087.217-.175.35-.333.467-.223.165-.56.228-.73.375-.486.43-1.155.52-1.613.94-.933.857-.57 1.992-.52 3.024.083 1.724-.022 3.423-.448 5.094-.1.39-.39.647-.856.535-.63-.152-1.32-.175-1.715-.82-.418-.688-.494-.68-1.3-.286-.41.202-.876.3-1.34.084-.286-.135-.423-.307-.197-.612.6-.813 1.014-1.74 1.655-2.54.27-.334.336-.913.318-1.376-.02-.64.2-1.307-.18-1.932-.152-.25.093-.454.3-.596.53-.366.747-1.03.57-1.652-.345-1.21-.696-2.418-.99-3.64-.224-.923-.556-1.8-.962-2.648-.132-.274-.264-.79-.788-.327-.147.13-.397.023-.567-.127-.184-.16-.106-.345-.054-.52.077-.258.25-.247.49-.223.45.047.686-.252.56-.69-.81-2.815-1.962-5.447-4.05-7.59-.42-.434-.842-.894-.656-1.63.084-.33-.23-.625-.435-.89-.88-1.152-1.815-2.252-3.056-3.13-.292.62-.31 1.26-.37 1.877-.174 1.76-.223 3.535-.47 5.284-.593 4.21-.456 8.44-.472 12.668-.004.986.457 1.857.523 2.816.096 1.37.444 2.772.247 4.097-.174 1.18.576 1.894.8 2.844.078.325.546.45.86.598.687.324 1.217.875 1.888 1.225.625.326.52 1.11.1 1.462-.067.06-.202.157-.224.14-.445-.384-.86-.13-1.31.004-.223.066-.297-.226-.385-.416-.262-.57-.596-1.073-1.176-1.396-.323-.178-.624-.22-.966-.144-.034.182.142.203.213.3.166.224.074.37-.154.41-.273.048-.664-.063-.686-.267-.065-.63-.344-.458-.733-.34-.342.104-.4-.21-.388-.464.046-.81.1-1.62.178-2.43.038-.388-.347-.76-.02-1.16.047-.062-.14-.144-.233-.204-.554-.364-.582-.5-.24-1.032.226-.352.155-.985-.144-1.29-.29-.295-.534-1.576-.368-1.93.008-.018.012-.043.024-.05.918-.415.207-1.18.37-1.76.05-.18-.17-.224-.306-.27-.39-.13-.408-.472-.19-.654.512-.424.425-1 .443-1.508.055-1.525.028-3.053.03-4.58 0-.128.002-.335-.067-.373-.527-.285-.313-.697-.193-1.07.297-.927.336-1.888.367-2.843.062-1.937.404-3.853.412-5.793 0-.146.106-.343-.028-.424-.188-.114-.3.1-.404.216-.214.237-.432.478-.602.746-.25.397-.65.408-1.037.453-.177.02-.34-.072-.425-.232-.09-.175.01-.346.123-.46.518-.516 1.125-.96 1.557-1.536.462-.618.876-1.296 1.154-2.03.173-.456.32-.924.466-1.392.15-.477-.002-.73-.508-.75-.336-.013-.556-.132-.774-.37-.218-.238-.502-.405-.858-.308-.18.05-.39.054-.404-.163-.027-.393-.426-.77-.092-1.17.19-.23.418-.045.617.04.295.124.59.252.87.403.228.122.47.09.638-.02.176-.115.05-.35-.01-.522-.124-.355-.246-.706-.24-1.095.006-.3.174-.424.424-.405.217.016.52-.127.55.344.023.373.263.73.427 1.146.265-.208.254-.52.343-.756.3-.8.868-1.45 1.166-2.245.006-.02.016-.035.025-.052.247-.457.853-.84 1.096-.695.28.165.466 1.162.19 1.48-1 1.16-1.096 2.66-1.598 4.008-.097.262-.037.436.2.566 1.026.567 1.72 1.505 2.546 2.296.582.56 1.146 1.14 1.707 1.723.212.22.36.192.552-.027.332-.38.648-.272 1.092-.08.486.208.47.502.587.9.115.397.107.79.107 1.15-.002.92.38 1.68.79 2.438 1.044 1.916 2.054 3.847 2.736 5.927.134.408.498.448.783.57.382.162.436.373.27.698-.087.175-.165.35-.106.54.37 1.19.38 2.454.814 3.715.58-1.373 1.604-2.43 2.137-3.775.35-.875.745-1.732 1.132-2.587.226-.5-.228-1.19.318-1.447.562-.265.63-.756.866-1.176.674-1.204 1.1-2.507 1.465-3.83.026-.092.03-.217.09-.266.65-.5.818-1.275 1.06-1.98.142-.406.483-.703.567-1.053.256-1.04.17-2.092-.265-3.103-.21-.49-.562-.73-1.062-.815-.265-.046-.56-.04-.74-.305.046-.05.064-.09.094-.1 1.09-.288 1.207-.55.82-1.637-.39-1.1-.75-2.21-1.11-3.32-.058-.174-.11-.38-.07-.55.09-.397.3-.818.696-.888.405-.07.562.378.69.698.4.996.797 1.993 1.1 3.026.245.836.377.872 1.125.406.074-.047.162-.07.317-.133-.094.433-.405.643-.584.93-.217.347-.27.68-.14 1.07.394 1.18.778 2.36 1.138 3.55.104.346.26.44.562.267 1.145-.654 2.434-.63 3.684-.803.307-.043.527.168.8.23.157.036.103.21.036.334-.098.182-.2.36-.287.546-.124.27-.298.327-.53.136-.165-.136-.33-.246-.594-.168.148.205.273.404.422.583.273.324.11.577-.094.853-.21.288-.428.216-.69.086-.287-.144-.556-.3-.786-.533-.354-.356-.85-.36-1.36.024-.32.243-.522.557-.315 1.02.2.444.324.92.48 1.386.187.57.464.686 1.032.44.25-.105.45-.335.754-.33.065.253-.122.346-.245.417-.996.582-1.19 1.457-1.013 2.522.205 1.226.502 2.43.802 3.637.033.138.047.314.248.332.105.008.2.04.185.158-.157 1.096.358 2.09.477 3.143.155 1.386.384 2.76.523 4.146.075.75.284 1.432.645 2.085.42.758.39.836-.393 1.134-.268.102-.217.32-.242.516-.348 2.762-.748 5.516-1.22 8.26-.115.66-.563 1.008-1.116 1.237-.414.172-.67-.076-.55-.503.356-1.292.493-2.623.72-3.938.096-.555-.09-.88-.6-1.217" clip-path="url(#b)"/></svg>