<?xml version="1.0" standalone="no"?>
<!DOCTYPE svg PUBLIC "-//W3C//DTD SVG 20010904//EN"
 "http://www.w3.org/TR/2001/REC-SVG-20010904/DTD/svg10.dtd">
<svg version="1.0" xmlns="http://www.w3.org/2000/svg"
 width="16.000000pt" height="16.000000pt" viewBox="0 0 16.000000 16.000000"
 preserveAspectRatio="xMidYMid meet">
<metadata>
Created by potrace 1.11, written by Peter Selinger 2001-2013
</metadata>
<g transform="translate(0.000000,16.000000) scale(0.004848,-0.004848)"
fill="#000000" stroke="none">
<path d="M1685 3062 c-2 -2 -313 -3 -692 -4 -563 0 -692 -3 -707 -14 -17 -12
-18 -23 -12 -106 4 -62 11 -97 21 -104 11 -8 11 -14 3 -22 -8 -8 -8 -15 1 -26
7 -8 11 -20 10 -28 -4 -29 2 -38 23 -38 21 0 21 0 2 -14 -17 -13 -17 -17 -6
-37 11 -16 11 -23 2 -29 -6 -4 -10 -18 -8 -31 l3 -24 135 3 c105 2 129 0 110
-9 -14 -6 -71 -11 -127 -11 -104 0 -125 -7 -103 -33 9 -10 33 -15 79 -15 43 0
61 -3 52 -9 -8 -5 -41 -7 -74 -4 -57 5 -59 5 -55 -18 3 -23 7 -24 118 -30 123
-5 109 -11 -27 -11 -85 0 -98 -4 -87 -32 5 -13 25 -16 108 -18 l101 -2 -100
-5 c-91 -6 -100 -8 -100 -26 0 -18 7 -20 80 -21 121 -1 159 -3 153 -9 -3 -3
-56 -6 -117 -6 -90 0 -113 -3 -118 -14 -3 -9 0 -21 6 -28 7 -10 7 -17 -1 -25
-24 -24 0 -42 59 -44 l58 -2 -52 -3 c-51 -4 -80 -27 -48 -40 14 -5 13 -7 -1
-18 -33 -24 -10 -45 53 -47 l58 -2 -52 -3 c-34 -3 -53 -9 -57 -19 -13 -33 5
-37 117 -31 70 4 107 3 101 -3 -5 -5 -59 -11 -119 -12 -102 -3 -110 -4 -110
-23 0 -19 6 -20 112 -19 64 1 110 -2 107 -7 -3 -5 -47 -9 -98 -9 -107 0 -146
-15 -107 -42 18 -13 19 -17 6 -21 -18 -7 -21 -47 -3 -47 6 0 3 -6 -8 -14 -16
-12 -17 -18 -7 -34 8 -14 8 -23 1 -30 -6 -6 -7 -18 -3 -29 4 -10 7 -28 6 -41
-3 -32 15 -35 120 -22 60 7 96 7 102 1 14 -14 -22 -21 -128 -24 -83 -2 -90 -4
-90 -22 0 -18 6 -20 50 -18 l50 1 -53 -10 c-45 -9 -53 -14 -50 -32 3 -18 9
-21 46 -18 28 2 41 -1 37 -8 -3 -5 -22 -10 -41 -10 -32 0 -56 -21 -41 -36 3
-3 50 -6 104 -6 l98 -1 -90 -9 c-94 -10 -118 -19 -108 -45 5 -13 22 -14 115
-8 75 5 108 3 108 -4 0 -10 -126 -17 -196 -12 -26 2 -39 -26 -22 -46 9 -11 9
-16 -3 -23 -11 -7 -11 -13 -3 -27 12 -20 25 -20 149 -10 52 4 70 4 53 -2 -15
-5 -66 -12 -113 -16 -73 -6 -85 -10 -85 -26 0 -10 5 -21 10 -24 8 -5 7 -11 -1
-21 -23 -28 5 -37 105 -32 53 2 93 1 88 -4 -4 -4 -52 -9 -107 -10 -92 -3 -100
-5 -100 -23 0 -19 7 -20 107 -20 59 1 104 -3 102 -7 -3 -4 -36 -8 -73 -8 -87
0 -131 -9 -131 -26 0 -8 8 -14 17 -14 14 0 13 -3 -6 -16 -14 -10 -21 -23 -18
-35 3 -10 0 -20 -6 -22 -17 -5 6 -81 26 -85 11 -2 17 3 17 16 0 16 17 32 35
32 9 0 45 -44 45 -55 0 -6 -12 -12 -28 -13 -53 -4 -92 -11 -102 -17 -13 -8
-13 -42 0 -50 6 -4 7 -12 3 -18 -4 -6 -8 -33 -10 -60 -3 -56 11 -77 54 -77 25
0 28 -4 30 -33 2 -26 0 -29 -8 -14 -5 9 -18 17 -29 17 -25 0 -34 -46 -21 -98
12 -44 41 -76 49 -54 3 10 11 7 28 -9 18 -17 27 -20 36 -11 8 8 14 7 24 -6 11
-16 13 -16 32 1 17 16 20 16 32 2 11 -13 15 -14 29 -1 14 12 18 12 29 0 20
-22 32 -8 34 39 l1 42 4 -37 c5 -41 25 -63 48 -54 13 5 15 16 11 53 l-5 48 11
-52 c8 -42 15 -53 30 -53 10 0 21 7 24 15 5 12 9 13 21 4 30 -25 37 4 27 111
-8 94 -8 100 9 100 17 0 18 -7 13 -72 -8 -89 3 -142 28 -146 18 -4 19 2 13
105 l-5 108 37 1 38 1 1 -100 c0 -78 4 -103 17 -116 34 -35 41 27 19 173 -6
39 -4 48 7 44 10 -3 15 -29 17 -99 3 -110 6 -122 29 -117 16 3 18 14 15 106
-3 65 0 102 6 102 18 0 24 -39 17 -113 -6 -60 -4 -75 9 -86 31 -26 39 -3 34
105 -3 57 -1 104 4 104 4 0 8 -6 9 -12 0 -7 3 -51 5 -98 5 -89 12 -107 39 -96
15 5 16 18 10 106 -6 84 -5 100 7 100 10 0 13 -8 10 -30 -2 -17 -1 -64 3 -106
7 -81 25 -105 51 -69 13 18 15 18 33 1 35 -31 43 -11 40 98 -1 57 1 101 7 101
5 0 8 -40 6 -90 -3 -66 0 -95 11 -109 28 -38 38 -10 34 95 -3 54 -1 99 4 99 5
0 9 -33 9 -74 0 -126 39 -175 51 -65 l6 54 1 -46 c2 -51 22 -86 42 -74 9 6 11
32 5 111 -5 73 -4 104 4 104 10 0 15 -51 11 -130 -2 -47 15 -90 36 -90 15 0
16 11 11 110 -4 60 -3 110 2 110 4 0 11 -42 14 -92 6 -107 12 -129 34 -121 13
5 15 21 10 98 -3 50 -1 98 4 106 5 9 9 -21 9 -82 0 -103 13 -138 45 -126 18 7
18 19 -1 180 -5 38 -3 47 9 47 13 0 16 -16 15 -93 0 -108 7 -139 30 -135 11 2
19 17 22 43 l6 40 8 -35 c8 -33 21 -50 39 -50 5 0 6 52 2 115 -4 64 -4 115 1
115 5 0 10 -43 11 -96 1 -74 5 -101 18 -113 14 -14 17 -14 25 -1 5 8 7 24 5
35 -10 50 -14 174 -6 180 16 9 23 -33 17 -108 -5 -55 -3 -76 8 -91 23 -28 46
-13 47 31 l1 38 11 -49 c12 -49 36 -74 38 -39 0 10 0 61 -1 113 -1 52 2 92 6
88 4 -4 8 -53 10 -109 3 -113 14 -138 44 -102 14 18 19 20 24 8 3 -8 15 -15
26 -15 16 0 20 7 21 38 2 28 3 31 6 10 2 -14 10 -32 18 -38 21 -17 38 21 25
55 -14 37 -11 155 5 155 8 0 12 -29 14 -102 2 -107 4 -118 26 -118 20 0 22 18
13 115 -8 90 -6 115 10 115 4 0 6 -42 4 -93 -4 -81 -2 -95 16 -117 32 -38 40
-16 33 88 -6 93 -5 112 7 112 4 0 8 -44 10 -98 3 -97 16 -133 42 -117 9 5 10
35 5 110 -5 65 -4 105 3 109 6 4 11 -33 14 -100 3 -78 7 -107 18 -114 23 -14
31 -12 37 10 5 19 5 19 22 -1 15 -19 18 -20 30 -5 13 15 15 15 26 0 7 -10 17
-14 24 -10 8 6 10 36 5 112 -5 75 -4 104 4 104 8 0 11 -23 11 -67 -2 -71 6
-141 15 -150 12 -12 38 8 32 24 -4 9 -9 59 -11 110 -4 73 -2 93 8 93 11 0 14
-25 15 -107 1 -90 4 -109 18 -120 10 -7 22 -9 26 -5 4 4 3 57 -3 116 -6 59 -8
110 -5 113 17 18 26 -19 26 -111 0 -96 8 -126 32 -126 5 0 13 10 18 23 l9 22
0 -22 c1 -20 6 -23 44 -23 l43 0 13 60 c15 68 28 80 23 21 -5 -49 14 -63 41
-30 17 21 19 35 14 130 -5 115 -11 137 -31 120 -7 -6 -16 -8 -19 -4 -10 9 -9
53 1 52 30 -5 32 3 29 87 -2 47 1 88 6 91 4 3 5 12 1 22 -4 9 -6 26 -5 39 0
12 -6 25 -14 29 -13 5 -13 7 2 19 23 17 9 31 -37 37 l-35 4 37 1 c42 2 56 16
38 37 -7 9 -8 15 -2 15 6 0 9 45 8 120 -1 95 -4 123 -16 130 -13 8 -12 10 3
10 15 0 17 12 19 103 2 118 3 137 11 157 9 23 3 130 -7 130 -4 0 -3 6 3 13 7
10 8 29 2 60 -5 31 -5 49 3 57 7 7 7 16 -1 29 -6 10 -8 23 -3 32 5 7 5 18 1
24 -7 8 -7 65 -1 73 7 7 5 69 -2 79 -5 6 -5 14 0 16 8 6 8 114 -2 327 -3 63
-6 186 -6 273 0 161 -11 216 -43 217 -70 3 -1189 4 -1192 2z m1121 -76 c15 -6
19 -63 6 -84 -7 -10 -116 -12 -513 -10 -277 1 -830 1 -1228 0 -576 -2 -726 0
-733 10 -4 7 -7 29 -6 48 l3 35 570 2 c314 2 576 4 584 5 28 5 1303 -1 1317
-6z m-71 -167 c10 -30 -3 -39 -55 -39 -66 0 -71 -12 -62 -131 7 -100 8 -549 2
-914 -2 -121 0 -313 4 -426 8 -222 5 -235 -44 -227 -21 3 -22 10 -27 118 -3
63 -6 374 -7 690 -1 316 -6 628 -11 693 -7 105 -6 119 10 137 33 37 15 45
-126 58 -140 13 -404 17 -999 15 -195 -1 -407 0 -470 1 -63 1 -177 -2 -252 -6
-141 -8 -188 -1 -188 26 0 17 191 20 1374 24 401 1 731 3 732 5 1 1 27 0 58
-1 44 -3 56 -8 61 -23z m-2307 -31 c3 -26 1 -28 -30 -27 -30 0 -31 1 -10 9 26
11 29 36 5 44 -11 3 -7 4 7 3 19 -2 26 -8 28 -29z m109 -54 c-3 -3 -12 -4 -19
-1 -8 3 -5 6 6 6 11 1 17 -2 13 -5z m1014 -93 c-1 -79 -2 -84 -41 -139 -50
-72 -76 -102 -88 -102 -13 0 -152 183 -152 200 0 7 20 35 45 61 25 26 45 53
45 58 0 11 170 20 183 10 5 -4 9 -44 8 -88z m504 64 c14 -19 25 -36 25 -38 0
-6 -135 -117 -142 -117 -3 0 -19 22 -37 50 -18 27 -45 63 -62 79 -54 54 -43
62 81 60 l109 -1 26 -33z m-1339 17 c7 -4 11 -33 11 -72 -1 -36 2 -186 5 -335
4 -148 9 -479 10 -735 2 -256 6 -472 8 -480 4 -12 -5 -15 -40 -15 l-45 0 -7
165 c-7 150 -6 263 9 838 3 123 1 187 -6 196 -12 15 -18 416 -7 435 8 12 45
14 62 3z m97 -13 c-4 -13 -9 -17 -15 -11 -11 11 -3 32 12 32 4 0 6 -9 3 -21z
m87 11 c0 -5 -2 -10 -4 -10 -3 0 -8 5 -11 10 -3 6 -1 10 4 10 6 0 11 -4 11
-10z m400 4 c0 -15 -54 -74 -69 -74 -9 0 -26 18 -38 40 l-21 40 64 0 c35 0 64
-3 64 -6z m403 -1 c3 -5 8 -217 12 -473 3 -256 8 -532 11 -615 2 -82 -1 -193
-7 -245 -8 -76 -7 -115 5 -195 8 -55 12 -103 8 -106 -4 -4 -26 -9 -49 -11 -39
-3 -43 -1 -47 22 -11 59 -26 811 -23 1140 1 74 1 212 -1 307 -3 158 -2 172 15
176 30 8 72 7 76 0z m453 -8 c-25 -19 -40 -19 -56 0 -11 13 -6 15 31 15 41 -1
43 -2 25 -15z m310 3 c3 -4 7 -29 11 -56 5 -46 3 -51 -38 -99 -88 -101 -136
-115 -173 -51 -11 18 -22 35 -25 38 -3 3 -23 27 -45 53 l-38 48 21 16 c12 8
34 26 49 39 25 23 34 24 130 22 57 -1 106 -6 108 -10z m-2041 -8 l30 -8 -35
-1 c-19 0 -42 4 -50 9 -12 8 -11 10 5 9 11 -1 34 -5 50 -9z m695 1 c0 -5 15
-27 34 -50 22 -26 32 -48 29 -60 -3 -10 -37 -50 -77 -89 l-73 -70 -28 31 c-15
18 -50 56 -77 86 -27 29 -48 57 -46 62 2 4 21 28 42 53 l39 46 78 0 c44 0 79
-4 79 -9z m690 -56 c0 -3 23 -33 50 -66 28 -33 50 -67 50 -75 0 -16 -117 -141
-125 -133 -3 4 -7 192 -6 282 1 25 3 27 16 13 8 -8 15 -17 15 -21z m-1367 -12
c-18 -2 -48 -2 -65 0 -18 2 -4 4 32 4 36 0 50 -2 33 -4z m133 0 c-7 -7 -77 -5
-85 3 -2 2 17 4 44 4 27 0 45 -3 41 -7z m1577 -50 c12 -15 40 -47 62 -72 47
-53 69 -96 58 -116 -14 -24 -101 -85 -121 -85 -18 0 -92 63 -92 79 0 3 -16 24
-35 46 -19 22 -35 45 -35 52 0 11 119 122 133 123 4 0 17 -12 30 -27z m-1285
-34 c9 -12 22 -26 27 -33 46 -52 85 -107 85 -120 0 -15 -119 -156 -132 -156
-4 0 -17 9 -28 20 -16 16 -19 35 -20 137 -2 147 -3 138 16 157 21 21 31 20 52
-5z m383 -36 c13 -21 29 -44 35 -50 7 -7 14 -16 16 -21 1 -4 20 -21 41 -36 20
-16 37 -32 37 -37 0 -5 -34 -44 -76 -88 -86 -90 -89 -90 -139 -21 -16 22 -44
60 -61 83 -17 23 -29 47 -27 52 4 14 136 154 145 155 3 0 17 -17 29 -37z
m-651 -11 c0 -4 -17 -6 -37 -4 -65 6 -70 10 -15 11 28 0 52 -3 52 -7z m1882
-127 c2 -74 0 -135 -3 -135 -3 0 -19 20 -37 45 -32 45 -46 54 -57 35 -8 -13 9
-44 50 -89 19 -20 31 -41 27 -46 -4 -6 -29 -28 -57 -50 -27 -22 -51 -43 -53
-47 -5 -10 -42 -10 -42 0 0 4 -29 38 -65 75 -36 37 -65 72 -65 77 0 12 125
120 140 120 6 0 20 -10 31 -22 15 -19 20 -21 28 -9 7 10 4 23 -10 42 l-19 27
57 56 c32 31 61 56 65 56 4 0 8 -61 10 -135z m-487 30 c20 -27 50 -65 67 -83
41 -46 33 -68 -47 -125 -60 -44 -95 -58 -95 -39 0 4 -30 38 -65 76 l-65 69 75
73 c41 41 75 79 75 86 0 15 6 8 55 -57z m-436 8 c0 -39 -2 -44 -9 -25 -12 28
-34 28 -54 0 -19 -27 -20 -59 -3 -78 10 -12 9 -12 -5 -1 -37 28 -33 51 18 102
27 27 50 49 51 49 2 0 3 -21 2 -47z m1198 41 c-3 -3 -12 -4 -19 -1 -8 3 -5 6
6 6 11 1 17 -2 13 -5z m-1664 -174 c12 -19 36 -48 54 -65 18 -16 33 -37 33
-45 0 -25 -154 -173 -176 -168 -12 2 -39 39 -72 100 l-54 98 73 80 73 80 24
-22 c13 -13 33 -38 45 -58z m362 -12 c17 -25 47 -64 68 -87 20 -22 37 -45 37
-49 0 -4 -35 -42 -78 -85 -50 -50 -83 -76 -93 -72 -8 3 -40 41 -72 85 -64 87
-64 89 -10 148 16 16 43 48 62 71 18 23 39 40 45 38 6 -2 25 -24 41 -49z m102
20 c-3 -7 -5 -2 -5 12 0 14 2 19 5 13 2 -7 2 -19 0 -25z m-37 -8 c0 -5 -2 -10
-4 -10 -3 0 -8 5 -11 10 -3 6 -1 10 4 10 6 0 11 -4 11 -10z m-935 -10 c8 -12
-61 -12 -90 0 -15 6 -6 9 32 9 28 1 55 -3 58 -9z m975 -32 c0 -30 -1 -31 -14
-12 -10 13 -11 23 -4 31 15 19 18 16 18 -19z m301 -71 c34 -42 37 -51 25 -63
-8 -8 -19 -14 -24 -14 -5 0 -21 -13 -35 -30 -15 -16 -32 -30 -37 -30 -6 0 -10
44 -10 112 l0 111 21 -19 c12 -10 39 -41 60 -67z m-1261 49 c0 -9 -40 -13 -46
-5 -3 5 6 9 20 9 14 0 26 -2 26 -4z m1560 -24 c14 -16 44 -50 68 -77 45 -51
53 -81 25 -92 -10 -4 -46 -26 -80 -49 -70 -48 -66 -49 -138 36 -71 83 -70 83
-22 117 23 17 58 45 77 62 19 17 37 31 40 31 3 0 17 -13 30 -28z m-1562 -41
c3 -10 0 -12 -12 -8 -10 4 -57 8 -104 9 l-87 2 75 6 c101 9 123 8 128 -9z
m292 -76 c0 -6 13 -26 28 -45 56 -69 58 -78 20 -117 -47 -50 -121 -95 -130
-80 -4 7 -8 75 -8 151 0 115 3 143 16 158 16 17 18 16 45 -20 16 -20 29 -42
29 -47z m1599 -70 c-1 -74 -4 -135 -8 -134 -6 0 -90 99 -120 142 -13 18 -12
22 5 34 10 7 34 26 53 41 49 39 66 51 69 52 1 0 2 -61 1 -135z m-1219 47 c0
-4 14 -23 31 -41 65 -71 65 -75 26 -128 -20 -27 -57 -68 -83 -92 l-47 -45 -16
23 c-8 13 -41 54 -73 93 -32 38 -58 74 -58 80 0 7 21 32 48 58 26 25 62 63 80
85 l33 39 29 -33 c17 -18 30 -35 30 -39z m-675 48 c-3 -5 -27 -10 -53 -9 -38
1 -42 2 -22 9 37 12 82 12 75 0z m2162 -36 c-3 -3 -12 -4 -19 -1 -8 3 -5 6 6
6 11 1 17 -2 13 -5z m-783 -46 c98 -115 98 -113 6 -168 -39 -23 -73 -46 -76
-51 -10 -17 -20 -9 -43 31 -22 39 -54 65 -69 56 -4 -2 -8 11 -9 29 -3 31 3 39
65 89 37 31 72 56 78 56 7 0 28 -19 48 -42z m-412 -15 c1 -27 1 -95 -2 -153
l-5 -105 -49 65 c-26 36 -51 67 -55 70 -25 17 -16 42 35 96 30 32 54 62 54 66
0 4 4 8 9 8 5 0 11 -21 13 -47z m786 -33 c13 -19 41 -54 62 -79 22 -25 40 -50
40 -57 0 -12 -108 -122 -135 -136 -8 -5 -34 17 -76 65 -34 39 -74 84 -87 99
l-24 26 41 21 c22 12 41 26 41 31 0 6 6 10 14 10 7 0 29 13 47 30 19 16 39 28
44 27 6 -2 20 -19 33 -37z m-1748 -50 c0 -6 -35 -9 -87 -8 -82 1 -84 2 -33 8
88 11 120 11 120 0z m479 -92 c39 -48 71 -97 71 -109 0 -27 -134 -162 -157
-157 -9 2 -21 12 -27 23 -6 11 -13 22 -16 25 -14 14 -90 130 -90 138 0 4 16 6
35 4 51 -6 65 10 65 76 0 53 20 97 41 90 4 -2 39 -42 78 -90z m1638 86 c-3 -3
-12 -4 -19 -1 -8 3 -5 6 6 6 11 1 17 -2 13 -5z m-1287 -73 c11 -22 42 -65 69
-96 44 -50 49 -61 44 -89 -3 -17 -20 -47 -37 -66 -17 -19 -38 -44 -46 -56 -8
-11 -26 -27 -39 -34 -22 -12 -27 -10 -40 10 -9 13 -33 41 -54 64 -41 42 -77
104 -77 131 0 17 137 175 151 175 5 0 18 -18 29 -39z m-845 19 c-3 -6 -44 -9
-93 -8 l-87 2 75 6 c41 4 83 7 93 8 10 1 15 -2 12 -8z m1251 -67 l24 -28 -32
-32 c-18 -18 -36 -33 -40 -33 -4 0 -8 37 -7 83 0 76 1 81 15 60 9 -12 26 -34
40 -50z m298 25 c46 -55 116 -151 116 -159 0 -10 -51 -59 -61 -59 -5 0 -24
-14 -41 -30 -18 -17 -39 -30 -49 -28 -22 4 -172 197 -165 214 3 7 24 23 48 34
24 11 57 31 73 45 17 13 33 24 36 25 4 0 23 -19 43 -42z m-1561 -15 c-13 -2
-35 -2 -50 0 -16 2 -5 4 22 4 28 0 40 -2 28 -4z m1915 -165 c-2 -79 -7 -144
-11 -145 -16 -6 -23 -1 -47 35 -50 75 -120 127 -120 89 0 -13 36 -60 85 -112
63 -67 63 -59 9 -110 -27 -26 -64 -58 -83 -73 l-33 -26 -25 29 c-13 17 -49 61
-78 99 l-55 68 58 37 c31 21 71 52 87 70 17 18 48 45 70 61 22 15 62 49 90 74
27 25 51 46 53 46 2 0 2 -64 0 -142z m-1958 102 c-37 -5 -69 -4 -74 1 -6 5 20
8 65 8 l74 -2 -65 -7z m1460 -154 l75 -99 -29 -21 c-17 -12 -46 -36 -67 -53
-20 -18 -38 -33 -41 -33 -2 0 -29 30 -58 68 -29 37 -61 74 -70 83 -14 12 -16
26 -13 65 5 44 10 52 49 82 24 18 44 38 45 45 0 7 8 1 17 -13 9 -13 51 -69 92
-124z m-1131 77 c16 -32 43 -73 60 -91 46 -50 41 -72 -34 -149 -45 -47 -66
-62 -70 -52 -6 17 -13 320 -7 337 8 24 22 11 51 -45z m347 -6 c16 -10 154
-192 154 -204 0 -5 -18 -29 -40 -53 -23 -25 -49 -56 -58 -69 -36 -49 -72 -75
-72 -51 0 11 -102 164 -131 196 -11 11 -19 26 -19 32 0 7 28 42 63 78 34 36
63 69 65 74 3 9 21 8 38 -3z m1587 -4 c-7 -2 -19 -2 -25 0 -7 3 -2 5 12 5 14
0 19 -2 13 -5z m-2203 -23 c0 -5 -24 -10 -52 -10 -38 0 -49 3 -38 10 20 13 90
13 90 0z m2173 -17 c-7 -2 -19 -2 -25 0 -7 3 -2 5 12 5 14 0 19 -2 13 -5z
m-1200 -201 c3 -95 1 -160 -4 -156 -5 3 -9 9 -9 14 0 6 -20 36 -43 67 -88 116
-86 101 -15 176 35 36 64 64 65 63 1 -1 4 -74 6 -164z m-1063 154 c0 -2 -7 -7
-16 -10 -8 -3 -12 -2 -9 4 6 10 25 14 25 6z m83 -3 c-7 -2 -19 -2 -25 0 -7 3
-2 5 12 5 14 0 19 -2 13 -5z m2184 -9 c-3 -3 -12 -4 -19 -1 -8 3 -5 6 6 6 11
1 17 -2 13 -5z m-941 -118 c11 -12 30 -37 42 -58 l22 -36 -37 -31 c-66 -55
-73 -47 -72 77 0 87 2 103 12 88 7 -11 21 -29 33 -40z m-769 -49 c32 -39 71
-89 87 -110 l28 -39 -33 -36 c-52 -54 -83 -81 -95 -82 -13 0 -156 147 -173
177 -6 12 -11 27 -11 33 0 16 110 130 126 130 7 0 39 -33 71 -73z m1059 46 c9
-16 30 -41 45 -58 16 -16 43 -47 60 -68 l33 -39 -35 -26 c-19 -15 -49 -43 -67
-62 l-33 -35 -32 39 c-18 22 -54 64 -80 94 l-49 54 24 26 c13 15 32 33 43 41
11 9 29 26 40 38 26 29 29 29 51 -4z m-1518 -51 c3 -9 -22 -12 -90 -11 l-93 2
74 8 c41 5 76 11 79 14 8 8 25 0 30 -13z m824 1 c10 -9 18 -21 18 -26 0 -6 20
-34 45 -64 51 -62 51 -62 -17 -133 -24 -25 -53 -58 -66 -75 -21 -28 -23 -29
-35 -11 -7 10 -25 33 -40 50 -16 17 -44 50 -64 73 l-35 42 84 80 c45 44 85 80
87 81 3 0 13 -7 23 -17z m1067 -95 c-1 -118 -11 -148 -49 -148 -18 0 -110 100
-110 118 0 6 14 21 32 33 17 13 52 42 77 66 25 23 47 43 49 43 1 0 2 -51 1
-112z m284 55 c-13 -2 -33 -2 -45 0 -13 2 -3 4 22 4 25 0 35 -2 23 -4z m-761
-132 c37 -47 68 -87 68 -90 0 -3 -8 -16 -18 -28 -15 -19 -30 -23 -124 -29 -59
-3 -118 -4 -132 0 -24 6 -25 8 -21 73 3 47 9 70 20 76 9 4 41 30 73 56 31 27
59 43 61 37 2 -6 35 -49 73 -95z m738 85 c0 -3 -4 -8 -10 -11 -5 -3 -10 -1
-10 4 0 6 5 11 10 11 6 0 10 -2 10 -4z m-1870 -82 c30 -37 72 -82 93 -102 20
-19 37 -39 37 -44 0 -13 -154 -10 -172 5 -11 8 -19 40 -25 105 -12 127 -10
128 67 36z m-280 44 c0 -9 -16 -12 -52 -11 -125 4 -123 6 35 21 9 1 17 -4 17
-10z m1820 -175 c0 -10 -30 -13 -124 -13 -181 0 -184 10 -30 139 l28 23 63
-68 c35 -38 63 -74 63 -81z m-851 110 c0 -10 3 -43 7 -73 l6 -55 -61 1 c-34 1
-61 5 -61 8 0 6 101 136 106 136 2 0 3 -8 3 -17z m-359 -1 c0 -4 22 -36 50
-70 l50 -62 -120 0 c-72 0 -120 4 -120 10 0 14 113 128 128 129 6 1 12 -3 12
-7z m1657 2 c-3 -3 -12 -4 -19 -1 -8 3 -5 6 6 6 11 1 17 -2 13 -5z m-130 -10
c-3 -3 -12 -4 -19 -1 -8 3 -5 6 6 6 11 1 17 -2 13 -5z m-2139 -96 c-2 -5 -40
-10 -86 -12 -45 -1 -79 1 -75 5 7 7 30 9 141 15 13 1 21 -3 20 -8z m2282 8 c0
-2 -11 -6 -25 -8 -13 -3 -22 -1 -19 3 5 9 44 13 44 5z m-97 -16 c-12 -5 -34
-5 -50 0 -24 7 -21 8 22 9 38 0 45 -2 28 -9z m-2303 -45 c0 -10 -45 -23 -55
-17 -5 4 4 10 20 13 17 4 31 7 33 8 1 0 2 -1 2 -4z m2219 -26 c33 -12 34 -13
25 -46 -4 -14 -16 -23 -37 -27 -18 -3 -232 -8 -477 -12 -245 -3 -448 -8 -451
-10 -7 -4 -292 -5 -812 -3 -307 2 -362 4 -389 18 -36 18 -42 29 -28 51 10 16
-17 15 665 7 105 -1 262 2 349 6 88 5 349 9 580 9 342 0 534 6 542 17 1 0 15
-4 33 -10z m148 -25 c-3 -3 -12 -4 -19 -1 -8 3 -5 6 6 6 11 1 17 -2 13 -5z
m-29 -133 c2 -12 1 -34 -2 -47 l-7 -25 -397 2 c-218 0 -491 -3 -607 -7 -115
-4 -318 -6 -450 -5 -132 1 -393 1 -581 2 l-341 0 -16 33 -16 34 87 6 c48 4
229 6 402 6 529 -3 1698 15 1709 26 3 3 52 3 110 2 103 -3 106 -4 109 -27z
m-1028 -239 c-7 -44 -8 -43 -8 28 0 55 2 68 8 47 5 -15 5 -49 0 -75z m-1113
-9 c-2 -21 -4 -6 -4 32 0 39 2 55 4 38 2 -18 2 -50 0 -70z m62 35 c-1 -72 -5
-68 -12 10 -2 28 0 52 4 52 5 0 9 -28 8 -62z m562 40 c2 -29 1 -71 -1 -123 -2
-31 -4 -25 -11 30 -5 39 -13 80 -19 93 -8 19 -7 22 10 22 14 0 20 -7 21 -22z
m188 -20 c-1 -37 -2 -39 -9 -18 -12 36 -12 60 0 60 6 0 10 -19 9 -42z m478
-35 c-2 -16 -4 -3 -4 27 0 30 2 43 4 28 2 -16 2 -40 0 -55z m124 16 c3 -96 -4
-129 -10 -54 -6 65 -3 121 5 112 2 -2 5 -28 5 -58z m68 3 c-1 -83 -18 -95 -18
-14 -1 46 3 71 9 67 6 -3 10 -27 9 -53z m306 -46 c-7 -57 -15 -37 -14 35 1 65
2 69 9 34 5 -22 6 -53 5 -69z m54 17 c-1 -100 -6 -93 -11 15 -2 39 0 72 4 72
4 0 7 -39 7 -87z m239 16 c0 -27 -4 -52 -9 -55 -5 -3 -9 14 -9 38 0 24 -3 54
-7 68 -6 22 -5 23 10 12 11 -9 16 -29 15 -63z m-1956 -6 c2 -38 2 -77 -1 -87
-4 -20 -4 -20 -12 0 -11 27 -11 154 0 154 5 0 11 -30 13 -67z m-302 -15 c0
-39 -2 -69 -4 -67 -9 10 -14 139 -6 139 6 0 10 -32 10 -72z m69 -10 c-1 -71
-2 -77 -10 -43 -11 56 -11 125 1 125 6 0 10 -33 9 -82z m2240 15 c-2 -70 -6
-63 -11 20 -2 26 0 47 4 47 5 0 7 -30 7 -67z m-2192 0 c-3 -10 -5 -2 -5 17 0
19 2 27 5 18 2 -10 2 -26 0 -35z m-180 -15 c-3 -8 -6 -5 -6 6 -1 11 2 17 5 13
3 -3 4 -12 1 -19z"/>
<path d="M927 653 c-4 -3 -7 -34 -7 -68 0 -56 11 -85 32 -85 9 0 10 69 2 123
-6 36 -14 44 -27 30z"/>
</g>
</svg>
